Taito.ufo
<glyph name="exclam" format="2">
  <advance width="419"/>
  <unicode hex="0021"/>
  <outline>
    <contour>
      <point x="26" y="695" type="line"/>
      <point x="395" y="695" type="line"/>
      <point x="395" y="211" type="line"/>
      <point x="26" y="211" type="line"/>
    </contour>
    <contour>
      <point x="56" y="665" type="line"/>
      <point x="56" y="240" type="line"/>
      <point x="365" y="240" type="line"/>
      <point x="365" y="665" type="line"/>
    </contour>
    <contour>
      <point x="75" y="646" type="line"/>
      <point x="346" y="646" type="line"/>
      <point x="346" y="264" type="line"/>
      <point x="75" y="264" type="line"/>
    </contour>
    <contour>
      <point x="26" y="0" type="line"/>
      <point x="26" y="173" type="line"/>
      <point x="395" y="173" type="line"/>
      <point x="395" y="0" type="line"/>
    </contour>
    <contour>
      <point x="365" y="30" type="line"/>
      <point x="365" y="141" type="line"/>
      <point x="56" y="141" type="line"/>
      <point x="56" y="30" type="line"/>
    </contour>
    <contour>
      <point x="346" y="49" type="line"/>
      <point x="75" y="49" type="line"/>
      <point x="75" y="122" type="line"/>
      <point x="346" y="122" type="line"/>
    </contour>
  </outline>
</glyph>
<glyph name="quotedbl" format="2">
  <advance width="581"/>
  <unicode hex="0022"/>
  <outline>
    <contour>
      <point x="26" y="695" type="line"/>
      <point x="290" y="695" type="line"/>
      <point x="222" y="288" type="line"/>
      <point x="26" y="288" type="line"/>
    </contour>
    <contour>
      <point x="196" y="318" type="line"/>
      <point x="248" y="662" type="line"/>
      <point x="56" y="662" type="line"/>
      <point x="56" y="318" type="line"/>
    </contour>
    <contour>
      <point x="180" y="337" type="line"/>
      <point x="75" y="337" type="line"/>
      <point x="75" y="643" type="line"/>
      <point x="224" y="643" type="line"/>
    </contour>
    <contour>
      <point x="306" y="695" type="line"/>
      <point x="570" y="695" type="line"/>
      <point x="502" y="288" type="line"/>
      <point x="306" y="288" type="line"/>
    </contour>
    <contour>
      <point x="476" y="318" type="line"/>
      <point x="528" y="662" type="line"/>
      <point x="336" y="662" type="line"/>
      <point x="336" y="318" type="line"/>
    </contour>
    <contour>
      <point x="460" y="337" type="line"/>
      <point x="355" y="337" type="line"/>
      <point x="355" y="643" type="line"/>
      <point x="504" y="643" type="line"/>
    </contour>
  </outline>
</glyph>
<glyph name="numbersign" format="2">
  <advance width="978"/>
  <unicode hex="0023"/>
  <outline>
    <contour>
      <point x="595" y="635" type="line"/>
      <point x="819" y="635" type="line"/>
      <point x="797" y="530" type="line"/>
      <point x="965" y="530" type="line"/>
      <point x="923" y="331" type="line"/>
      <point x="755" y="331" type="line"/>
      <point x="747" y="295" type="line"/>
      <point x="915" y="295" type="line"/>
      <point x="871" y="89" type="line"/>
      <point x="703" y="89" type="line"/>
      <point x="685" y="0" type="line"/>
      <point x="461" y="0" type="line"/>
      <point x="479" y="89" type="line"/>
      <point x="408" y="89" type="line"/>
      <point x="390" y="0" type="line"/>
      <point x="162" y="0" type="line"/>
      <point x="180" y="89" type="line"/>
      <point x="11" y="89" type="line"/>
      <point x="55" y="295" type="line"/>
      <point x="224" y="295" type="line"/>
      <point x="232" y="331" type="line"/>
      <point x="63" y="331" type="line"/>
      <point x="105" y="530" type="line"/>
      <point x="274" y="530" type="line"/>
      <point x="296" y="635" type="line"/>
      <point x="524" y="635" type="line"/>
      <point x="502" y="530" type="line"/>
      <point x="573" y="530" type="line"/>
    </contour>
    <contour>
      <point x="661" y="30" type="line"/>
      <point x="782" y="602" type="line"/>
      <point x="618" y="602" type="line"/>
      <point x="497" y="30" type="line"/>
    </contour>
    <contour>
      <point x="366" y="30" type="line"/>
      <point x="430" y="331" type="line"/>
      <point x="429" y="331" type="line"/>
      <point x="471" y="530" type="line"/>
      <point x="472" y="530" type="line"/>
      <point x="487" y="602" type="line"/>
      <point x="319" y="602" type="line"/>
      <point x="198" y="30" type="line"/>
    </contour>
    <contour>
      <point x="646" y="49" type="line"/>
      <point x="520" y="49" type="line"/>
      <point x="633" y="583" type="line"/>
      <point x="759" y="583" type="line"/>
    </contour>
    <contour>
      <point x="351" y="49" type="line"/>
      <point x="221" y="49" type="line"/>
      <point x="334" y="583" type="line"/>
      <point x="464" y="583" type="line"/>
    </contour>
    <contour>
      <point x="216" y="265" type="line"/>
      <point x="82" y="265" type="line"/>
      <point x="51" y="119" type="line"/>
      <point x="185" y="119" type="line"/>
    </contour>
    <contour>
      <point x="879" y="265" type="line"/>
      <point x="745" y="265" type="line"/>
      <point x="714" y="119" type="line"/>
      <point x="848" y="119" type="line"/>
    </contour>
    <contour>
      <point x="266" y="500" type="line"/>
      <point x="132" y="500" type="line"/>
      <point x="102" y="361" type="line"/>
      <point x="236" y="361" type="line"/>
    </contour>
    <contour>
      <point x="929" y="500" type="line"/>
      <point x="795" y="500" type="line"/>
      <point x="765" y="361" type="line"/>
      <point x="899" y="361" type="line"/>
    </contour>
    <contour>
      <point x="193" y="246" type="line"/>
      <point x="170" y="138" type="line"/>
      <point x="74" y="138" type="line"/>
      <point x="97" y="246" type="line"/>
    </contour>
    <contour>
      <point x="856" y="246" type="line"/>
      <point x="833" y="138" type="line"/>
      <point x="737" y="138" type="line"/>
      <point x="760" y="246" type="line"/>
    </contour>
    <contour>
      <point x="516" y="265" type="line"/>
      <point x="446" y="265" type="line"/>
      <point x="415" y="119" type="line"/>
      <point x="485" y="119" type="line"/>
    </contour>
    <contour>
      <point x="906" y="481" type="line"/>
      <point x="884" y="380" type="line"/>
      <point x="788" y="380" type="line"/>
      <point x="810" y="481" type="line"/>
    </contour>
    <contour>
      <point x="243" y="481" type="line"/>
      <point x="221" y="380" type="line"/>
      <point x="125" y="380" type="line"/>
      <point x="147" y="481" type="line"/>
    </contour>
    <contour>
      <point x="566" y="500" type="line"/>
      <point x="498" y="500" type="line"/>
      <point x="468" y="361" type="line"/>
      <point x="536" y="361" type="line"/>
    </contour>
    <contour>
      <point x="493" y="246" type="line"/>
      <point x="470" y="138" type="line"/>
      <point x="438" y="138" type="line"/>
      <point x="461" y="246" type="line"/>
    </contour>
    <contour>
      <point x="543" y="481" type="line"/>
      <point x="521" y="380" type="line"/>
      <point x="491" y="380" type="line"/>
      <point x="513" y="481" type="line"/>
    </contour>
    <contour>
      <point x="452" y="295" type="line"/>
      <point x="523" y="295" type="line"/>
      <point x="531" y="331" type="line"/>
      <point x="460" y="331" type="line"/>
    </contour>
  </outline>
</glyph>
<glyph name="dollar" format="2">
  <advance width="1163"/>
  <unicode hex="0024"/>
  <outline>
    <contour>
      <point x="447" y="796" type="line"/>
      <point x="713" y="796" type="line"/>
      <point x="713" y="695" type="line"/>
      <point x="1139" y="695" type="line"/>
      <point x="1139" y="498" type="line"/>
      <point x="973" y="498" type="line"/>
      <point x="973" y="361" type="line"/>
      <point x="1007" y="358"/>
      <point x="1068" y="328"/>
      <point x="1113" y="280"/>
      <point x="1139" y="217"/>
      <point x="1139" y="181" type="qcurve" smooth="yes"/>
      <point x="1139" y="145"/>
      <point x="1113" y="82"/>
      <point x="1068" y="34"/>
      <point x="1007" y="3"/>
      <point x="973" y="0" type="qcurve"/>
      <point x="713" y="0" type="line"/>
      <point x="713" y="-94" type="line"/>
      <point x="447" y="-94" type="line"/>
      <point x="447" y="0" type="line"/>
      <point x="28" y="0" type="line"/>
      <point x="28" y="196" type="line"/>
      <point x="195" y="196" type="line"/>
      <point x="195" y="333" type="line"/>
      <point x="160" y="336"/>
      <point x="99" y="366"/>
      <point x="54" y="414"/>
      <point x="28" y="477"/>
      <point x="28" y="513" type="qcurve" smooth="yes"/>
      <point x="28" y="549"/>
      <point x="54" y="612"/>
      <point x="100" y="661"/>
      <point x="161" y="692"/>
      <point x="196" y="695" type="qcurve"/>
      <point x="447" y="695" type="line"/>
    </contour>
    <contour>
      <point x="58" y="30" type="line"/>
      <point x="477" y="30" type="line"/>
      <point x="477" y="-64" type="line"/>
      <point x="683" y="-64" type="line"/>
      <point x="683" y="30" type="line"/>
      <point x="858" y="30" type="line"/>
      <point x="823" y="53"/>
      <point x="800" y="90" type="qcurve"/>
      <point x="779" y="126"/>
      <point x="783" y="231" type="qcurve"/>
      <point x="789" y="249"/>
      <point x="798" y="266" type="qcurve" smooth="yes"/>
      <point x="813" y="293"/>
      <point x="856" y="334"/>
      <point x="911" y="359"/>
      <point x="943" y="361" type="qcurve"/>
      <point x="943" y="528" type="line"/>
      <point x="1109" y="528" type="line"/>
      <point x="1109" y="665" type="line"/>
      <point x="683" y="665" type="line"/>
      <point x="683" y="763" type="line"/>
      <point x="477" y="763" type="line"/>
      <point x="477" y="665" type="line"/>
      <point x="309" y="665" type="line"/>
      <point x="344" y="641"/>
      <point x="389" y="566"/>
      <point x="391" y="521" type="qcurve"/>
      <point x="383" y="454"/>
      <point x="354" y="401"/>
      <point x="311" y="361"/>
      <point x="255" y="336"/>
      <point x="224" y="333" type="qcurve"/>
      <point x="224" y="166" type="line"/>
      <point x="58" y="166" type="line"/>
    </contour>
    <contour>
      <point x="664" y="-45" type="line"/>
      <point x="496" y="-45" type="line"/>
      <point x="496" y="744" type="line"/>
      <point x="664" y="744" type="line"/>
    </contour>
    <contour>
      <point x="1090" y="646" type="line"/>
      <point x="1090" y="547" type="line"/>
      <point x="924" y="547" type="line"/>
      <point x="924" y="377" type="line"/>
      <point x="898" y="372"/>
      <point x="849" y="348"/>
      <point x="808" y="312"/>
      <point x="792" y="290" type="qcurve" smooth="yes"/>
      <point x="778" y="271"/>
      <point x="769" y="250" type="qcurve"/>
      <point x="763" y="221" type="line"/>
      <point x="758" y="151"/>
      <point x="787" y="72"/>
      <point x="807" y="49" type="qcurve"/>
      <point x="683" y="49" type="line"/>
      <point x="683" y="646" type="line"/>
    </contour>
    <contour>
      <point x="77" y="147" type="line"/>
      <point x="243" y="147" type="line"/>
      <point x="243" y="316" type="line"/>
      <point x="299" y="325"/>
      <point x="340" y="361" type="qcurve"/>
      <point x="418" y="423"/>
      <point x="410" y="531" type="qcurve" smooth="yes"/>
      <point x="408" y="563"/>
      <point x="381" y="623"/>
      <point x="361" y="646" type="qcurve"/>
      <point x="477" y="646" type="line"/>
      <point x="477" y="49" type="line"/>
      <point x="77" y="49" type="line"/>
    </contour>
    <contour>
      <point x="58" y="513" type="qcurve" smooth="yes"/>
      <point x="58" y="482"/>
      <point x="82" y="427"/>
      <point x="123" y="386"/>
      <point x="178" y="362"/>
      <point x="210" y="362" type="qcurve" smooth="yes"/>
      <point x="240" y="362"/>
      <point x="294" y="384"/>
      <point x="335" y="423"/>
      <point x="359" y="476"/>
      <point x="361" y="506" type="qcurve"/>
      <point x="360" y="541"/>
      <point x="335" y="599"/>
      <point x="294" y="641"/>
      <point x="240" y="665"/>
      <point x="210" y="665" type="qcurve" smooth="yes"/>
      <point x="178" y="665"/>
      <point x="123" y="641"/>
      <point x="82" y="600"/>
      <point x="58" y="544"/>
    </contour>
    <contour>
      <point x="1109" y="181" type="qcurve" smooth="yes"/>
      <point x="1109" y="212"/>
      <point x="1085" y="267"/>
      <point x="1044" y="308"/>
      <point x="989" y="332"/>
      <point x="958" y="332" type="qcurve" smooth="yes"/>
      <point x="927" y="332"/>
      <point x="873" y="309"/>
      <point x="832" y="268"/>
      <point x="807" y="210"/>
      <point x="806" y="176" type="qcurve"/>
      <point x="807" y="146"/>
      <point x="832" y="92"/>
      <point x="873" y="53"/>
      <point x="927" y="30"/>
      <point x="958" y="30" type="qcurve" smooth="yes"/>
      <point x="989" y="30"/>
      <point x="1044" y="54"/>
      <point x="1085" y="94"/>
      <point x="1109" y="149"/>
    </contour>
    <contour>
      <point x="77" y="513" type="qcurve" smooth="yes"/>
      <point x="77" y="540"/>
      <point x="98" y="589"/>
      <point x="134" y="625"/>
      <point x="182" y="646"/>
      <point x="210" y="646" type="qcurve" smooth="yes"/>
      <point x="236" y="646"/>
      <point x="282" y="625"/>
      <point x="318" y="588"/>
      <point x="340" y="536"/>
      <point x="342" y="506" type="qcurve"/>
      <point x="340" y="480"/>
      <point x="319" y="434"/>
      <point x="283" y="400"/>
      <point x="236" y="381"/>
      <point x="210" y="381" type="qcurve" smooth="yes"/>
      <point x="182" y="381"/>
      <point x="134" y="402"/>
      <point x="98" y="438"/>
      <point x="77" y="486"/>
    </contour>
    <contour>
      <point x="1090" y="181" type="qcurve" smooth="yes"/>
      <point x="1090" y="154"/>
      <point x="1069" y="106"/>
      <point x="1033" y="70"/>
      <point x="985" y="49"/>
      <point x="958" y="49" type="qcurve" smooth="yes"/>
      <point x="931" y="49"/>
      <point x="884" y="69"/>
      <point x="848" y="103"/>
      <point x="826" y="149"/>
      <point x="825" y="176" type="qcurve"/>
      <point x="826" y="206"/>
      <point x="848" y="256"/>
      <point x="884" y="293"/>
      <point x="931" y="313"/>
      <point x="958" y="313" type="qcurve" smooth="yes"/>
      <point x="985" y="313"/>
      <point x="1033" y="292"/>
      <point x="1069" y="256"/>
      <point x="1090" y="208"/>
    </contour>
  </outline>
</glyph>
<glyph name="percent" format="2">
  <advance width="1302"/>
  <unicode hex="0025"/>
  <outline>
    <contour>
      <point x="579" y="695" type="line"/>
      <point x="983" y="695" type="line"/>
      <point x="717" y="0" type="line"/>
      <point x="313" y="0" type="line"/>
    </contour>
    <contour>
      <point x="698" y="30" type="line"/>
      <point x="814" y="333" type="line"/>
      <point x="470" y="333" type="line"/>
      <point x="354" y="30" type="line"/>
    </contour>
    <contour>
      <point x="598" y="665" type="line"/>
      <point x="482" y="363" type="line"/>
      <point x="826" y="363" type="line"/>
      <point x="942" y="665" type="line"/>
    </contour>
    <contour>
      <point x="686" y="49" type="line"/>
      <point x="380" y="49" type="line"/>
      <point x="482" y="314" type="line"/>
      <point x="788" y="314" type="line"/>
    </contour>
    <contour>
      <point x="609" y="646" type="line"/>
      <point x="915" y="646" type="line"/>
      <point x="814" y="382" type="line"/>
      <point x="508" y="382" type="line"/>
    </contour>
    <contour>
      <point x="173" y="354" type="line"/>
      <point x="258" y="354" type="line"/>
      <point x="258" y="572" type="line"/>
      <point x="173" y="572" type="line"/>
    </contour>
    <contour>
      <point x="206" y="539" type="line"/>
      <point x="225" y="539" type="line"/>
      <point x="225" y="387" type="line"/>
      <point x="206" y="387" type="line"/>
    </contour>
    <contour>
      <point x="373" y="659" type="qcurve" smooth="yes"/>
      <point x="337" y="695"/>
      <point x="285" y="695" type="qcurve" smooth="yes"/>
      <point x="152" y="695" type="line" smooth="yes"/>
      <point x="126" y="695"/>
      <point x="82" y="676"/>
      <point x="48" y="642"/>
      <point x="29" y="597"/>
      <point x="29" y="572" type="qcurve" smooth="yes"/>
      <point x="29" y="346" type="line" smooth="yes"/>
      <point x="29" y="321"/>
      <point x="48" y="276"/>
      <point x="82" y="243"/>
      <point x="126" y="224"/>
      <point x="152" y="224" type="qcurve" smooth="yes"/>
      <point x="285" y="224" type="line" smooth="yes"/>
      <point x="310" y="224"/>
      <point x="356" y="243"/>
      <point x="389" y="276"/>
      <point x="409" y="321"/>
      <point x="409" y="346" type="qcurve" smooth="yes"/>
      <point x="409" y="572" type="line" smooth="yes"/>
      <point x="409" y="623"/>
    </contour>
    <contour>
      <point x="376" y="346" type="line" smooth="yes"/>
      <point x="376" y="328"/>
      <point x="362" y="295"/>
      <point x="337" y="271"/>
      <point x="304" y="257"/>
      <point x="285" y="257" type="qcurve" smooth="yes"/>
      <point x="152" y="257" type="line" smooth="yes"/>
      <point x="114" y="257"/>
      <point x="62" y="309"/>
      <point x="62" y="346" type="qcurve" smooth="yes"/>
      <point x="62" y="572" type="line" smooth="yes"/>
      <point x="62" y="610"/>
      <point x="114" y="663"/>
      <point x="152" y="663" type="qcurve" smooth="yes"/>
      <point x="285" y="663" type="line" smooth="yes"/>
      <point x="304" y="663"/>
      <point x="337" y="649"/>
      <point x="362" y="624"/>
      <point x="376" y="591"/>
      <point x="376" y="572" type="qcurve" smooth="yes"/>
    </contour>
    <contour>
      <point x="151" y="278" type="line" smooth="yes"/>
      <point x="121" y="278"/>
      <point x="101" y="298" type="qcurve" smooth="yes"/>
      <point x="90" y="308"/>
      <point x="80" y="333"/>
      <point x="80" y="347" type="qcurve" smooth="yes"/>
      <point x="80" y="573" type="line" smooth="yes"/>
      <point x="80" y="602"/>
      <point x="122" y="643"/>
      <point x="151" y="643" type="qcurve" smooth="yes"/>
      <point x="284" y="643" type="line" smooth="yes"/>
      <point x="313" y="643"/>
      <point x="355" y="602"/>
      <point x="355" y="573" type="qcurve" smooth="yes"/>
      <point x="355" y="347" type="line" smooth="yes"/>
      <point x="355" y="318"/>
      <point x="313" y="278"/>
      <point x="284" y="278" type="qcurve" smooth="yes"/>
    </contour>
    <contour>
      <point x="152" y="334" type="line"/>
      <point x="277" y="334" type="line"/>
      <point x="277" y="592" type="line"/>
      <point x="152" y="592" type="line"/>
    </contour>
    <contour>
      <point x="1032" y="130" type="line"/>
      <point x="1117" y="130" type="line"/>
      <point x="1117" y="348" type="line"/>
      <point x="1032" y="348" type="line"/>
    </contour>
    <contour>
      <point x="1065" y="315" type="line"/>
      <point x="1084" y="315" type="line"/>
      <point x="1084" y="163" type="line"/>
      <point x="1065" y="163" type="line"/>
    </contour>
    <contour>
      <point x="1232" y="435" type="qcurve" smooth="yes"/>
      <point x="1196" y="471"/>
      <point x="1144" y="471" type="qcurve" smooth="yes"/>
      <point x="1011" y="471" type="line" smooth="yes"/>
      <point x="985" y="471"/>
      <point x="941" y="452"/>
      <point x="907" y="418"/>
      <point x="888" y="373"/>
      <point x="888" y="348" type="qcurve" smooth="yes"/>
      <point x="888" y="122" type="line" smooth="yes"/>
      <point x="888" y="97"/>
      <point x="907" y="52"/>
      <point x="941" y="19"/>
      <point x="985" y="0"/>
      <point x="1011" y="0" type="qcurve" smooth="yes"/>
      <point x="1144" y="0" type="line" smooth="yes"/>
      <point x="1169" y="0"/>
      <point x="1215" y="19"/>
      <point x="1248" y="52"/>
      <point x="1268" y="97"/>
      <point x="1268" y="122" type="qcurve" smooth="yes"/>
      <point x="1268" y="348" type="line" smooth="yes"/>
      <point x="1268" y="399"/>
    </contour>
    <contour>
      <point x="1235" y="122" type="line" smooth="yes"/>
      <point x="1235" y="104"/>
      <point x="1221" y="71"/>
      <point x="1196" y="47"/>
      <point x="1163" y="33"/>
      <point x="1144" y="33" type="qcurve" smooth="yes"/>
      <point x="1011" y="33" type="line" smooth="yes"/>
      <point x="973" y="33"/>
      <point x="921" y="85"/>
      <point x="921" y="122" type="qcurve" smooth="yes"/>
      <point x="921" y="348" type="line" smooth="yes"/>
      <point x="921" y="386"/>
      <point x="973" y="439"/>
      <point x="1011" y="439" type="qcurve" smooth="yes"/>
      <point x="1144" y="439" type="line" smooth="yes"/>
      <point x="1163" y="439"/>
      <point x="1196" y="425"/>
      <point x="1221" y="400"/>
      <point x="1235" y="367"/>
      <point x="1235" y="348" type="qcurve" smooth="yes"/>
    </contour>
    <contour>
      <point x="1010" y="54" type="line" smooth="yes"/>
      <point x="980" y="54"/>
      <point x="960" y="74" type="qcurve" smooth="yes"/>
      <point x="949" y="84"/>
      <point x="939" y="109"/>
      <point x="939" y="123" type="qcurve" smooth="yes"/>
      <point x="939" y="349" type="line" smooth="yes"/>
      <point x="939" y="378"/>
      <point x="981" y="419"/>
      <point x="1010" y="419" type="qcurve" smooth="yes"/>
      <point x="1143" y="419" type="line" smooth="yes"/>
      <point x="1172" y="419"/>
      <point x="1214" y="378"/>
      <point x="1214" y="349" type="qcurve" smooth="yes"/>
      <point x="1214" y="123" type="line" smooth="yes"/>
      <point x="1214" y="94"/>
      <point x="1172" y="54"/>
      <point x="1143" y="54" type="qcurve" smooth="yes"/>
    </contour>
    <contour>
      <point x="1011" y="110" type="line"/>
      <point x="1136" y="110" type="line"/>
      <point x="1136" y="368" type="line"/>
      <point x="1011" y="368" type="line"/>
    </contour>
  </outline>
</glyph>
<glyph name="ampersand" format="2">
  <advance width="1129"/>
  <unicode hex="0026"/>
  <outline>
    <contour>
      <point x="1031" y="181" type="line" smooth="yes"/>
      <point x="1031" y="145"/>
      <point x="1005" y="82"/>
      <point x="960" y="34"/>
      <point x="899" y="4"/>
      <point x="864" y="1" type="qcurve"/>
      <point x="864" y="0" type="line"/>
      <point x="185" y="0" type="line"/>
      <point x="150" y="3"/>
      <point x="120" y="18" type="qcurve" smooth="yes"/>
      <point x="90" y="34"/>
      <point x="45" y="82"/>
      <point x="19" y="145"/>
      <point x="19" y="181" type="qcurve" smooth="yes"/>
      <point x="19" y="237"/>
      <point x="80" y="326"/>
      <point x="128" y="347" type="qcurve"/>
      <point x="80" y="368"/>
      <point x="19" y="457"/>
      <point x="19" y="513" type="qcurve" smooth="yes"/>
      <point x="19" y="549"/>
      <point x="45" y="612"/>
      <point x="90" y="662"/>
      <point x="150" y="693"/>
      <point x="185" y="696" type="qcurve"/>
      <point x="1031" y="697" type="line"/>
      <point x="1031" y="352" type="line"/>
      <point x="1106" y="352" type="line"/>
      <point x="1106" y="220" type="line"/>
      <point x="1031" y="220" type="line"/>
    </contour>
    <contour>
      <point x="554" y="350" type="line"/>
      <point x="672" y="350" type="line"/>
      <point x="672" y="450" type="line"/>
      <point x="991" y="450" type="line"/>
      <point x="991" y="669" type="line"/>
      <point x="293" y="668" type="line"/>
      <point x="331" y="640"/>
      <point x="375" y="561"/>
      <point x="375" y="513" type="qcurve" smooth="yes"/>
      <point x="375" y="465"/>
      <point x="331" y="387"/>
      <point x="273" y="354" type="qcurve"/>
      <point x="325" y="318"/>
      <point x="375" y="229"/>
      <point x="375" y="181" type="qcurve" smooth="yes"/>
      <point x="375" y="133"/>
      <point x="331" y="54"/>
      <point x="293" y="30" type="qcurve"/>
      <point x="754" y="30" type="line"/>
      <point x="717" y="54"/>
      <point x="672" y="133"/>
      <point x="672" y="181" type="qcurve" smooth="yes"/>
      <point x="672" y="215" type="line"/>
      <point x="554" y="215" type="line"/>
    </contour>
    <contour>
      <point x="967" y="473" type="line"/>
      <point x="653" y="473" type="line"/>
      <point x="653" y="369" type="line"/>
      <point x="537" y="369" type="line"/>
      <point x="537" y="196" type="line"/>
      <point x="653" y="196" type="line"/>
      <point x="653" y="181" type="line" smooth="yes"/>
      <point x="653" y="143"/>
      <point x="679" y="75"/>
      <point x="703" y="49" type="qcurve"/>
      <point x="344" y="49" type="line"/>
      <point x="367" y="75"/>
      <point x="394" y="144"/>
      <point x="394" y="181" type="qcurve" smooth="yes"/>
      <point x="394" y="218"/>
      <point x="366" y="300"/>
      <point x="310" y="353" type="qcurve"/>
      <point x="344" y="381" type="line"/>
      <point x="368" y="408"/>
      <point x="381" y="441" type="qcurve" smooth="yes"/>
      <point x="394" y="475"/>
      <point x="394" y="513" type="qcurve" smooth="yes"/>
      <point x="394" y="590"/>
      <point x="343" y="648" type="qcurve"/>
      <point x="967" y="649" type="line"/>
    </contour>
    <contour>
      <point x="200" y="362" type="qcurve" smooth="yes"/>
      <point x="231" y="362"/>
      <point x="286" y="386"/>
      <point x="327" y="427"/>
      <point x="351" y="482"/>
      <point x="351" y="513" type="qcurve" smooth="yes"/>
      <point x="351" y="544"/>
      <point x="327" y="600"/>
      <point x="286" y="641"/>
      <point x="231" y="665"/>
      <point x="200" y="665" type="qcurve" smooth="yes"/>
      <point x="169" y="665"/>
      <point x="113" y="641"/>
      <point x="73" y="600"/>
      <point x="49" y="544"/>
      <point x="49" y="513" type="qcurve" smooth="yes"/>
      <point x="49" y="482"/>
      <point x="73" y="427"/>
      <point x="113" y="386"/>
      <point x="169" y="362"/>
    </contour>
    <contour>
      <point x="49" y="181" type="qcurve" smooth="yes"/>
      <point x="49" y="149"/>
      <point x="73" y="94"/>
      <point x="113" y="54"/>
      <point x="169" y="30"/>
      <point x="200" y="30" type="qcurve" smooth="yes"/>
      <point x="231" y="30"/>
      <point x="286" y="54"/>
      <point x="327" y="94"/>
      <point x="351" y="149"/>
      <point x="351" y="181" type="qcurve" smooth="yes"/>
      <point x="351" y="212"/>
      <point x="327" y="267"/>
      <point x="286" y="308"/>
      <point x="231" y="332"/>
      <point x="200" y="332" type="qcurve" smooth="yes"/>
      <point x="169" y="332"/>
      <point x="113" y="308"/>
      <point x="73" y="267"/>
      <point x="49" y="212"/>
    </contour>
    <contour>
      <point x="200" y="381" type="qcurve" smooth="yes"/>
      <point x="173" y="381"/>
      <point x="125" y="402"/>
      <point x="89" y="438"/>
      <point x="68" y="486"/>
      <point x="68" y="513" type="qcurve" smooth="yes"/>
      <point x="68" y="540"/>
      <point x="89" y="589"/>
      <point x="125" y="625"/>
      <point x="173" y="646"/>
      <point x="200" y="646" type="qcurve" smooth="yes"/>
      <point x="227" y="646"/>
      <point x="275" y="625"/>
      <point x="311" y="589"/>
      <point x="332" y="540"/>
      <point x="332" y="513" type="qcurve" smooth="yes"/>
      <point x="332" y="486"/>
      <point x="311" y="438"/>
      <point x="275" y="402"/>
      <point x="227" y="381"/>
    </contour>
    <contour>
      <point x="68" y="181" type="qcurve" smooth="yes"/>
      <point x="68" y="208"/>
      <point x="89" y="256"/>
      <point x="125" y="292"/>
      <point x="173" y="313"/>
      <point x="200" y="313" type="qcurve" smooth="yes"/>
      <point x="227" y="313"/>
      <point x="275" y="292"/>
      <point x="311" y="256"/>
      <point x="332" y="208"/>
      <point x="332" y="181" type="qcurve" smooth="yes"/>
      <point x="332" y="154"/>
      <point x="311" y="106"/>
      <point x="275" y="70"/>
      <point x="227" y="49"/>
      <point x="200" y="49" type="qcurve" smooth="yes"/>
      <point x="173" y="49"/>
      <point x="125" y="70"/>
      <point x="89" y="106"/>
      <point x="68" y="154"/>
    </contour>
    <contour>
      <point x="710" y="121" type="qcurve" smooth="yes"/>
      <point x="722" y="94"/>
      <point x="763" y="53"/>
      <point x="818" y="29"/>
      <point x="880" y="29"/>
      <point x="936" y="53"/>
      <point x="977" y="94"/>
      <point x="1001" y="149"/>
      <point x="1001" y="180" type="qcurve" smooth="yes"/>
      <point x="1001" y="212" type="line"/>
      <point x="698" y="212" type="line"/>
      <point x="698" y="180" type="line" smooth="yes"/>
      <point x="698" y="149"/>
    </contour>
    <contour>
      <point x="1083" y="247" type="line"/>
      <point x="1083" y="326" type="line"/>
      <point x="576" y="326" type="line"/>
      <point x="576" y="247" type="line"/>
    </contour>
    <contour>
      <point x="982" y="190" type="line"/>
      <point x="982" y="180" type="line" smooth="yes"/>
      <point x="982" y="153"/>
      <point x="961" y="105"/>
      <point x="925" y="69"/>
      <point x="876" y="48"/>
      <point x="822" y="48"/>
      <point x="774" y="69"/>
      <point x="738" y="105"/>
      <point x="717" y="153"/>
      <point x="717" y="180" type="qcurve" smooth="yes"/>
      <point x="717" y="190" type="line"/>
    </contour>
    <contour>
      <point x="1000" y="349" type="line"/>
      <point x="1000" y="423" type="line"/>
      <point x="696" y="423" type="line"/>
      <point x="696" y="349" type="line"/>
    </contour>
    <contour>
      <point x="1064" y="266" type="line"/>
      <point x="595" y="266" type="line"/>
      <point x="595" y="307" type="line"/>
      <point x="1064" y="307" type="line"/>
    </contour>
    <contour>
      <point x="981" y="368" type="line"/>
      <point x="715" y="368" type="line"/>
      <point x="715" y="404" type="line"/>
      <point x="981" y="404" type="line"/>
    </contour>
  </outline>
</glyph>
<glyph name="quotesingle" format="2">
  <advance width="297"/>
  <unicode hex="0027"/>
  <outline>
    <contour>
      <point x="26" y="695" type="line"/>
      <point x="290" y="695" type="line"/>
      <point x="222" y="288" type="line"/>
      <point x="26" y="288" type="line"/>
    </contour>
    <contour>
      <point x="196" y="318" type="line"/>
      <point x="248" y="662" type="line"/>
      <point x="56" y="662" type="line"/>
      <point x="56" y="318" type="line"/>
    </contour>
    <contour>
      <point x="180" y="337" type="line"/>
      <point x="75" y="337" type="line"/>
      <point x="75" y="643" type="line"/>
      <point x="224" y="643" type="line"/>
    </contour>
  </outline>
</glyph>
<glyph name="parenleft" format="2">
  <advance width="517"/>
  <unicode hex="0028"/>
  <outline>
    <contour>
      <point x="421" y="-261" type="line"/>
      <point x="458" y="-235"/>
      <point x="496" y="-162"/>
      <point x="497" y="-128" type="qcurve"/>
      <point x="497" y="-99" type="line"/>
      <point x="594" y="-99" type="line"/>
      <point x="594" y="-261" type="line"/>
    </contour>
    <contour>
      <point x="594" y="945" type="line"/>
      <point x="594" y="783" type="line"/>
      <point x="497" y="783" type="line"/>
      <point x="497" y="812" type="line"/>
      <point x="496" y="846"/>
      <point x="458" y="919"/>
      <point x="421" y="945" type="qcurve"/>
    </contour>
    <contour>
      <point x="370" y="964" type="line"/>
      <point x="407" y="939"/>
      <point x="463" y="881"/>
      <point x="478" y="812" type="qcurve"/>
      <point x="478" y="764" type="line"/>
      <point x="613" y="764" type="line"/>
      <point x="613" y="964" type="line"/>
    </contour>
    <contour>
      <point x="613" y="-280" type="line"/>
      <point x="613" y="-80" type="line"/>
      <point x="478" y="-80" type="line"/>
      <point x="478" y="-128" type="line"/>
      <point x="463" y="-197"/>
      <point x="407" y="-255"/>
      <point x="370" y="-280" type="qcurve"/>
    </contour>
    <contour>
      <point x="435" y="-89" type="qcurve" smooth="yes"/>
      <point x="435" y="-125"/>
      <point x="408" y="-188"/>
      <point x="360" y="-235"/>
      <point x="297" y="-262"/>
      <point x="261" y="-262" type="qcurve" smooth="yes"/>
      <point x="225" y="-262"/>
      <point x="162" y="-235"/>
      <point x="114" y="-188"/>
      <point x="87" y="-125"/>
      <point x="87" y="-89" type="qcurve" smooth="yes"/>
      <point x="87" y="-53"/>
      <point x="114" y="10"/>
      <point x="162" y="58"/>
      <point x="225" y="85"/>
      <point x="261" y="85" type="qcurve" smooth="yes"/>
      <point x="297" y="85"/>
      <point x="360" y="58"/>
      <point x="408" y="10"/>
      <point x="435" y="-53"/>
    </contour>
    <contour>
      <point x="435" y="773" type="qcurve" smooth="yes"/>
      <point x="435" y="737"/>
      <point x="408" y="674"/>
      <point x="360" y="626"/>
      <point x="297" y="599"/>
      <point x="261" y="599" type="qcurve" smooth="yes"/>
      <point x="225" y="599"/>
      <point x="162" y="626"/>
      <point x="114" y="674"/>
      <point x="87" y="737"/>
      <point x="87" y="773" type="qcurve" smooth="yes"/>
      <point x="87" y="809"/>
      <point x="114" y="872"/>
      <point x="162" y="919"/>
      <point x="225" y="946"/>
      <point x="261" y="946" type="qcurve" smooth="yes"/>
      <point x="297" y="946"/>
      <point x="360" y="919"/>
      <point x="408" y="872"/>
      <point x="435" y="809"/>
    </contour>
    <contour>
      <point x="454" y="-89" type="qcurve" smooth="yes"/>
      <point x="454" y="-49"/>
      <point x="423" y="21"/>
      <point x="371" y="74"/>
      <point x="301" y="104"/>
      <point x="261" y="104" type="qcurve" smooth="yes"/>
      <point x="221" y="104"/>
      <point x="151" y="74"/>
      <point x="98" y="21"/>
      <point x="68" y="-49"/>
      <point x="68" y="-89" type="qcurve" smooth="yes"/>
      <point x="68" y="-129"/>
      <point x="98" y="-199"/>
      <point x="151" y="-251"/>
      <point x="221" y="-281"/>
      <point x="261" y="-281" type="qcurve" smooth="yes"/>
      <point x="301" y="-281"/>
      <point x="371" y="-251"/>
      <point x="423" y="-199"/>
      <point x="454" y="-129"/>
    </contour>
    <contour>
      <point x="454" y="773" type="qcurve" smooth="yes"/>
      <point x="454" y="813"/>
      <point x="423" y="883"/>
      <point x="371" y="935"/>
      <point x="301" y="965"/>
      <point x="261" y="965" type="qcurve" smooth="yes"/>
      <point x="221" y="965"/>
      <point x="151" y="935"/>
      <point x="98" y="883"/>
      <point x="68" y="813"/>
      <point x="68" y="773" type="qcurve" smooth="yes"/>
      <point x="68" y="733"/>
      <point x="98" y="663"/>
      <point x="151" y="610"/>
      <point x="221" y="580"/>
      <point x="261" y="580" type="qcurve" smooth="yes"/>
      <point x="301" y="580"/>
      <point x="371" y="610"/>
      <point x="423" y="663"/>
      <point x="454" y="733"/>
    </contour>
    <contour>
      <point x="435" y="79" type="line"/>
      <point x="402" y="114"/>
      <point x="312" y="163"/>
      <point x="261" y="163" type="qcurve" smooth="yes"/>
      <point x="208" y="163"/>
      <point x="120" y="114"/>
      <point x="87" y="79" type="qcurve"/>
      <point x="87" y="605" type="line"/>
      <point x="120" y="570"/>
      <point x="208" y="531"/>
      <point x="261" y="531" type="qcurve" smooth="yes"/>
      <point x="312" y="531"/>
      <point x="402" y="570"/>
      <point x="435" y="605" type="qcurve"/>
    </contour>
    <contour>
      <point x="454" y="661" type="line"/>
      <point x="425" y="611"/>
      <point x="323" y="550"/>
      <point x="261" y="550" type="qcurve" smooth="yes"/>
      <point x="199" y="550"/>
      <point x="97" y="611"/>
      <point x="68" y="661" type="qcurve"/>
      <point x="68" y="23" type="line"/>
      <point x="97" y="73"/>
      <point x="199" y="134"/>
      <point x="261" y="134" type="qcurve" smooth="yes"/>
      <point x="323" y="134"/>
      <point x="425" y="73"/>
      <point x="454" y="23" type="qcurve"/>
    </contour>
    <contour>
      <point x="276" y="-311" type="line"/>
      <point x="145" y="-319"/>
      <point x="76" y="-222" type="qcurve"/>
      <point x="43" y="-161"/>
      <point x="39" y="-104" type="qcurve"/>
      <point x="38" y="-104" type="line"/>
      <point x="38" y="788" type="line"/>
      <point x="39" y="788" type="line"/>
      <point x="43" y="845"/>
      <point x="76" y="906" type="qcurve"/>
      <point x="145" y="1003"/>
      <point x="276" y="995" type="qcurve"/>
      <point x="645" y="993" type="line"/>
      <point x="645" y="734" type="line"/>
      <point x="484" y="733" type="line"/>
      <point x="484" y="-49" type="line"/>
      <point x="645" y="-49" type="line"/>
      <point x="645" y="-309" type="line"/>
    </contour>
  </outline>
</glyph>
<glyph name="parenright" format="2">
  <advance width="517"/>
  <unicode hex="0029"/>
  <outline>
    <contour>
      <point x="-125" y="-309" type="line"/>
      <point x="-125" y="-49" type="line"/>
      <point x="36" y="-49" type="line"/>
      <point x="36" y="733" type="line"/>
      <point x="-125" y="734" type="line"/>
      <point x="-125" y="993" type="line"/>
      <point x="244" y="995" type="line"/>
      <point x="375" y="1003"/>
      <point x="444" y="906" type="qcurve"/>
      <point x="477" y="845"/>
      <point x="481" y="788" type="qcurve"/>
      <point x="482" y="788" type="line"/>
      <point x="482" y="-104" type="line"/>
      <point x="481" y="-104" type="line"/>
      <point x="477" y="-161"/>
      <point x="444" y="-222" type="qcurve"/>
      <point x="375" y="-319"/>
      <point x="244" y="-311" type="qcurve"/>
    </contour>
    <contour>
      <point x="66" y="23" type="line"/>
      <point x="95" y="73"/>
      <point x="197" y="134"/>
      <point x="259" y="134" type="qcurve" smooth="yes"/>
      <point x="321" y="134"/>
      <point x="423" y="73"/>
      <point x="452" y="23" type="qcurve"/>
      <point x="452" y="661" type="line"/>
      <point x="423" y="611"/>
      <point x="321" y="550"/>
      <point x="259" y="550" type="qcurve" smooth="yes"/>
      <point x="197" y="550"/>
      <point x="95" y="611"/>
      <point x="66" y="661" type="qcurve"/>
    </contour>
    <contour>
      <point x="85" y="605" type="line"/>
      <point x="118" y="570"/>
      <point x="208" y="531"/>
      <point x="259" y="531" type="qcurve" smooth="yes"/>
      <point x="312" y="531"/>
      <point x="400" y="570"/>
      <point x="433" y="605" type="qcurve"/>
      <point x="433" y="79" type="line"/>
      <point x="400" y="114"/>
      <point x="312" y="163"/>
      <point x="259" y="163" type="qcurve" smooth="yes"/>
      <point x="208" y="163"/>
      <point x="118" y="114"/>
      <point x="85" y="79" type="qcurve"/>
    </contour>
    <contour>
      <point x="66" y="773" type="qcurve" smooth="yes"/>
      <point x="66" y="733"/>
      <point x="97" y="663"/>
      <point x="149" y="610"/>
      <point x="219" y="580"/>
      <point x="259" y="580" type="qcurve" smooth="yes"/>
      <point x="299" y="580"/>
      <point x="369" y="610"/>
      <point x="422" y="663"/>
      <point x="452" y="733"/>
      <point x="452" y="773" type="qcurve" smooth="yes"/>
      <point x="452" y="813"/>
      <point x="422" y="883"/>
      <point x="369" y="935"/>
      <point x="299" y="965"/>
      <point x="259" y="965" type="qcurve" smooth="yes"/>
      <point x="219" y="965"/>
      <point x="149" y="935"/>
      <point x="97" y="883"/>
      <point x="66" y="813"/>
    </contour>
    <contour>
      <point x="66" y="-89" type="qcurve" smooth="yes"/>
      <point x="66" y="-129"/>
      <point x="97" y="-199"/>
      <point x="149" y="-251"/>
      <point x="219" y="-281"/>
      <point x="259" y="-281" type="qcurve" smooth="yes"/>
      <point x="299" y="-281"/>
      <point x="369" y="-251"/>
      <point x="422" y="-199"/>
      <point x="452" y="-129"/>
      <point x="452" y="-89" type="qcurve" smooth="yes"/>
      <point x="452" y="-49"/>
      <point x="422" y="21"/>
      <point x="369" y="74"/>
      <point x="299" y="104"/>
      <point x="259" y="104" type="qcurve" smooth="yes"/>
      <point x="219" y="104"/>
      <point x="149" y="74"/>
      <point x="97" y="21"/>
      <point x="66" y="-49"/>
    </contour>
    <contour>
      <point x="85" y="773" type="qcurve" smooth="yes"/>
      <point x="85" y="809"/>
      <point x="112" y="872"/>
      <point x="160" y="919"/>
      <point x="223" y="946"/>
      <point x="259" y="946" type="qcurve" smooth="yes"/>
      <point x="295" y="946"/>
      <point x="358" y="919"/>
      <point x="406" y="872"/>
      <point x="433" y="809"/>
      <point x="433" y="773" type="qcurve" smooth="yes"/>
      <point x="433" y="737"/>
      <point x="406" y="674"/>
      <point x="358" y="626"/>
      <point x="295" y="599"/>
      <point x="259" y="599" type="qcurve" smooth="yes"/>
      <point x="223" y="599"/>
      <point x="160" y="626"/>
      <point x="112" y="674"/>
      <point x="85" y="737"/>
    </contour>
    <contour>
      <point x="85" y="-89" type="qcurve" smooth="yes"/>
      <point x="85" y="-53"/>
      <point x="112" y="10"/>
      <point x="160" y="58"/>
      <point x="223" y="85"/>
      <point x="259" y="85" type="qcurve" smooth="yes"/>
      <point x="295" y="85"/>
      <point x="358" y="58"/>
      <point x="406" y="10"/>
      <point x="433" y="-53"/>
      <point x="433" y="-89" type="qcurve" smooth="yes"/>
      <point x="433" y="-125"/>
      <point x="406" y="-188"/>
      <point x="358" y="-235"/>
      <point x="295" y="-262"/>
      <point x="259" y="-262" type="qcurve" smooth="yes"/>
      <point x="223" y="-262"/>
      <point x="160" y="-235"/>
      <point x="112" y="-188"/>
      <point x="85" y="-125"/>
    </contour>
    <contour>
      <point x="150" y="-280" type="line"/>
      <point x="113" y="-255"/>
      <point x="57" y="-197"/>
      <point x="42" y="-128" type="qcurve"/>
      <point x="42" y="-80" type="line"/>
      <point x="-93" y="-80" type="line"/>
      <point x="-93" y="-280" type="line"/>
    </contour>
    <contour>
      <point x="-93" y="964" type="line"/>
      <point x="-93" y="764" type="line"/>
      <point x="42" y="764" type="line"/>
      <point x="42" y="812" type="line"/>
      <point x="57" y="881"/>
      <point x="113" y="939"/>
      <point x="150" y="964" type="qcurve"/>
    </contour>
    <contour>
      <point x="99" y="945" type="line"/>
      <point x="62" y="919"/>
      <point x="24" y="846"/>
      <point x="23" y="812" type="qcurve"/>
      <point x="23" y="783" type="line"/>
      <point x="-74" y="783" type="line"/>
      <point x="-74" y="945" type="line"/>
    </contour>
    <contour>
      <point x="-74" y="-261" type="line"/>
      <point x="-74" y="-99" type="line"/>
      <point x="23" y="-99" type="line"/>
      <point x="23" y="-128" type="line"/>
      <point x="24" y="-162"/>
      <point x="62" y="-235"/>
      <point x="99" y="-261" type="qcurve"/>
    </contour>
  </outline>
</glyph>
<glyph name="asterisk" format="2">
  <advance width="601"/>
  <unicode hex="002A"/>
  <outline>
    <contour>
      <point x="480" y="147" type="line"/>
      <point x="381" y="218" type="line"/>
      <point x="381" y="105" type="line"/>
      <point x="218" y="105" type="line"/>
      <point x="218" y="212" type="line"/>
      <point x="144" y="135" type="line"/>
      <point x="35" y="256" type="line"/>
      <point x="165" y="374" type="line"/>
      <point x="25" y="487" type="line"/>
      <point x="127" y="614" type="line"/>
      <point x="215" y="543" type="line"/>
      <point x="215" y="655" type="line"/>
      <point x="378" y="655" type="line"/>
      <point x="378" y="549" type="line"/>
      <point x="463" y="626" type="line"/>
      <point x="572" y="505" type="line"/>
      <point x="442" y="387" type="line"/>
      <point x="582" y="274" type="line"/>
    </contour>
    <contour>
      <point x="267" y="606" type="line"/>
      <point x="329" y="606" type="line"/>
      <point x="329" y="154" type="line"/>
      <point x="267" y="154" type="line"/>
    </contour>
    <contour>
      <point x="135" y="545" type="line"/>
      <point x="247" y="455" type="line"/>
      <point x="247" y="302" type="line"/>
      <point x="146" y="206" type="line"/>
      <point x="104" y="252" type="line"/>
      <point x="235" y="373" type="line"/>
      <point x="96" y="496" type="line"/>
    </contour>
    <contour>
      <point x="348" y="285" type="line"/>
      <point x="475" y="189" type="line"/>
      <point x="538" y="267" type="line"/>
      <point x="402" y="381" type="line"/>
      <point x="530" y="507" type="line"/>
      <point x="463" y="581" type="line"/>
      <point x="348" y="480" type="line"/>
      <point x="348" y="625" type="line"/>
      <point x="248" y="625" type="line"/>
      <point x="248" y="480" type="line"/>
      <point x="132" y="572" type="line"/>
      <point x="69" y="494" type="line"/>
      <point x="208" y="372" type="line"/>
      <point x="77" y="254" type="line"/>
      <point x="144" y="180" type="line"/>
      <point x="248" y="281" type="line"/>
      <point x="248" y="135" type="line"/>
      <point x="348" y="135" type="line"/>
    </contour>
    <contour>
      <point x="348" y="316" type="line"/>
      <point x="348" y="454" type="line"/>
      <point x="461" y="555" type="line"/>
      <point x="503" y="509" type="line"/>
      <point x="372" y="379" type="line"/>
      <point x="511" y="264" type="line"/>
      <point x="472" y="216" type="line"/>
    </contour>
  </outline>
</glyph>
<glyph name="plus" format="2">
  <advance width="537"/>
  <unicode hex="002B"/>
  <outline>
    <contour>
      <point x="24" y="448" type="line"/>
      <point x="174" y="448" type="line"/>
      <point x="174" y="596" type="line"/>
      <point x="360" y="596" type="line"/>
      <point x="360" y="448" type="line"/>
      <point x="508" y="448" type="line"/>
      <point x="508" y="268" type="line"/>
      <point x="360" y="268" type="line"/>
      <point x="360" y="128" type="line"/>
      <point x="174" y="128" type="line"/>
      <point x="174" y="268" type="line"/>
      <point x="24" y="268" type="line"/>
    </contour>
    <contour>
      <point x="327" y="566" type="line"/>
      <point x="204" y="566" type="line"/>
      <point x="204" y="415" type="line"/>
      <point x="54" y="415" type="line"/>
      <point x="54" y="298" type="line"/>
      <point x="204" y="298" type="line"/>
      <point x="204" y="158" type="line"/>
      <point x="327" y="158" type="line"/>
      <point x="327" y="298" type="line"/>
      <point x="478" y="298" type="line"/>
      <point x="478" y="415" type="line"/>
      <point x="327" y="415" type="line"/>
    </contour>
    <contour>
      <point x="223" y="177" type="line"/>
      <point x="223" y="317" type="line"/>
      <point x="73" y="317" type="line"/>
      <point x="73" y="396" type="line"/>
      <point x="223" y="396" type="line"/>
      <point x="223" y="547" type="line"/>
      <point x="308" y="547" type="line"/>
      <point x="308" y="396" type="line"/>
      <point x="459" y="396" type="line"/>
      <point x="459" y="317" type="line"/>
      <point x="308" y="317" type="line"/>
      <point x="308" y="177" type="line"/>
    </contour>
  </outline>
</glyph>
<glyph name="comma" format="2">
  <advance width="283"/>
  <unicode hex="002C"/>
  <outline>
    <contour>
      <point x="218" y="35" type="line"/>
      <point x="69" y="-65" type="line"/>
      <point x="69" y="144" type="line"/>
      <point x="218" y="144" type="line"/>
    </contour>
    <contour>
      <point x="237" y="26" type="line"/>
      <point x="237" y="163" type="line"/>
      <point x="50" y="163" type="line"/>
      <point x="50" y="-102" type="line"/>
    </contour>
    <contour>
      <point x="267" y="0" type="line"/>
      <point x="20" y="-163" type="line"/>
      <point x="20" y="193" type="line"/>
      <point x="267" y="193" type="line"/>
    </contour>
  </outline>
</glyph>
<glyph name="hyphen" format="2">
  <advance width="580"/>
  <unicode hex="002D"/>
  <outline>
    <contour>
      <point x="26" y="447" type="line"/>
      <point x="558" y="447" type="line"/>
      <point x="558" y="247" type="line"/>
      <point x="26" y="247" type="line"/>
    </contour>
    <contour>
      <point x="528" y="277" type="line"/>
      <point x="528" y="414" type="line"/>
      <point x="56" y="414" type="line"/>
      <point x="56" y="277" type="line"/>
    </contour>
    <contour>
      <point x="509" y="296" type="line"/>
      <point x="75" y="296" type="line"/>
      <point x="75" y="395" type="line"/>
      <point x="509" y="395" type="line"/>
    </contour>
  </outline>
</glyph>
<glyph name="period" format="2">
  <advance width="283"/>
  <unicode hex="002E"/>
  <outline>
    <contour>
      <point x="20" y="194" type="line"/>
      <point x="266" y="194" type="line"/>
      <point x="266" y="0" type="line"/>
      <point x="20" y="0" type="line"/>
    </contour>
    <contour>
      <point x="236" y="30" type="line"/>
      <point x="236" y="161" type="line"/>
      <point x="50" y="161" type="line"/>
      <point x="50" y="30" type="line"/>
    </contour>
    <contour>
      <point x="217" y="49" type="line"/>
      <point x="69" y="49" type="line"/>
      <point x="69" y="142" type="line"/>
      <point x="217" y="142" type="line"/>
    </contour>
  </outline>
</glyph>
<glyph name="slash" format="2">
  <advance width="714"/>
  <unicode hex="002F"/>
  <outline>
    <contour>
      <point x="292" y="695" type="line"/>
      <point x="697" y="695" type="line"/>
      <point x="430" y="0" type="line"/>
      <point x="26" y="0" type="line"/>
    </contour>
    <contour>
      <point x="411" y="30" type="line"/>
      <point x="527" y="333" type="line"/>
      <point x="183" y="333" type="line"/>
      <point x="67" y="30" type="line"/>
    </contour>
    <contour>
      <point x="311" y="665" type="line"/>
      <point x="195" y="363" type="line"/>
      <point x="539" y="363" type="line"/>
      <point x="655" y="665" type="line"/>
    </contour>
    <contour>
      <point x="399" y="49" type="line"/>
      <point x="93" y="49" type="line"/>
      <point x="195" y="314" type="line"/>
      <point x="501" y="314" type="line"/>
    </contour>
    <contour>
      <point x="322" y="646" type="line"/>
      <point x="628" y="646" type="line"/>
      <point x="527" y="382" type="line"/>
      <point x="221" y="382" type="line"/>
    </contour>
  </outline>
</glyph>
<glyph name="one" format="2">
  <advance width="612"/>
  <unicode hex="0031"/>
  <outline>
    <contour>
      <point x="183" y="0" type="line"/>
      <point x="183" y="415" type="line"/>
      <point x="28" y="415" type="line"/>
      <point x="28" y="695" type="line"/>
      <point x="587" y="695" type="line"/>
      <point x="587" y="0" type="line"/>
    </contour>
    <contour>
      <point x="58" y="445" type="line"/>
      <point x="183" y="445" type="line"/>
      <point x="183" y="665" type="line"/>
      <point x="58" y="665" type="line"/>
    </contour>
    <contour>
      <point x="213" y="665" type="line"/>
      <point x="213" y="30" type="line"/>
      <point x="557" y="30" type="line"/>
      <point x="557" y="665" type="line"/>
    </contour>
    <contour>
      <point x="77" y="464" type="line"/>
      <point x="77" y="646" type="line"/>
      <point x="164" y="646" type="line"/>
      <point x="164" y="464" type="line"/>
    </contour>
    <contour>
      <point x="232" y="646" type="line"/>
      <point x="538" y="646" type="line"/>
      <point x="538" y="49" type="line"/>
      <point x="232" y="49" type="line"/>
    </contour>
  </outline>
</glyph>
<glyph name="three" format="2">
  <advance width="1165"/>
  <unicode hex="0033"/>
  <outline>
    <contour>
      <point x="565" y="416" type="line"/>
      <point x="78" y="416" type="line"/>
      <point x="78" y="695" type="line"/>
      <point x="565" y="695" type="line"/>
      <point x="977" y="696" type="line"/>
      <point x="1012" y="693"/>
      <point x="1072" y="662"/>
      <point x="1117" y="612"/>
      <point x="1143" y="549"/>
      <point x="1143" y="513" type="qcurve" smooth="yes"/>
      <point x="1143" y="457"/>
      <point x="1082" y="368"/>
      <point x="1034" y="347" type="qcurve"/>
      <point x="1082" y="326"/>
      <point x="1143" y="237"/>
      <point x="1143" y="181" type="qcurve" smooth="yes"/>
      <point x="1143" y="145"/>
      <point x="1117" y="82"/>
      <point x="1072" y="34"/>
      <point x="1012" y="3"/>
      <point x="977" y="0" type="qcurve"/>
      <point x="78" y="0" type="line"/>
      <point x="78" y="155" type="line"/>
      <point x="565" y="155" type="line"/>
      <point x="565" y="208" type="line"/>
      <point x="286" y="208" type="line"/>
      <point x="286" y="363" type="line"/>
      <point x="565" y="363" type="line"/>
    </contour>
    <contour>
      <point x="108" y="446" type="line"/>
      <point x="585" y="446" type="line"/>
      <point x="585" y="332" type="line"/>
      <point x="565" y="332" type="line"/>
      <point x="565" y="333" type="line"/>
      <point x="316" y="333" type="line"/>
      <point x="316" y="238" type="line"/>
      <point x="588" y="238" type="line"/>
      <point x="589" y="125" type="line"/>
      <point x="108" y="125" type="line"/>
      <point x="108" y="30" type="line"/>
      <point x="863" y="30" type="line"/>
      <point x="825" y="54"/>
      <point x="781" y="133"/>
      <point x="781" y="181" type="qcurve" smooth="yes"/>
      <point x="781" y="229"/>
      <point x="825" y="308"/>
      <point x="879" y="350" type="qcurve"/>
      <point x="825" y="387"/>
      <point x="781" y="465"/>
      <point x="781" y="513" type="qcurve" smooth="yes"/>
      <point x="781" y="561"/>
      <point x="825" y="640"/>
      <point x="863" y="665" type="qcurve"/>
      <point x="108" y="665" type="line"/>
    </contour>
    <contour>
      <point x="607" y="257" type="line"/>
      <point x="335" y="257" type="line"/>
      <point x="335" y="314" type="line"/>
      <point x="607" y="314" type="line"/>
      <point x="607" y="465" type="line"/>
      <point x="127" y="465" type="line"/>
      <point x="127" y="646" type="line"/>
      <point x="813" y="646" type="line"/>
      <point x="762" y="590"/>
      <point x="762" y="513" type="qcurve" smooth="yes"/>
      <point x="762" y="475"/>
      <point x="786" y="397"/>
      <point x="850" y="349" type="qcurve"/>
      <point x="793" y="303"/>
      <point x="762" y="218"/>
      <point x="762" y="181" type="qcurve" smooth="yes"/>
      <point x="762" y="144"/>
      <point x="789" y="75"/>
      <point x="812" y="49" type="qcurve"/>
      <point x="127" y="49" type="line"/>
      <point x="127" y="106" type="line"/>
      <point x="607" y="106" type="line"/>
    </contour>
    <contour>
      <point x="962" y="362" type="qcurve" smooth="yes"/>
      <point x="993" y="362"/>
      <point x="1049" y="386"/>
      <point x="1089" y="427"/>
      <point x="1113" y="482"/>
      <point x="1113" y="513" type="qcurve" smooth="yes"/>
      <point x="1113" y="544"/>
      <point x="1089" y="600"/>
      <point x="1049" y="641"/>
      <point x="993" y="665"/>
      <point x="962" y="665" type="qcurve" smooth="yes"/>
      <point x="931" y="665"/>
      <point x="876" y="641"/>
      <point x="835" y="600"/>
      <point x="811" y="544"/>
      <point x="811" y="513" type="qcurve" smooth="yes"/>
      <point x="811" y="482"/>
      <point x="835" y="427"/>
      <point x="876" y="386"/>
      <point x="931" y="362"/>
    </contour>
    <contour>
      <point x="1113" y="181" type="qcurve" smooth="yes"/>
      <point x="1113" y="212"/>
      <point x="1089" y="267"/>
      <point x="1049" y="308"/>
      <point x="993" y="332"/>
      <point x="962" y="332" type="qcurve" smooth="yes"/>
      <point x="931" y="332"/>
      <point x="876" y="308"/>
      <point x="835" y="267"/>
      <point x="811" y="212"/>
      <point x="811" y="181" type="qcurve" smooth="yes"/>
      <point x="811" y="149"/>
      <point x="835" y="94"/>
      <point x="876" y="54"/>
      <point x="931" y="30"/>
      <point x="962" y="30" type="qcurve" smooth="yes"/>
      <point x="993" y="30"/>
      <point x="1049" y="54"/>
      <point x="1089" y="94"/>
      <point x="1113" y="149"/>
    </contour>
    <contour>
      <point x="962" y="381" type="qcurve" smooth="yes"/>
      <point x="935" y="381"/>
      <point x="887" y="402"/>
      <point x="851" y="438"/>
      <point x="830" y="486"/>
      <point x="830" y="513" type="qcurve" smooth="yes"/>
      <point x="830" y="540"/>
      <point x="851" y="589"/>
      <point x="887" y="625"/>
      <point x="935" y="646"/>
      <point x="962" y="646" type="qcurve" smooth="yes"/>
      <point x="989" y="646"/>
      <point x="1037" y="625"/>
      <point x="1073" y="589"/>
      <point x="1094" y="540"/>
      <point x="1094" y="513" type="qcurve" smooth="yes"/>
      <point x="1094" y="486"/>
      <point x="1073" y="438"/>
      <point x="1037" y="402"/>
      <point x="989" y="381"/>
    </contour>
    <contour>
      <point x="1094" y="181" type="qcurve" smooth="yes"/>
      <point x="1094" y="154"/>
      <point x="1073" y="106"/>
      <point x="1037" y="70"/>
      <point x="989" y="49"/>
      <point x="962" y="49" type="qcurve" smooth="yes"/>
      <point x="935" y="49"/>
      <point x="887" y="70"/>
      <point x="851" y="106"/>
      <point x="830" y="154"/>
      <point x="830" y="181" type="qcurve" smooth="yes"/>
      <point x="830" y="208"/>
      <point x="851" y="256"/>
      <point x="887" y="292"/>
      <point x="935" y="313"/>
      <point x="962" y="313" type="qcurve" smooth="yes"/>
      <point x="989" y="313"/>
      <point x="1037" y="292"/>
      <point x="1073" y="256"/>
      <point x="1094" y="208"/>
    </contour>
  </outline>
</glyph>
<glyph name="four" format="2">
  <advance width="1118"/>
  <unicode hex="0034"/>
  <outline>
    <contour>
      <point x="1098" y="695" type="line"/>
      <point x="1098" y="0" type="line"/>
      <point x="694" y="0" type="line"/>
      <point x="694" y="250" type="line"/>
      <point x="242" y="250" type="line"/>
      <point x="199" y="253"/>
      <point x="123" y="290"/>
      <point x="66" y="350"/>
      <point x="34" y="429"/>
      <point x="34" y="473" type="qcurve" smooth="yes"/>
      <point x="34" y="695" type="line"/>
    </contour>
    <contour>
      <point x="83" y="458" type="line"/>
      <point x="83" y="465"/>
      <point x="83" y="473" type="qcurve" smooth="yes"/>
      <point x="83" y="488" type="line"/>
      <point x="1068" y="488" type="line"/>
      <point x="1068" y="665" type="line"/>
      <point x="64" y="665" type="line"/>
      <point x="64" y="473" type="line" smooth="yes"/>
      <point x="64" y="433"/>
      <point x="94" y="363"/>
      <point x="147" y="310"/>
      <point x="217" y="280"/>
      <point x="257" y="280" type="qcurve" smooth="yes"/>
      <point x="1068" y="280" type="line"/>
      <point x="1068" y="458" type="line"/>
    </contour>
    <contour>
      <point x="1049" y="507" type="line"/>
      <point x="83" y="507" type="line"/>
      <point x="83" y="646" type="line"/>
      <point x="1049" y="646" type="line"/>
    </contour>
    <contour>
      <point x="96" y="405" type="qcurve" smooth="yes"/>
      <point x="89" y="421"/>
      <point x="86" y="439" type="qcurve"/>
      <point x="1049" y="439" type="line"/>
      <point x="1049" y="299" type="line"/>
      <point x="257" y="299" type="line" smooth="yes"/>
      <point x="221" y="299"/>
      <point x="158" y="326"/>
      <point x="110" y="374"/>
    </contour>
    <contour>
      <point x="724" y="30" type="line"/>
      <point x="1068" y="30" type="line"/>
      <point x="1068" y="250" type="line"/>
      <point x="724" y="250" type="line"/>
    </contour>
    <contour>
      <point x="743" y="231" type="line"/>
      <point x="1049" y="231" type="line"/>
      <point x="1049" y="49" type="line"/>
      <point x="743" y="49" type="line"/>
    </contour>
  </outline>
</glyph>
<glyph name="five" format="2">
  <advance width="1163"/>
  <unicode hex="0035"/>
  <outline>
    <contour>
      <point x="1090" y="182" type="qcurve" smooth="yes"/>
      <point x="1090" y="155"/>
      <point x="1069" y="106"/>
      <point x="1033" y="70"/>
      <point x="985" y="49"/>
      <point x="957" y="49" type="qcurve" smooth="yes"/>
      <point x="931" y="49"/>
      <point x="885" y="70"/>
      <point x="849" y="107"/>
      <point x="827" y="159"/>
      <point x="825" y="189" type="qcurve"/>
      <point x="827" y="215"/>
      <point x="848" y="261"/>
      <point x="884" y="295"/>
      <point x="931" y="314"/>
      <point x="957" y="314" type="qcurve" smooth="yes"/>
      <point x="985" y="314"/>
      <point x="1033" y="293"/>
      <point x="1069" y="257"/>
      <point x="1090" y="209"/>
    </contour>
    <contour>
      <point x="1109" y="182" type="qcurve" smooth="yes"/>
      <point x="1109" y="213"/>
      <point x="1085" y="268"/>
      <point x="1044" y="309"/>
      <point x="989" y="333"/>
      <point x="957" y="333" type="qcurve" smooth="yes"/>
      <point x="927" y="333"/>
      <point x="873" y="311"/>
      <point x="832" y="272"/>
      <point x="808" y="219"/>
      <point x="806" y="189" type="qcurve"/>
      <point x="807" y="154"/>
      <point x="832" y="96"/>
      <point x="873" y="54"/>
      <point x="927" y="30"/>
      <point x="957" y="30" type="qcurve" smooth="yes"/>
      <point x="989" y="30"/>
      <point x="1044" y="54"/>
      <point x="1085" y="95"/>
      <point x="1109" y="151"/>
    </contour>
    <contour>
      <point x="259" y="645" type="line"/>
      <point x="1090" y="646" type="line"/>
      <point x="1090" y="548" type="line"/>
      <point x="924" y="548" type="line"/>
      <point x="924" y="379" type="line"/>
      <point x="868" y="370"/>
      <point x="785" y="297"/>
      <point x="768" y="244" type="qcurve"/>
      <point x="720" y="282" type="line"/>
    </contour>
    <contour>
      <point x="77" y="645" type="line"/>
      <point x="151" y="645" type="line"/>
      <point x="622" y="273"/>
      <point x="710" y="202"/>
      <point x="757" y="164" type="qcurve"/>
      <point x="759" y="132"/>
      <point x="786" y="72"/>
      <point x="806" y="49" type="qcurve"/>
      <point x="77" y="49" type="line"/>
      <point x="77" y="148" type="line"/>
      <point x="243" y="148" type="line"/>
      <point x="243" y="383" type="line"/>
      <point x="77" y="384" type="line"/>
    </contour>
    <contour>
      <point x="858" y="30" type="line"/>
      <point x="823" y="54"/>
      <point x="778" y="129"/>
      <point x="776" y="174" type="qcurve"/>
      <point x="182" y="645" type="line"/>
      <point x="225" y="645" type="line"/>
      <point x="779" y="211" type="line"/>
      <point x="784" y="241"/>
      <point x="813" y="294"/>
      <point x="856" y="334"/>
      <point x="912" y="359"/>
      <point x="943" y="362" type="qcurve"/>
      <point x="943" y="529" type="line"/>
      <point x="1109" y="529" type="line"/>
      <point x="1109" y="665" type="line"/>
      <point x="58" y="665" type="line"/>
      <point x="58" y="360" type="line"/>
      <point x="224" y="360" type="line"/>
      <point x="224" y="167" type="line"/>
      <point x="58" y="167" type="line"/>
      <point x="58" y="30" type="line"/>
    </contour>
    <contour>
      <point x="28" y="0" type="line"/>
      <point x="28" y="197" type="line"/>
      <point x="194" y="197" type="line"/>
      <point x="194" y="334" type="line"/>
      <point x="28" y="334" type="line"/>
      <point x="28" y="695" type="line"/>
      <point x="1139" y="695" type="line"/>
      <point x="1139" y="499" type="line"/>
      <point x="972" y="499" type="line"/>
      <point x="972" y="362" type="line"/>
      <point x="1007" y="359"/>
      <point x="1068" y="329"/>
      <point x="1113" y="281"/>
      <point x="1139" y="218"/>
      <point x="1139" y="182" type="qcurve" smooth="yes"/>
      <point x="1139" y="146"/>
      <point x="1113" y="83"/>
      <point x="1067" y="34"/>
      <point x="1006" y="3"/>
      <point x="971" y="0" type="qcurve"/>
    </contour>
  </outline>
</glyph>
<glyph name="six" format="2">
  <advance width="1148"/>
  <unicode hex="0036"/>
  <outline>
    <contour>
      <point x="1086" y="181" type="qcurve" smooth="yes"/>
      <point x="1086" y="154"/>
      <point x="1065" y="106"/>
      <point x="1029" y="70"/>
      <point x="981" y="49"/>
      <point x="954" y="49" type="qcurve" smooth="yes"/>
      <point x="927" y="49"/>
      <point x="878" y="70"/>
      <point x="842" y="106"/>
      <point x="821" y="154"/>
      <point x="821" y="181" type="qcurve" smooth="yes"/>
      <point x="821" y="208"/>
      <point x="842" y="256"/>
      <point x="878" y="292"/>
      <point x="927" y="313"/>
      <point x="954" y="313" type="qcurve" smooth="yes"/>
      <point x="981" y="313"/>
      <point x="1029" y="292"/>
      <point x="1065" y="256"/>
      <point x="1086" y="208"/>
    </contour>
    <contour>
      <point x="1105" y="181" type="qcurve" smooth="yes"/>
      <point x="1105" y="212"/>
      <point x="1081" y="267"/>
      <point x="1040" y="308"/>
      <point x="985" y="332"/>
      <point x="954" y="332" type="qcurve" smooth="yes"/>
      <point x="923" y="332"/>
      <point x="867" y="308"/>
      <point x="826" y="267"/>
      <point x="802" y="212"/>
      <point x="802" y="181" type="qcurve" smooth="yes"/>
      <point x="802" y="149"/>
      <point x="826" y="94"/>
      <point x="867" y="54"/>
      <point x="923" y="30"/>
      <point x="954" y="30" type="qcurve" smooth="yes"/>
      <point x="985" y="30"/>
      <point x="1040" y="54"/>
      <point x="1081" y="94"/>
      <point x="1105" y="149"/>
    </contour>
    <contour>
      <point x="766" y="109" type="qcurve" smooth="yes"/>
      <point x="779" y="75"/>
      <point x="803" y="49" type="qcurve"/>
      <point x="365" y="49" type="line" smooth="yes"/>
      <point x="346" y="49"/>
      <point x="311" y="54"/>
      <point x="294" y="58" type="qcurve"/>
      <point x="295" y="58" type="line"/>
      <point x="244" y="71"/>
      <point x="162" y="128"/>
      <point x="103" y="205"/>
      <point x="87" y="251" type="qcurve" smooth="yes"/>
      <point x="77" y="281"/>
      <point x="73" y="312" type="qcurve"/>
      <point x="559" y="312" type="line"/>
      <point x="559" y="313" type="line"/>
      <point x="803" y="313" type="line"/>
      <point x="779" y="287"/>
      <point x="753" y="219"/>
      <point x="753" y="181" type="qcurve" smooth="yes"/>
      <point x="753" y="143"/>
    </contour>
    <contour>
      <point x="920" y="547" type="line"/>
      <point x="920" y="381" type="line"/>
      <point x="559" y="381" type="line"/>
      <point x="559" y="382" type="line"/>
      <point x="73" y="382" type="line"/>
      <point x="75" y="402"/>
      <point x="80" y="422" type="qcurve" smooth="yes"/>
      <point x="93" y="471"/>
      <point x="148" y="554"/>
      <point x="225" y="613"/>
      <point x="319" y="646"/>
      <point x="370" y="646" type="qcurve" smooth="yes"/>
      <point x="1086" y="646" type="line"/>
      <point x="1086" y="547" type="line"/>
    </contour>
    <contour>
      <point x="290" y="40" type="qcurve" smooth="yes"/>
      <point x="309" y="35"/>
      <point x="346" y="30"/>
      <point x="365" y="30" type="qcurve" smooth="yes"/>
      <point x="854" y="30" type="line"/>
      <point x="817" y="54"/>
      <point x="772" y="133"/>
      <point x="772" y="181" type="qcurve" smooth="yes"/>
      <point x="772" y="229"/>
      <point x="817" y="308"/>
      <point x="854" y="332" type="qcurve"/>
      <point x="68" y="332" type="line"/>
      <point x="68" y="362" type="line"/>
      <point x="939" y="362" type="line"/>
      <point x="939" y="528" type="line"/>
      <point x="1105" y="528" type="line"/>
      <point x="1105" y="665" type="line"/>
      <point x="370" y="665" type="line" smooth="yes"/>
      <point x="316" y="665"/>
      <point x="216" y="630"/>
      <point x="134" y="567"/>
      <point x="76" y="479"/>
      <point x="62" y="427" type="qcurve" smooth="yes"/>
      <point x="46" y="363"/>
      <point x="65" y="239"/>
      <point x="127" y="134"/>
      <point x="227" y="56"/>
    </contour>
    <contour>
      <point x="1034" y="18" type="qcurve" smooth="yes"/>
      <point x="1004" y="3"/>
      <point x="969" y="0" type="qcurve"/>
      <point x="355" y="0" type="line"/>
      <point x="321" y="1"/>
      <point x="283" y="11" type="qcurve" smooth="yes"/>
      <point x="213" y="29"/>
      <point x="104" y="114"/>
      <point x="36" y="229"/>
      <point x="15" y="365"/>
      <point x="33" y="434" type="qcurve" smooth="yes"/>
      <point x="48" y="492"/>
      <point x="112" y="588"/>
      <point x="201" y="657"/>
      <point x="310" y="695"/>
      <point x="370" y="695" type="qcurve" smooth="yes"/>
      <point x="1135" y="695" type="line"/>
      <point x="1135" y="498" type="line"/>
      <point x="969" y="498" type="line"/>
      <point x="969" y="361" type="line"/>
      <point x="1004" y="358"/>
      <point x="1064" y="328"/>
      <point x="1109" y="280"/>
      <point x="1135" y="217"/>
      <point x="1135" y="181" type="qcurve" smooth="yes"/>
      <point x="1135" y="145"/>
      <point x="1109" y="82"/>
      <point x="1064" y="34"/>
    </contour>
  </outline>
</glyph>
<glyph name="seven" format="2">
  <advance width="914"/>
  <unicode hex="0037"/>
  <outline>
    <contour>
      <point x="485" y="0" type="line"/>
      <point x="485" y="415" type="line"/>
      <point x="28" y="415" type="line"/>
      <point x="28" y="695" type="line"/>
      <point x="889" y="695" type="line"/>
      <point x="889" y="0" type="line"/>
    </contour>
    <contour>
      <point x="58" y="445" type="line"/>
      <point x="485" y="445" type="line"/>
      <point x="485" y="665" type="line"/>
      <point x="58" y="665" type="line"/>
    </contour>
    <contour>
      <point x="515" y="665" type="line"/>
      <point x="515" y="30" type="line"/>
      <point x="859" y="30" type="line"/>
      <point x="859" y="665" type="line"/>
    </contour>
    <contour>
      <point x="77" y="464" type="line"/>
      <point x="77" y="646" type="line"/>
      <point x="466" y="646" type="line"/>
      <point x="466" y="464" type="line"/>
    </contour>
    <contour>
      <point x="534" y="646" type="line"/>
      <point x="840" y="646" type="line"/>
      <point x="840" y="49" type="line"/>
      <point x="534" y="49" type="line"/>
    </contour>
  </outline>
</glyph>
<glyph name="eight" format="2">
  <advance width="1167"/>
  <unicode hex="0038"/>
  <outline>
    <contour>
      <point x="977" y="696" type="line"/>
      <point x="1012" y="693"/>
      <point x="1072" y="662"/>
      <point x="1117" y="612"/>
      <point x="1143" y="549"/>
      <point x="1143" y="513" type="qcurve" smooth="yes"/>
      <point x="1143" y="457"/>
      <point x="1082" y="368"/>
      <point x="1034" y="347" type="qcurve"/>
      <point x="1082" y="326"/>
      <point x="1143" y="237"/>
      <point x="1143" y="181" type="qcurve" smooth="yes"/>
      <point x="1143" y="145"/>
      <point x="1117" y="82"/>
      <point x="1072" y="34"/>
      <point x="1012" y="3"/>
      <point x="977" y="0" type="qcurve"/>
      <point x="185" y="0" type="line"/>
      <point x="150" y="3"/>
      <point x="90" y="34"/>
      <point x="45" y="82"/>
      <point x="19" y="145"/>
      <point x="19" y="181" type="qcurve" smooth="yes"/>
      <point x="19" y="237"/>
      <point x="80" y="326"/>
      <point x="128" y="347" type="qcurve"/>
      <point x="80" y="368"/>
      <point x="19" y="457"/>
      <point x="19" y="513" type="qcurve" smooth="yes"/>
      <point x="19" y="549"/>
      <point x="45" y="612"/>
      <point x="90" y="662"/>
      <point x="150" y="693"/>
      <point x="185" y="696" type="qcurve"/>
    </contour>
    <contour>
      <point x="863" y="362" type="line"/>
      <point x="825" y="387"/>
      <point x="781" y="465"/>
      <point x="781" y="513" type="qcurve" smooth="yes"/>
      <point x="781" y="561"/>
      <point x="825" y="640"/>
      <point x="863" y="665" type="qcurve"/>
      <point x="299" y="665" type="line"/>
      <point x="337" y="640"/>
      <point x="381" y="561"/>
      <point x="381" y="513" type="qcurve" smooth="yes"/>
      <point x="381" y="465"/>
      <point x="337" y="387"/>
      <point x="299" y="362" type="qcurve"/>
    </contour>
    <contour>
      <point x="863" y="30" type="line"/>
      <point x="825" y="54"/>
      <point x="781" y="133"/>
      <point x="781" y="181" type="qcurve" smooth="yes"/>
      <point x="781" y="229"/>
      <point x="825" y="308"/>
      <point x="863" y="332" type="qcurve"/>
      <point x="299" y="332" type="line"/>
      <point x="337" y="308"/>
      <point x="381" y="229"/>
      <point x="381" y="181" type="qcurve" smooth="yes"/>
      <point x="381" y="133"/>
      <point x="337" y="54"/>
      <point x="299" y="30" type="qcurve"/>
    </contour>
    <contour>
      <point x="813" y="646" type="line"/>
      <point x="762" y="590"/>
      <point x="762" y="513" type="qcurve" smooth="yes"/>
      <point x="762" y="475"/>
      <point x="788" y="408"/>
      <point x="812" y="381" type="qcurve"/>
      <point x="350" y="381" type="line"/>
      <point x="374" y="408"/>
      <point x="400" y="475"/>
      <point x="400" y="513" type="qcurve" smooth="yes"/>
      <point x="400" y="590"/>
      <point x="349" y="646" type="qcurve"/>
    </contour>
    <contour>
      <point x="812" y="313" type="line"/>
      <point x="789" y="287"/>
      <point x="762" y="218"/>
      <point x="762" y="181" type="qcurve" smooth="yes"/>
      <point x="762" y="144"/>
      <point x="789" y="75"/>
      <point x="812" y="49" type="qcurve"/>
      <point x="350" y="49" type="line"/>
      <point x="373" y="75"/>
      <point x="400" y="144"/>
      <point x="400" y="181" type="qcurve" smooth="yes"/>
      <point x="400" y="218"/>
      <point x="373" y="287"/>
      <point x="350" y="313" type="qcurve"/>
    </contour>
    <contour>
      <point x="962" y="362" type="qcurve" smooth="yes"/>
      <point x="993" y="362"/>
      <point x="1049" y="386"/>
      <point x="1089" y="427"/>
      <point x="1113" y="482"/>
      <point x="1113" y="513" type="qcurve" smooth="yes"/>
      <point x="1113" y="544"/>
      <point x="1089" y="600"/>
      <point x="1049" y="641"/>
      <point x="993" y="665"/>
      <point x="962" y="665" type="qcurve" smooth="yes"/>
      <point x="931" y="665"/>
      <point x="876" y="641"/>
      <point x="835" y="600"/>
      <point x="811" y="544"/>
      <point x="811" y="513" type="qcurve" smooth="yes"/>
      <point x="811" y="482"/>
      <point x="835" y="427"/>
      <point x="876" y="386"/>
      <point x="931" y="362"/>
    </contour>
    <contour>
      <point x="200" y="362" type="qcurve" smooth="yes"/>
      <point x="231" y="362"/>
      <point x="286" y="386"/>
      <point x="327" y="427"/>
      <point x="351" y="482"/>
      <point x="351" y="513" type="qcurve" smooth="yes"/>
      <point x="351" y="544"/>
      <point x="327" y="600"/>
      <point x="286" y="641"/>
      <point x="231" y="665"/>
      <point x="200" y="665" type="qcurve" smooth="yes"/>
      <point x="169" y="665"/>
      <point x="113" y="641"/>
      <point x="73" y="600"/>
      <point x="49" y="544"/>
      <point x="49" y="513" type="qcurve" smooth="yes"/>
      <point x="49" y="482"/>
      <point x="73" y="427"/>
      <point x="113" y="386"/>
      <point x="169" y="362"/>
    </contour>
    <contour>
      <point x="1113" y="181" type="qcurve" smooth="yes"/>
      <point x="1113" y="212"/>
      <point x="1089" y="267"/>
      <point x="1049" y="308"/>
      <point x="993" y="332"/>
      <point x="962" y="332" type="qcurve" smooth="yes"/>
      <point x="931" y="332"/>
      <point x="876" y="308"/>
      <point x="835" y="267"/>
      <point x="811" y="212"/>
      <point x="811" y="181" type="qcurve" smooth="yes"/>
      <point x="811" y="149"/>
      <point x="835" y="94"/>
      <point x="876" y="54"/>
      <point x="931" y="30"/>
      <point x="962" y="30" type="qcurve" smooth="yes"/>
      <point x="993" y="30"/>
      <point x="1049" y="54"/>
      <point x="1089" y="94"/>
      <point x="1113" y="149"/>
    </contour>
    <contour>
      <point x="49" y="181" type="qcurve" smooth="yes"/>
      <point x="49" y="149"/>
      <point x="73" y="94"/>
      <point x="113" y="54"/>
      <point x="169" y="30"/>
      <point x="200" y="30" type="qcurve" smooth="yes"/>
      <point x="231" y="30"/>
      <point x="286" y="54"/>
      <point x="327" y="94"/>
      <point x="351" y="149"/>
      <point x="351" y="181" type="qcurve" smooth="yes"/>
      <point x="351" y="212"/>
      <point x="327" y="267"/>
      <point x="286" y="308"/>
      <point x="231" y="332"/>
      <point x="200" y="332" type="qcurve" smooth="yes"/>
      <point x="169" y="332"/>
      <point x="113" y="308"/>
      <point x="73" y="267"/>
      <point x="49" y="212"/>
    </contour>
    <contour>
      <point x="962" y="381" type="qcurve" smooth="yes"/>
      <point x="935" y="381"/>
      <point x="887" y="402"/>
      <point x="851" y="438"/>
      <point x="830" y="486"/>
      <point x="830" y="513" type="qcurve" smooth="yes"/>
      <point x="830" y="540"/>
      <point x="851" y="589"/>
      <point x="887" y="625"/>
      <point x="935" y="646"/>
      <point x="962" y="646" type="qcurve" smooth="yes"/>
      <point x="989" y="646"/>
      <point x="1037" y="625"/>
      <point x="1073" y="589"/>
      <point x="1094" y="540"/>
      <point x="1094" y="513" type="qcurve" smooth="yes"/>
      <point x="1094" y="486"/>
      <point x="1073" y="438"/>
      <point x="1037" y="402"/>
      <point x="989" y="381"/>
    </contour>
    <contour>
      <point x="200" y="381" type="qcurve" smooth="yes"/>
      <point x="173" y="381"/>
      <point x="125" y="402"/>
      <point x="89" y="438"/>
      <point x="68" y="486"/>
      <point x="68" y="513" type="qcurve" smooth="yes"/>
      <point x="68" y="540"/>
      <point x="89" y="589"/>
      <point x="125" y="625"/>
      <point x="173" y="646"/>
      <point x="200" y="646" type="qcurve" smooth="yes"/>
      <point x="227" y="646"/>
      <point x="275" y="625"/>
      <point x="311" y="589"/>
      <point x="332" y="540"/>
      <point x="332" y="513" type="qcurve" smooth="yes"/>
      <point x="332" y="486"/>
      <point x="311" y="438"/>
      <point x="275" y="402"/>
      <point x="227" y="381"/>
    </contour>
    <contour>
      <point x="68" y="181" type="qcurve" smooth="yes"/>
      <point x="68" y="208"/>
      <point x="89" y="256"/>
      <point x="125" y="292"/>
      <point x="173" y="313"/>
      <point x="200" y="313" type="qcurve" smooth="yes"/>
      <point x="227" y="313"/>
      <point x="275" y="292"/>
      <point x="311" y="256"/>
      <point x="332" y="208"/>
      <point x="332" y="181" type="qcurve" smooth="yes"/>
      <point x="332" y="154"/>
      <point x="311" y="106"/>
      <point x="275" y="70"/>
      <point x="227" y="49"/>
      <point x="200" y="49" type="qcurve" smooth="yes"/>
      <point x="173" y="49"/>
      <point x="125" y="70"/>
      <point x="89" y="106"/>
      <point x="68" y="154"/>
    </contour>
    <contour>
      <point x="1094" y="181" type="qcurve" smooth="yes"/>
      <point x="1094" y="154"/>
      <point x="1073" y="106"/>
      <point x="1037" y="70"/>
      <point x="989" y="49"/>
      <point x="962" y="49" type="qcurve" smooth="yes"/>
      <point x="935" y="49"/>
      <point x="887" y="70"/>
      <point x="851" y="106"/>
      <point x="830" y="154"/>
      <point x="830" y="181" type="qcurve" smooth="yes"/>
      <point x="830" y="208"/>
      <point x="851" y="256"/>
      <point x="887" y="292"/>
      <point x="935" y="313"/>
      <point x="962" y="313" type="qcurve" smooth="yes"/>
      <point x="989" y="313"/>
      <point x="1037" y="292"/>
      <point x="1073" y="256"/>
      <point x="1094" y="208"/>
    </contour>
  </outline>
</glyph>
<glyph name="nine" format="2">
  <advance width="1148"/>
  <unicode hex="0039"/>
  <outline>
    <contour>
      <point x="64" y="514" type="qcurve" smooth="yes"/>
      <point x="64" y="541"/>
      <point x="85" y="589"/>
      <point x="121" y="625"/>
      <point x="169" y="646"/>
      <point x="196" y="646" type="qcurve" smooth="yes"/>
      <point x="223" y="646"/>
      <point x="272" y="625"/>
      <point x="308" y="589"/>
      <point x="329" y="541"/>
      <point x="329" y="514" type="qcurve" smooth="yes"/>
      <point x="329" y="487"/>
      <point x="308" y="439"/>
      <point x="272" y="403"/>
      <point x="223" y="382"/>
      <point x="196" y="382" type="qcurve" smooth="yes"/>
      <point x="169" y="382"/>
      <point x="121" y="403"/>
      <point x="85" y="439"/>
      <point x="64" y="487"/>
    </contour>
    <contour>
      <point x="45" y="514" type="qcurve" smooth="yes"/>
      <point x="45" y="483"/>
      <point x="69" y="428"/>
      <point x="110" y="387"/>
      <point x="165" y="363"/>
      <point x="196" y="363" type="qcurve" smooth="yes"/>
      <point x="227" y="363"/>
      <point x="283" y="387"/>
      <point x="324" y="428"/>
      <point x="348" y="483"/>
      <point x="348" y="514" type="qcurve" smooth="yes"/>
      <point x="348" y="546"/>
      <point x="324" y="601"/>
      <point x="283" y="641"/>
      <point x="227" y="665"/>
      <point x="196" y="665" type="qcurve" smooth="yes"/>
      <point x="165" y="665"/>
      <point x="110" y="641"/>
      <point x="69" y="601"/>
      <point x="45" y="546"/>
    </contour>
    <contour>
      <point x="384" y="586" type="qcurve" smooth="yes"/>
      <point x="371" y="620"/>
      <point x="347" y="646" type="qcurve"/>
      <point x="785" y="646" type="line" smooth="yes"/>
      <point x="804" y="646"/>
      <point x="839" y="641"/>
      <point x="856" y="637" type="qcurve"/>
      <point x="855" y="637" type="line"/>
      <point x="906" y="624"/>
      <point x="988" y="567"/>
      <point x="1047" y="490"/>
      <point x="1063" y="444" type="qcurve" smooth="yes"/>
      <point x="1073" y="414"/>
      <point x="1077" y="383" type="qcurve"/>
      <point x="591" y="383" type="line"/>
      <point x="591" y="382" type="line"/>
      <point x="347" y="382" type="line"/>
      <point x="371" y="408"/>
      <point x="397" y="476"/>
      <point x="397" y="514" type="qcurve" smooth="yes"/>
      <point x="397" y="552"/>
    </contour>
    <contour>
      <point x="230" y="148" type="line"/>
      <point x="230" y="314" type="line"/>
      <point x="591" y="314" type="line"/>
      <point x="591" y="313" type="line"/>
      <point x="1077" y="313" type="line"/>
      <point x="1075" y="293"/>
      <point x="1070" y="273" type="qcurve" smooth="yes"/>
      <point x="1057" y="224"/>
      <point x="1002" y="141"/>
      <point x="925" y="82"/>
      <point x="831" y="49"/>
      <point x="780" y="49" type="qcurve" smooth="yes"/>
      <point x="64" y="49" type="line"/>
      <point x="64" y="148" type="line"/>
    </contour>
    <contour>
      <point x="860" y="655" type="qcurve" smooth="yes"/>
      <point x="841" y="660"/>
      <point x="804" y="665"/>
      <point x="785" y="665" type="qcurve" smooth="yes"/>
      <point x="296" y="665" type="line"/>
      <point x="333" y="641"/>
      <point x="378" y="562"/>
      <point x="378" y="514" type="qcurve" smooth="yes"/>
      <point x="378" y="466"/>
      <point x="333" y="387"/>
      <point x="296" y="363" type="qcurve"/>
      <point x="1082" y="363" type="line"/>
      <point x="1082" y="333" type="line"/>
      <point x="211" y="333" type="line"/>
      <point x="211" y="167" type="line"/>
      <point x="45" y="167" type="line"/>
      <point x="45" y="30" type="line"/>
      <point x="780" y="30" type="line" smooth="yes"/>
      <point x="834" y="30"/>
      <point x="934" y="65"/>
      <point x="1016" y="128"/>
      <point x="1074" y="216"/>
      <point x="1088" y="268" type="qcurve" smooth="yes"/>
      <point x="1104" y="332"/>
      <point x="1085" y="456"/>
      <point x="1023" y="561"/>
      <point x="923" y="639"/>
    </contour>
    <contour>
      <point x="116" y="677" type="qcurve" smooth="yes"/>
      <point x="146" y="692"/>
      <point x="181" y="695" type="qcurve"/>
      <point x="795" y="695" type="line"/>
      <point x="829" y="694"/>
      <point x="867" y="684" type="qcurve" smooth="yes"/>
      <point x="937" y="666"/>
      <point x="1046" y="581"/>
      <point x="1114" y="466"/>
      <point x="1135" y="330"/>
      <point x="1117" y="261" type="qcurve" smooth="yes"/>
      <point x="1102" y="203"/>
      <point x="1038" y="107"/>
      <point x="949" y="38"/>
      <point x="840" y="0"/>
      <point x="780" y="0" type="qcurve" smooth="yes"/>
      <point x="15" y="0" type="line"/>
      <point x="15" y="197" type="line"/>
      <point x="181" y="197" type="line"/>
      <point x="181" y="334" type="line"/>
      <point x="146" y="337"/>
      <point x="86" y="367"/>
      <point x="41" y="415"/>
      <point x="15" y="478"/>
      <point x="15" y="514" type="qcurve" smooth="yes"/>
      <point x="15" y="550"/>
      <point x="41" y="613"/>
      <point x="86" y="661"/>
    </contour>
  </outline>
</glyph>
<glyph name="colon" format="2">
  <advance width="283"/>
  <unicode hex="003A"/>
  <outline>
    <contour>
      <point x="20" y="619" type="line"/>
      <point x="266" y="619" type="line"/>
      <point x="266" y="425" type="line"/>
      <point x="20" y="425" type="line"/>
    </contour>
    <contour>
      <point x="236" y="455" type="line"/>
      <point x="236" y="586" type="line"/>
      <point x="50" y="586" type="line"/>
      <point x="50" y="455" type="line"/>
    </contour>
    <contour>
      <point x="217" y="474" type="line"/>
      <point x="69" y="474" type="line"/>
      <point x="69" y="567" type="line"/>
      <point x="217" y="567" type="line"/>
    </contour>
    <contour>
      <point x="20" y="194" type="line"/>
      <point x="266" y="194" type="line"/>
      <point x="266" y="0" type="line"/>
      <point x="20" y="0" type="line"/>
    </contour>
    <contour>
      <point x="236" y="30" type="line"/>
      <point x="236" y="161" type="line"/>
      <point x="50" y="161" type="line"/>
      <point x="50" y="30" type="line"/>
    </contour>
    <contour>
      <point x="217" y="49" type="line"/>
      <point x="69" y="49" type="line"/>
      <point x="69" y="142" type="line"/>
      <point x="217" y="142" type="line"/>
    </contour>
  </outline>
</glyph>
<glyph name="semicolon" format="2">
  <advance width="283"/>
  <unicode hex="003B"/>
  <outline>
    <contour>
      <point x="20" y="619" type="line"/>
      <point x="266" y="619" type="line"/>
      <point x="266" y="425" type="line"/>
      <point x="20" y="425" type="line"/>
    </contour>
    <contour>
      <point x="236" y="455" type="line"/>
      <point x="236" y="586" type="line"/>
      <point x="50" y="586" type="line"/>
      <point x="50" y="455" type="line"/>
    </contour>
    <contour>
      <point x="217" y="474" type="line"/>
      <point x="69" y="474" type="line"/>
      <point x="69" y="567" type="line"/>
      <point x="217" y="567" type="line"/>
    </contour>
    <contour>
      <point x="218" y="35" type="line"/>
      <point x="69" y="-65" type="line"/>
      <point x="69" y="144" type="line"/>
      <point x="218" y="144" type="line"/>
    </contour>
    <contour>
      <point x="237" y="26" type="line"/>
      <point x="237" y="163" type="line"/>
      <point x="50" y="163" type="line"/>
      <point x="50" y="-102" type="line"/>
    </contour>
    <contour>
      <point x="267" y="0" type="line"/>
      <point x="20" y="-163" type="line"/>
      <point x="20" y="193" type="line"/>
      <point x="267" y="193" type="line"/>
    </contour>
  </outline>
</glyph>
<glyph name="less" format="2">
  <advance width="446"/>
  <unicode hex="003C"/>
  <outline>
    <contour>
      <point x="11" y="406" type="line"/>
      <point x="310" y="661" type="line"/>
      <point x="430" y="515" type="line"/>
      <point x="237" y="339" type="line"/>
      <point x="430" y="164" type="line"/>
      <point x="310" y="18" type="line"/>
      <point x="12" y="272" type="line"/>
      <point x="11" y="272" type="line"/>
    </contour>
    <contour>
      <point x="388" y="514" type="line"/>
      <point x="306" y="621" type="line"/>
      <point x="43" y="397" type="line"/>
      <point x="43" y="282" type="line"/>
      <point x="306" y="58" type="line"/>
      <point x="388" y="165" type="line"/>
      <point x="194" y="337" type="line"/>
    </contour>
    <contour>
      <point x="60" y="387" type="line"/>
      <point x="59" y="387" type="line"/>
      <point x="59" y="388" type="line"/>
      <point x="306" y="594" type="line"/>
      <point x="364" y="518" type="line"/>
      <point x="161" y="339" type="line"/>
      <point x="364" y="161" type="line"/>
      <point x="306" y="85" type="line"/>
      <point x="59" y="291" type="line"/>
      <point x="59" y="292" type="line"/>
      <point x="60" y="292" type="line"/>
    </contour>
  </outline>
</glyph>
<glyph name="equal" format="2">
  <advance width="526"/>
  <unicode hex="003D"/>
  <outline>
    <contour>
      <point x="26" y="310" type="line"/>
      <point x="501" y="310" type="line"/>
      <point x="501" y="141" type="line"/>
      <point x="26" y="141" type="line"/>
    </contour>
    <contour>
      <point x="471" y="171" type="line"/>
      <point x="471" y="277" type="line"/>
      <point x="56" y="277" type="line"/>
      <point x="56" y="171" type="line"/>
    </contour>
    <contour>
      <point x="452" y="190" type="line"/>
      <point x="75" y="190" type="line"/>
      <point x="75" y="258" type="line"/>
      <point x="452" y="258" type="line"/>
    </contour>
    <contour>
      <point x="26" y="546" type="line"/>
      <point x="501" y="546" type="line"/>
      <point x="501" y="377" type="line"/>
      <point x="26" y="377" type="line"/>
    </contour>
    <contour>
      <point x="471" y="407" type="line"/>
      <point x="471" y="513" type="line"/>
      <point x="56" y="513" type="line"/>
      <point x="56" y="407" type="line"/>
    </contour>
    <contour>
      <point x="452" y="426" type="line"/>
      <point x="75" y="426" type="line"/>
      <point x="75" y="494" type="line"/>
      <point x="452" y="494" type="line"/>
    </contour>
  </outline>
</glyph>
<glyph name="greater" format="2">
  <advance width="446"/>
  <unicode hex="003E"/>
  <outline>
    <contour>
      <point x="381" y="292" type="line"/>
      <point x="382" y="292" type="line"/>
      <point x="382" y="291" type="line"/>
      <point x="135" y="85" type="line"/>
      <point x="77" y="161" type="line"/>
      <point x="280" y="339" type="line"/>
      <point x="77" y="518" type="line"/>
      <point x="135" y="594" type="line"/>
      <point x="382" y="388" type="line"/>
      <point x="382" y="387" type="line"/>
      <point x="381" y="387" type="line"/>
    </contour>
    <contour>
      <point x="247" y="337" type="line"/>
      <point x="53" y="165" type="line"/>
      <point x="135" y="58" type="line"/>
      <point x="398" y="282" type="line"/>
      <point x="398" y="397" type="line"/>
      <point x="135" y="621" type="line"/>
      <point x="53" y="514" type="line"/>
    </contour>
    <contour>
      <point x="430" y="272" type="line"/>
      <point x="429" y="272" type="line"/>
      <point x="131" y="18" type="line"/>
      <point x="11" y="164" type="line"/>
      <point x="204" y="339" type="line"/>
      <point x="11" y="515" type="line"/>
      <point x="131" y="661" type="line"/>
      <point x="430" y="406" type="line"/>
    </contour>
  </outline>
</glyph>
<glyph name="question" format="2">
  <advance width="999"/>
  <unicode hex="003F"/>
  <outline>
    <contour>
      <point x="767" y="695" type="line"/>
      <point x="810" y="692"/>
      <point x="886" y="655"/>
      <point x="943" y="595"/>
      <point x="975" y="517"/>
      <point x="975" y="473" type="qcurve" smooth="yes"/>
      <point x="975" y="429"/>
      <point x="943" y="350"/>
      <point x="886" y="290"/>
      <point x="810" y="253"/>
      <point x="767" y="250" type="qcurve"/>
      <point x="34" y="250" type="line"/>
      <point x="34" y="695" type="line"/>
    </contour>
    <contour>
      <point x="64" y="488" type="line"/>
      <point x="530" y="488" type="line"/>
      <point x="534" y="545"/>
      <point x="594" y="638"/>
      <point x="641" y="665" type="qcurve"/>
      <point x="64" y="665" type="line"/>
    </contour>
    <contour>
      <point x="641" y="280" type="line"/>
      <point x="594" y="307"/>
      <point x="534" y="401"/>
      <point x="530" y="458" type="qcurve"/>
      <point x="64" y="458" type="line"/>
      <point x="64" y="280" type="line"/>
    </contour>
    <contour>
      <point x="752" y="280" type="qcurve" smooth="yes"/>
      <point x="792" y="280"/>
      <point x="862" y="310"/>
      <point x="915" y="363"/>
      <point x="945" y="433"/>
      <point x="945" y="473" type="qcurve" smooth="yes"/>
      <point x="945" y="513"/>
      <point x="915" y="583"/>
      <point x="862" y="635"/>
      <point x="792" y="665"/>
      <point x="752" y="665" type="qcurve" smooth="yes"/>
      <point x="712" y="665"/>
      <point x="642" y="635"/>
      <point x="590" y="583"/>
      <point x="560" y="513"/>
      <point x="560" y="473" type="qcurve" smooth="yes"/>
      <point x="560" y="433"/>
      <point x="590" y="363"/>
      <point x="642" y="310"/>
      <point x="712" y="280"/>
    </contour>
    <contour>
      <point x="83" y="646" type="line"/>
      <point x="584" y="646" type="line"/>
      <point x="557" y="619"/>
      <point x="519" y="547"/>
      <point x="513" y="507" type="qcurve"/>
      <point x="83" y="507" type="line"/>
    </contour>
    <contour>
      <point x="83" y="299" type="line"/>
      <point x="83" y="439" type="line"/>
      <point x="513" y="439" type="line"/>
      <point x="519" y="399"/>
      <point x="557" y="326"/>
      <point x="585" y="299" type="qcurve"/>
    </contour>
    <contour>
      <point x="752" y="299" type="qcurve" smooth="yes"/>
      <point x="716" y="299"/>
      <point x="653" y="326"/>
      <point x="606" y="374"/>
      <point x="579" y="437"/>
      <point x="579" y="473" type="qcurve" smooth="yes"/>
      <point x="579" y="509"/>
      <point x="606" y="572"/>
      <point x="653" y="619"/>
      <point x="716" y="646"/>
      <point x="752" y="646" type="qcurve" smooth="yes"/>
      <point x="788" y="646"/>
      <point x="851" y="619"/>
      <point x="899" y="572"/>
      <point x="926" y="509"/>
      <point x="926" y="473" type="qcurve" smooth="yes"/>
      <point x="926" y="437"/>
      <point x="899" y="374"/>
      <point x="851" y="326"/>
      <point x="788" y="299"/>
    </contour>
    <contour>
      <point x="253" y="0" type="line"/>
      <point x="253" y="230" type="line"/>
      <point x="622" y="230" type="line"/>
      <point x="622" y="0" type="line"/>
    </contour>
    <contour>
      <point x="592" y="30" type="line"/>
      <point x="592" y="204" type="line"/>
      <point x="283" y="204" type="line"/>
      <point x="283" y="30" type="line"/>
    </contour>
    <contour>
      <point x="573" y="49" type="line"/>
      <point x="302" y="49" type="line"/>
      <point x="302" y="185" type="line"/>
      <point x="573" y="185" type="line"/>
    </contour>
  </outline>
</glyph>
<glyph name="at" format="2">
  <advance width="1162"/>
  <unicode hex="0040"/>
  <outline>
    <contour>
      <point x="1045" y="-153" type="line"/>
      <point x="1010" y="-210"/>
      <point x="915" y="-300"/>
      <point x="800" y="-363"/>
      <point x="668" y="-396"/>
      <point x="596" y="-396" type="qcurve" smooth="yes"/>
      <point x="563" y="-396" type="line" smooth="yes"/>
      <point x="464" y="-396"/>
      <point x="267" y="-319"/>
      <point x="111" y="-179"/>
      <point x="17" y="19"/>
      <point x="20" y="139" type="qcurve" smooth="yes"/>
      <point x="22" y="215"/>
      <point x="63" y="357"/>
      <point x="134" y="481"/>
      <point x="233" y="583"/>
      <point x="351" y="655"/>
      <point x="485" y="695"/>
      <point x="557" y="695" type="qcurve" smooth="yes"/>
      <point x="585" y="695" type="line" smooth="yes"/>
      <point x="655" y="695"/>
      <point x="790" y="656"/>
      <point x="910" y="585"/>
      <point x="1012" y="485"/>
      <point x="1086" y="363"/>
      <point x="1127" y="222"/>
      <point x="1127" y="146" type="qcurve" smooth="yes"/>
      <point x="1127" y="89"/>
      <point x="1107" y="-16"/>
      <point x="1089" y="-64" type="qcurve"/>
      <point x="401" y="-64" type="line"/>
      <point x="379" y="-63"/>
      <point x="342" y="-45"/>
      <point x="314" y="-15"/>
      <point x="298" y="24"/>
      <point x="298" y="46" type="qcurve" smooth="yes"/>
      <point x="298" y="90"/>
      <point x="345" y="143"/>
      <point x="384" y="151" type="qcurve"/>
      <point x="384" y="197" type="line"/>
      <point x="298" y="197" type="line"/>
      <point x="298" y="333" type="line"/>
      <point x="696" y="333" type="line"/>
      <point x="736" y="331"/>
      <point x="806" y="301"/>
      <point x="857" y="250"/>
      <point x="888" y="182"/>
      <point x="890" y="142" type="qcurve"/>
      <point x="954" y="142" type="line"/>
      <point x="954" y="146" type="line" smooth="yes"/>
      <point x="954" y="223"/>
      <point x="893" y="360"/>
      <point x="790" y="463"/>
      <point x="656" y="521"/>
      <point x="583" y="519" type="qcurve" smooth="yes"/>
      <point x="548" y="518" type="line" smooth="yes"/>
      <point x="477" y="516"/>
      <point x="347" y="457"/>
      <point x="249" y="358"/>
      <point x="191" y="224"/>
      <point x="191" y="147" type="qcurve" smooth="yes"/>
      <point x="191" y="69"/>
      <point x="252" y="-67"/>
      <point x="354" y="-168"/>
      <point x="486" y="-226"/>
      <point x="557" y="-226" type="qcurve" smooth="yes"/>
      <point x="602" y="-226" type="line" smooth="yes"/>
      <point x="662" y="-226"/>
      <point x="759" y="-188"/>
      <point x="804" y="-153" type="qcurve"/>
    </contour>
    <contour>
      <point x="836" y="-201" type="line"/>
      <point x="928" y="-201" type="line"/>
      <point x="899" y="-230"/>
      <point x="822" y="-281"/>
      <point x="735" y="-319"/>
      <point x="641" y="-343"/>
      <point x="595" y="-345" type="qcurve"/>
      <point x="551" y="-345" type="line" smooth="yes"/>
      <point x="491" y="-345"/>
      <point x="372" y="-310"/>
      <point x="265" y="-246"/>
      <point x="173" y="-158"/>
      <point x="105" y="-52"/>
      <point x="67" y="69"/>
      <point x="67" y="133" type="qcurve" smooth="yes"/>
      <point x="67" y="200"/>
      <point x="103" y="327"/>
      <point x="168" y="440"/>
      <point x="257" y="534"/>
      <point x="362" y="602"/>
      <point x="479" y="640"/>
      <point x="539" y="640" type="qcurve" smooth="yes"/>
      <point x="614" y="640" type="line" smooth="yes"/>
      <point x="708" y="640"/>
      <point x="874" y="557"/>
      <point x="998" y="417"/>
      <point x="1070" y="233"/>
      <point x="1070" y="133" type="qcurve" smooth="yes"/>
      <point x="1070" y="127" type="line"/>
      <point x="466" y="127" type="line"/>
      <point x="486" y="114"/>
      <point x="510" y="72"/>
      <point x="510" y="46" type="qcurve" smooth="yes"/>
      <point x="510" y="21"/>
      <point x="486" y="-20"/>
      <point x="466" y="-34" type="qcurve"/>
      <point x="1062" y="-34" type="line"/>
      <point x="1076" y="7"/>
      <point x="1092" y="93"/>
      <point x="1091" y="139" type="qcurve" smooth="yes"/>
      <point x="1089" y="250"/>
      <point x="1009" y="440"/>
      <point x="875" y="580"/>
      <point x="696" y="660"/>
      <point x="594" y="660" type="qcurve" smooth="yes"/>
      <point x="538" y="660" type="line" smooth="yes"/>
      <point x="475" y="660"/>
      <point x="355" y="622"/>
      <point x="247" y="553"/>
      <point x="155" y="457"/>
      <point x="88" y="341"/>
      <point x="51" y="209"/>
      <point x="51" y="139" type="qcurve" smooth="yes"/>
      <point x="51" y="32"/>
      <point x="134" y="-151"/>
      <point x="273" y="-287"/>
      <point x="456" y="-364"/>
      <point x="556" y="-364" type="qcurve" smooth="yes"/>
      <point x="600" y="-364" type="line" smooth="yes"/>
      <point x="713" y="-364"/>
      <point x="907" y="-264"/>
      <point x="975" y="-182" type="qcurve"/>
      <point x="820" y="-182" type="line"/>
      <point x="771" y="-220"/>
      <point x="660" y="-261"/>
      <point x="594" y="-261" type="qcurve" smooth="yes"/>
      <point x="559" y="-261" type="line" smooth="yes"/>
      <point x="477" y="-261"/>
      <point x="333" y="-195"/>
      <point x="225" y="-83"/>
      <point x="163" y="62"/>
      <point x="163" y="142" type="qcurve" smooth="yes"/>
      <point x="163" y="225"/>
      <point x="228" y="372"/>
      <point x="336" y="481"/>
      <point x="474" y="542"/>
      <point x="547" y="540" type="qcurve" smooth="yes"/>
      <point x="607" y="538" type="line" smooth="yes"/>
      <point x="683" y="535"/>
      <point x="821" y="473"/>
      <point x="926" y="366"/>
      <point x="988" y="223"/>
      <point x="988" y="140" type="qcurve"/>
      <point x="1005" y="140" type="line"/>
      <point x="1005" y="147" type="line" smooth="yes"/>
      <point x="1005" y="232"/>
      <point x="941" y="382"/>
      <point x="830" y="495"/>
      <point x="682" y="561"/>
      <point x="598" y="561" type="qcurve" smooth="yes"/>
      <point x="553" y="561" type="line" smooth="yes"/>
      <point x="472" y="561"/>
      <point x="323" y="496"/>
      <point x="209" y="385"/>
      <point x="142" y="236"/>
      <point x="142" y="151" type="qcurve" smooth="yes"/>
      <point x="142" y="62"/>
      <point x="207" y="-95"/>
      <point x="317" y="-212"/>
      <point x="464" y="-280"/>
      <point x="545" y="-280" type="qcurve" smooth="yes"/>
      <point x="597" y="-280" type="line" smooth="yes"/>
      <point x="657" y="-280"/>
      <point x="785" y="-233"/>
      <point x="836" y="-200" type="qcurve"/>
    </contour>
    <contour>
      <point x="861" y="143" type="line"/>
      <point x="859" y="177"/>
      <point x="830" y="235"/>
      <point x="784" y="279"/>
      <point x="752" y="292" type="qcurve" smooth="yes"/>
      <point x="725" y="302"/>
      <point x="694" y="304" type="qcurve"/>
      <point x="326" y="304" type="line"/>
      <point x="326" y="223" type="line"/>
      <point x="416" y="223" type="line"/>
      <point x="417" y="143" type="line"/>
    </contour>
    <contour>
      <point x="510" y="-16" type="line"/>
      <point x="528" y="13"/>
      <point x="528" y="46" type="qcurve" smooth="yes"/>
      <point x="528" y="65"/>
      <point x="519" y="92"/>
      <point x="510" y="106" type="qcurve"/>
      <point x="1069" y="107" type="line"/>
      <point x="1063" y="45"/>
      <point x="1042" y="-16" type="qcurve"/>
    </contour>
    <contour>
      <point x="838" y="161" type="qcurve"/>
      <point x="432" y="161" type="line"/>
      <point x="432" y="240" type="line"/>
      <point x="344" y="240" type="line"/>
      <point x="344" y="284" type="line"/>
      <point x="694" y="284" type="line"/>
      <point x="748" y="281"/>
      <point x="827" y="215"/>
    </contour>
    <contour>
      <point x="328" y="46" type="qcurve" smooth="yes"/>
      <point x="328" y="30"/>
      <point x="342" y="1"/>
      <point x="364" y="-20"/>
      <point x="394" y="-34"/>
      <point x="411" y="-34" type="qcurve" smooth="yes"/>
      <point x="428" y="-34"/>
      <point x="458" y="-20"/>
      <point x="481" y="1"/>
      <point x="494" y="30"/>
      <point x="494" y="46" type="qcurve" smooth="yes"/>
      <point x="494" y="63"/>
      <point x="481" y="93"/>
      <point x="458" y="114"/>
      <point x="428" y="127"/>
      <point x="411" y="127" type="qcurve" smooth="yes"/>
      <point x="394" y="127"/>
      <point x="364" y="114"/>
      <point x="342" y="93"/>
      <point x="328" y="63"/>
    </contour>
    <contour>
      <point x="346" y="46" type="qcurve" smooth="yes"/>
      <point x="346" y="73"/>
      <point x="384" y="110"/>
      <point x="411" y="110" type="qcurve" smooth="yes"/>
      <point x="438" y="110"/>
      <point x="477" y="73"/>
      <point x="477" y="46" type="qcurve" smooth="yes"/>
      <point x="477" y="20"/>
      <point x="438" y="-16"/>
      <point x="411" y="-16" type="qcurve" smooth="yes"/>
      <point x="384" y="-16"/>
      <point x="346" y="20"/>
    </contour>
  </outline>
</glyph>
<glyph name="F" format="2">
  <advance width="1083"/>
  <unicode hex="0046"/>
  <outline>
    <contour>
      <point x="1060" y="695" type="line"/>
      <point x="1060" y="416" type="line"/>
      <point x="437" y="416" type="line"/>
      <point x="437" y="363" type="line"/>
      <point x="852" y="363" type="line"/>
      <point x="852" y="208" type="line"/>
      <point x="437" y="208" type="line"/>
      <point x="437" y="0" type="line"/>
      <point x="33" y="0" type="line"/>
      <point x="33" y="695" type="line"/>
    </contour>
    <contour>
      <point x="822" y="333" type="line"/>
      <point x="63" y="333" type="line"/>
      <point x="63" y="30" type="line"/>
      <point x="407" y="30" type="line"/>
      <point x="407" y="238" type="line"/>
      <point x="822" y="238" type="line"/>
    </contour>
    <contour>
      <point x="63" y="363" type="line"/>
      <point x="407" y="363" type="line"/>
      <point x="407" y="665" type="line"/>
      <point x="63" y="665" type="line"/>
    </contour>
    <contour>
      <point x="1030" y="665" type="line"/>
      <point x="437" y="665" type="line"/>
      <point x="437" y="446" type="line"/>
      <point x="1030" y="446" type="line"/>
    </contour>
    <contour>
      <point x="803" y="314" type="line"/>
      <point x="803" y="257" type="line"/>
      <point x="388" y="257" type="line"/>
      <point x="388" y="49" type="line"/>
      <point x="82" y="49" type="line"/>
      <point x="82" y="314" type="line"/>
    </contour>
    <contour>
      <point x="82" y="382" type="line"/>
      <point x="82" y="646" type="line"/>
      <point x="388" y="646" type="line"/>
      <point x="388" y="382" type="line"/>
    </contour>
    <contour>
      <point x="1011" y="646" type="line"/>
      <point x="1011" y="465" type="line"/>
      <point x="456" y="465" type="line"/>
      <point x="456" y="646" type="line"/>
    </contour>
  </outline>
</glyph>
<glyph name="I" format="2">
  <advance width="455"/>
  <unicode hex="0049"/>
  <outline>
    <contour>
      <point x="26" y="695" type="line"/>
      <point x="430" y="695" type="line"/>
      <point x="430" y="0" type="line"/>
      <point x="26" y="0" type="line"/>
    </contour>
    <contour>
      <point x="400" y="30" type="line"/>
      <point x="400" y="333" type="line"/>
      <point x="56" y="333" type="line"/>
      <point x="56" y="30" type="line"/>
    </contour>
    <contour>
      <point x="56" y="665" type="line"/>
      <point x="56" y="363" type="line"/>
      <point x="400" y="363" type="line"/>
      <point x="400" y="665" type="line"/>
    </contour>
    <contour>
      <point x="381" y="49" type="line"/>
      <point x="75" y="49" type="line"/>
      <point x="75" y="314" type="line"/>
      <point x="381" y="314" type="line"/>
    </contour>
    <contour>
      <point x="75" y="646" type="line"/>
      <point x="381" y="646" type="line"/>
      <point x="381" y="382" type="line"/>
      <point x="75" y="382" type="line"/>
    </contour>
  </outline>
</glyph>
<glyph name="J" format="2">
  <advance width="1118"/>
  <unicode hex="004A"/>
  <outline>
    <contour>
      <point x="1093" y="181" type="line" smooth="yes"/>
      <point x="1093" y="145"/>
      <point x="1067" y="82"/>
      <point x="1022" y="34"/>
      <point x="961" y="4"/>
      <point x="926" y="1" type="qcurve"/>
      <point x="926" y="0" type="line"/>
      <point x="190" y="0" type="line"/>
      <point x="190" y="1" type="line"/>
      <point x="155" y="4"/>
      <point x="95" y="34"/>
      <point x="50" y="82"/>
      <point x="24" y="145"/>
      <point x="24" y="181" type="qcurve" smooth="yes"/>
      <point x="24" y="279" type="line"/>
      <point x="730" y="279" type="line"/>
      <point x="730" y="416" type="line"/>
      <point x="24" y="416" type="line"/>
      <point x="24" y="695" type="line"/>
      <point x="1093" y="695" type="line"/>
    </contour>
    <contour>
      <point x="54" y="446" type="line"/>
      <point x="740" y="446" type="line"/>
      <point x="1033" y="665" type="line"/>
      <point x="54" y="665" type="line"/>
    </contour>
    <contour>
      <point x="54" y="181" type="line" smooth="yes"/>
      <point x="54" y="150"/>
      <point x="78" y="95"/>
      <point x="119" y="54"/>
      <point x="174" y="30"/>
      <point x="205" y="30" type="qcurve" smooth="yes"/>
      <point x="236" y="30"/>
      <point x="291" y="54"/>
      <point x="332" y="95"/>
      <point x="356" y="150"/>
      <point x="356" y="181" type="qcurve" smooth="yes"/>
      <point x="356" y="249" type="line"/>
      <point x="54" y="249" type="line"/>
    </contour>
    <contour>
      <point x="812" y="30" type="line"/>
      <point x="775" y="54"/>
      <point x="730" y="133"/>
      <point x="730" y="181" type="qcurve" smooth="yes"/>
      <point x="730" y="249" type="line"/>
      <point x="386" y="249" type="line"/>
      <point x="386" y="181" type="line" smooth="yes"/>
      <point x="386" y="133"/>
      <point x="342" y="54"/>
      <point x="305" y="30" type="qcurve"/>
    </contour>
    <contour>
      <point x="911" y="30" type="qcurve" smooth="yes"/>
      <point x="942" y="30"/>
      <point x="998" y="54"/>
      <point x="1039" y="95"/>
      <point x="1063" y="150"/>
      <point x="1063" y="181" type="qcurve" smooth="yes"/>
      <point x="1063" y="650" type="line"/>
      <point x="760" y="423" type="line"/>
      <point x="760" y="181" type="line" smooth="yes"/>
      <point x="760" y="150"/>
      <point x="784" y="95"/>
      <point x="825" y="54"/>
      <point x="880" y="30"/>
    </contour>
    <contour>
      <point x="73" y="646" type="line"/>
      <point x="977" y="646" type="line"/>
      <point x="941" y="619"/>
      <point x="883" y="575"/>
      <point x="827" y="534"/>
      <point x="769" y="491"/>
      <point x="734" y="465" type="qcurve"/>
      <point x="73" y="465" type="line"/>
    </contour>
    <contour>
      <point x="73" y="181" type="qcurve" smooth="yes"/>
      <point x="73" y="230" type="line"/>
      <point x="337" y="230" type="line"/>
      <point x="337" y="181" type="line" smooth="yes"/>
      <point x="337" y="154"/>
      <point x="316" y="106"/>
      <point x="280" y="70"/>
      <point x="232" y="49"/>
      <point x="205" y="49" type="qcurve" smooth="yes"/>
      <point x="178" y="49"/>
      <point x="130" y="70"/>
      <point x="94" y="106"/>
      <point x="73" y="154"/>
    </contour>
    <contour>
      <point x="355" y="49" type="line"/>
      <point x="405" y="104"/>
      <point x="405" y="181" type="qcurve" smooth="yes"/>
      <point x="405" y="230" type="line"/>
      <point x="711" y="230" type="line"/>
      <point x="711" y="181" type="line" smooth="yes"/>
      <point x="711" y="143"/>
      <point x="737" y="75"/>
      <point x="761" y="49" type="qcurve"/>
    </contour>
    <contour>
      <point x="911" y="49" type="qcurve" smooth="yes"/>
      <point x="884" y="49"/>
      <point x="836" y="70"/>
      <point x="800" y="106"/>
      <point x="779" y="154"/>
      <point x="779" y="181" type="qcurve" smooth="yes"/>
      <point x="779" y="414" type="line"/>
      <point x="1044" y="613" type="line"/>
      <point x="1044" y="181" type="line" smooth="yes"/>
      <point x="1044" y="154"/>
      <point x="1023" y="106"/>
      <point x="987" y="70"/>
      <point x="938" y="49"/>
    </contour>
  </outline>
</glyph>
<glyph name="K" format="2">
  <advance width="1163"/>
  <unicode hex="004B"/>
  <outline>
    <contour>
      <point x="1139" y="695" type="line"/>
      <point x="1139" y="514" type="line" smooth="yes"/>
      <point x="1139" y="458"/>
      <point x="1078" y="369"/>
      <point x="1030" y="348" type="qcurve"/>
      <point x="1078" y="327"/>
      <point x="1139" y="238"/>
      <point x="1139" y="182" type="qcurve" smooth="yes"/>
      <point x="1139" y="0" type="line"/>
      <point x="28" y="0" type="line"/>
      <point x="28" y="695" type="line"/>
    </contour>
    <contour>
      <point x="432" y="665" type="line"/>
      <point x="432" y="363" type="line"/>
      <point x="776" y="363" type="line"/>
      <point x="776" y="665" type="line"/>
    </contour>
    <contour>
      <point x="402" y="30" type="line"/>
      <point x="402" y="665" type="line"/>
      <point x="58" y="665" type="line"/>
      <point x="58" y="30" type="line"/>
    </contour>
    <contour>
      <point x="776" y="30" type="line"/>
      <point x="776" y="333" type="line"/>
      <point x="432" y="333" type="line"/>
      <point x="432" y="30" type="line"/>
    </contour>
    <contour>
      <point x="1109" y="182" type="line" smooth="yes"/>
      <point x="1109" y="213"/>
      <point x="1085" y="268"/>
      <point x="1044" y="309"/>
      <point x="988" y="333"/>
      <point x="957" y="333" type="qcurve" smooth="yes"/>
      <point x="806" y="333" type="line"/>
      <point x="806" y="30" type="line"/>
      <point x="1109" y="30" type="line"/>
    </contour>
    <contour>
      <point x="806" y="665" type="line"/>
      <point x="806" y="363" type="line"/>
      <point x="957" y="363" type="line" smooth="yes"/>
      <point x="988" y="363"/>
      <point x="1044" y="387"/>
      <point x="1085" y="428"/>
      <point x="1109" y="483"/>
      <point x="1109" y="514" type="qcurve" smooth="yes"/>
      <point x="1109" y="665" type="line"/>
    </contour>
    <contour>
      <point x="757" y="646" type="line"/>
      <point x="757" y="382" type="line"/>
      <point x="451" y="382" type="line"/>
      <point x="451" y="646" type="line"/>
    </contour>
    <contour>
      <point x="77" y="49" type="line"/>
      <point x="77" y="646" type="line"/>
      <point x="383" y="646" type="line"/>
      <point x="383" y="49" type="line"/>
    </contour>
    <contour>
      <point x="451" y="49" type="line"/>
      <point x="451" y="314" type="line"/>
      <point x="757" y="314" type="line"/>
      <point x="757" y="49" type="line"/>
    </contour>
    <contour>
      <point x="1090" y="182" type="qcurve" smooth="yes"/>
      <point x="1090" y="49" type="line"/>
      <point x="825" y="49" type="line"/>
      <point x="825" y="314" type="line"/>
      <point x="957" y="314" type="line" smooth="yes"/>
      <point x="984" y="314"/>
      <point x="1033" y="293"/>
      <point x="1069" y="257"/>
      <point x="1090" y="209"/>
    </contour>
    <contour>
      <point x="1090" y="646" type="line"/>
      <point x="1090" y="514" type="line" smooth="yes"/>
      <point x="1090" y="487"/>
      <point x="1069" y="439"/>
      <point x="1033" y="403"/>
      <point x="984" y="382"/>
      <point x="957" y="382" type="qcurve" smooth="yes"/>
      <point x="825" y="382" type="line"/>
      <point x="825" y="646" type="line"/>
    </contour>
  </outline>
</glyph>
<glyph name="L" format="2">
  <advance width="914"/>
  <unicode hex="004C"/>
  <outline>
    <contour>
      <point x="432" y="695" type="line"/>
      <point x="432" y="280" type="line"/>
      <point x="889" y="280" type="line"/>
      <point x="889" y="0" type="line"/>
      <point x="28" y="0" type="line"/>
      <point x="28" y="695" type="line"/>
    </contour>
    <contour>
      <point x="859" y="250" type="line"/>
      <point x="432" y="250" type="line"/>
      <point x="432" y="30" type="line"/>
      <point x="859" y="30" type="line"/>
    </contour>
    <contour>
      <point x="402" y="30" type="line"/>
      <point x="402" y="665" type="line"/>
      <point x="58" y="665" type="line"/>
      <point x="58" y="30" type="line"/>
    </contour>
    <contour>
      <point x="840" y="231" type="line"/>
      <point x="840" y="49" type="line"/>
      <point x="451" y="49" type="line"/>
      <point x="451" y="231" type="line"/>
    </contour>
    <contour>
      <point x="383" y="49" type="line"/>
      <point x="77" y="49" type="line"/>
      <point x="77" y="646" type="line"/>
      <point x="383" y="646" type="line"/>
    </contour>
  </outline>
</glyph>
<glyph name="Q" format="2">
  <advance width="1195"/>
  <unicode hex="0051"/>
  <outline>
    <contour>
      <point x="841" y="695" type="line"/>
      <point x="910" y="692"/>
      <point x="1031" y="635"/>
      <point x="1121" y="541"/>
      <point x="1173" y="417"/>
      <point x="1173" y="347" type="qcurve" smooth="yes"/>
      <point x="1173" y="277"/>
      <point x="1121" y="154"/>
      <point x="1031" y="60"/>
      <point x="910" y="3"/>
      <point x="841" y="0" type="qcurve"/>
      <point x="841" y="-125" type="line"/>
      <point x="354" y="-125" type="line"/>
      <point x="354" y="0" type="line"/>
      <point x="285" y="3"/>
      <point x="163" y="60"/>
      <point x="73" y="154"/>
      <point x="21" y="277"/>
      <point x="21" y="347" type="qcurve" smooth="yes"/>
      <point x="21" y="419"/>
      <point x="76" y="546"/>
      <point x="170" y="640"/>
      <point x="297" y="695"/>
      <point x="369" y="695" type="qcurve" smooth="yes"/>
    </contour>
    <contour>
      <point x="811" y="664" type="line"/>
      <point x="748" y="661"/>
      <point x="638" y="609"/>
      <point x="555" y="523"/>
      <point x="508" y="411"/>
      <point x="508" y="347" type="qcurve" smooth="yes"/>
      <point x="508" y="283"/>
      <point x="555" y="170"/>
      <point x="638" y="85"/>
      <point x="748" y="33"/>
      <point x="811" y="30" type="qcurve"/>
    </contour>
    <contour>
      <point x="51" y="347" type="qcurve" smooth="yes"/>
      <point x="51" y="281"/>
      <point x="101" y="166"/>
      <point x="188" y="80"/>
      <point x="303" y="30"/>
      <point x="369" y="30" type="qcurve" smooth="yes"/>
      <point x="685" y="30" type="line"/>
      <point x="639" y="50"/>
      <point x="563" y="115"/>
      <point x="508" y="197"/>
      <point x="478" y="294"/>
      <point x="478" y="347" type="qcurve" smooth="yes"/>
      <point x="478" y="400"/>
      <point x="508" y="497"/>
      <point x="563" y="579"/>
      <point x="639" y="644"/>
      <point x="685" y="665" type="qcurve"/>
      <point x="369" y="665" type="line" smooth="yes"/>
      <point x="303" y="665"/>
      <point x="188" y="615"/>
      <point x="101" y="528"/>
      <point x="51" y="413"/>
    </contour>
    <contour>
      <point x="811" y="-95" type="line"/>
      <point x="811" y="0" type="line"/>
      <point x="384" y="0" type="line"/>
      <point x="384" y="-95" type="line"/>
    </contour>
    <contour>
      <point x="841" y="30" type="line"/>
      <point x="904" y="33"/>
      <point x="1014" y="85"/>
      <point x="1096" y="170"/>
      <point x="1143" y="283"/>
      <point x="1143" y="347" type="qcurve" smooth="yes"/>
      <point x="1143" y="411"/>
      <point x="1096" y="523"/>
      <point x="1014" y="609"/>
      <point x="904" y="661"/>
      <point x="841" y="664" type="qcurve"/>
    </contour>
    <contour>
      <point x="792" y="51" type="line"/>
      <point x="736" y="57"/>
      <point x="639" y="108"/>
      <point x="568" y="188"/>
      <point x="527" y="290"/>
      <point x="527" y="347" type="qcurve" smooth="yes"/>
      <point x="527" y="404"/>
      <point x="568" y="506"/>
      <point x="639" y="586"/>
      <point x="736" y="637"/>
      <point x="792" y="643" type="qcurve"/>
    </contour>
    <contour>
      <point x="70" y="347" type="qcurve" smooth="yes"/>
      <point x="70" y="409"/>
      <point x="117" y="518"/>
      <point x="198" y="599"/>
      <point x="307" y="646"/>
      <point x="369" y="646" type="qcurve" smooth="yes"/>
      <point x="614" y="646" type="line"/>
      <point x="538" y="596"/>
      <point x="459" y="444"/>
      <point x="459" y="347" type="qcurve" smooth="yes"/>
      <point x="459" y="302"/>
      <point x="482" y="216"/>
      <point x="522" y="139"/>
      <point x="579" y="74"/>
      <point x="613" y="49" type="qcurve"/>
      <point x="369" y="49" type="line" smooth="yes"/>
      <point x="307" y="49"/>
      <point x="198" y="96"/>
      <point x="117" y="177"/>
      <point x="70" y="285"/>
    </contour>
    <contour>
      <point x="403" y="-76" type="line"/>
      <point x="403" y="-19" type="line"/>
      <point x="792" y="-19" type="line"/>
      <point x="792" y="-76" type="line"/>
    </contour>
    <contour>
      <point x="860" y="643" type="line"/>
      <point x="916" y="637"/>
      <point x="1012" y="586"/>
      <point x="1083" y="506"/>
      <point x="1124" y="404"/>
      <point x="1124" y="347" type="qcurve" smooth="yes"/>
      <point x="1124" y="290"/>
      <point x="1083" y="188"/>
      <point x="1012" y="108"/>
      <point x="915" y="57"/>
      <point x="860" y="50" type="qcurve"/>
    </contour>
  </outline>
</glyph>
<glyph name="T" format="2">
  <advance width="1112"/>
  <unicode hex="0054"/>
  <outline>
    <contour>
      <point x="1092" y="695" type="line"/>
      <point x="1092" y="416" type="line"/>
      <point x="759" y="416" type="line"/>
      <point x="759" y="0" type="line"/>
      <point x="355" y="0" type="line"/>
      <point x="355" y="416" type="line"/>
      <point x="23" y="416" type="line"/>
      <point x="23" y="695" type="line"/>
    </contour>
    <contour>
      <point x="53" y="446" type="line"/>
      <point x="542" y="446" type="line"/>
      <point x="542" y="665" type="line"/>
      <point x="53" y="665" type="line"/>
    </contour>
    <contour>
      <point x="729" y="30" type="line"/>
      <point x="729" y="416" type="line"/>
      <point x="385" y="416" type="line"/>
      <point x="385" y="30" type="line"/>
    </contour>
    <contour>
      <point x="1062" y="665" type="line"/>
      <point x="572" y="665" type="line"/>
      <point x="572" y="446" type="line"/>
      <point x="1062" y="446" type="line"/>
    </contour>
    <contour>
      <point x="72" y="465" type="line"/>
      <point x="72" y="646" type="line"/>
      <point x="523" y="646" type="line"/>
      <point x="523" y="465" type="line"/>
    </contour>
    <contour>
      <point x="710" y="49" type="line"/>
      <point x="404" y="49" type="line"/>
      <point x="404" y="397" type="line"/>
      <point x="710" y="397" type="line"/>
    </contour>
    <contour>
      <point x="1043" y="465" type="line"/>
      <point x="591" y="465" type="line"/>
      <point x="591" y="646" type="line"/>
      <point x="1043" y="646" type="line"/>
    </contour>
  </outline>
</glyph>
<glyph name="bracketleft" format="2">
  <advance width="777"/>
  <unicode hex="005B"/>
  <outline>
    <contour>
      <point x="432" y="-23" type="line"/>
      <point x="748" y="-23" type="line"/>
      <point x="748" y="-196" type="line"/>
      <point x="28" y="-196" type="line"/>
      <point x="28" y="929" type="line"/>
      <point x="748" y="929" type="line"/>
      <point x="748" y="756" type="line"/>
      <point x="432" y="756" type="line"/>
    </contour>
    <contour>
      <point x="402" y="-166" type="line"/>
      <point x="402" y="899" type="line"/>
      <point x="58" y="899" type="line"/>
      <point x="58" y="-166" type="line"/>
    </contour>
    <contour>
      <point x="383" y="-147" type="line"/>
      <point x="77" y="-147" type="line"/>
      <point x="77" y="880" type="line"/>
      <point x="383" y="880" type="line"/>
    </contour>
    <contour>
      <point x="718" y="899" type="line"/>
      <point x="432" y="899" type="line"/>
      <point x="432" y="786" type="line"/>
      <point x="718" y="786" type="line"/>
    </contour>
    <contour>
      <point x="718" y="-53" type="line"/>
      <point x="432" y="-53" type="line"/>
      <point x="432" y="-166" type="line"/>
      <point x="718" y="-166" type="line"/>
    </contour>
    <contour>
      <point x="699" y="-72" type="line"/>
      <point x="699" y="-147" type="line"/>
      <point x="451" y="-147" type="line"/>
      <point x="451" y="-72" type="line"/>
    </contour>
    <contour>
      <point x="451" y="805" type="line"/>
      <point x="451" y="880" type="line"/>
      <point x="699" y="880" type="line"/>
      <point x="699" y="805" type="line"/>
    </contour>
  </outline>
</glyph>
<glyph name="backslash" format="2">
  <advance width="714"/>
  <unicode hex="005C"/>
  <outline>
    <contour>
      <point x="502" y="382" type="line"/>
      <point x="196" y="382" type="line"/>
      <point x="95" y="646" type="line"/>
      <point x="401" y="646" type="line"/>
    </contour>
    <contour>
      <point x="222" y="314" type="line"/>
      <point x="528" y="314" type="line"/>
      <point x="630" y="49" type="line"/>
      <point x="324" y="49" type="line"/>
    </contour>
    <contour>
      <point x="68" y="665" type="line"/>
      <point x="184" y="363" type="line"/>
      <point x="528" y="363" type="line"/>
      <point x="412" y="665" type="line"/>
    </contour>
    <contour>
      <point x="656" y="30" type="line"/>
      <point x="540" y="333" type="line"/>
      <point x="196" y="333" type="line"/>
      <point x="312" y="30" type="line"/>
    </contour>
    <contour>
      <point x="697" y="0" type="line"/>
      <point x="293" y="0" type="line"/>
      <point x="26" y="695" type="line"/>
      <point x="431" y="695" type="line"/>
    </contour>
  </outline>
</glyph>
<glyph name="bracketright" format="2">
  <advance width="777"/>
  <unicode hex="005D"/>
  <outline>
    <contour>
      <point x="77" y="805" type="line"/>
      <point x="77" y="880" type="line"/>
      <point x="325" y="880" type="line"/>
      <point x="325" y="805" type="line"/>
    </contour>
    <contour>
      <point x="325" y="-72" type="line"/>
      <point x="325" y="-147" type="line"/>
      <point x="77" y="-147" type="line"/>
      <point x="77" y="-72" type="line"/>
    </contour>
    <contour>
      <point x="58" y="-166" type="line"/>
      <point x="344" y="-166" type="line"/>
      <point x="344" y="-53" type="line"/>
      <point x="58" y="-53" type="line"/>
    </contour>
    <contour>
      <point x="58" y="786" type="line"/>
      <point x="344" y="786" type="line"/>
      <point x="344" y="899" type="line"/>
      <point x="58" y="899" type="line"/>
    </contour>
    <contour>
      <point x="393" y="880" type="line"/>
      <point x="699" y="880" type="line"/>
      <point x="699" y="-147" type="line"/>
      <point x="393" y="-147" type="line"/>
    </contour>
    <contour>
      <point x="718" y="-166" type="line"/>
      <point x="718" y="899" type="line"/>
      <point x="374" y="899" type="line"/>
      <point x="374" y="-166" type="line"/>
    </contour>
    <contour>
      <point x="344" y="756" type="line"/>
      <point x="28" y="756" type="line"/>
      <point x="28" y="929" type="line"/>
      <point x="748" y="929" type="line"/>
      <point x="748" y="-196" type="line"/>
      <point x="28" y="-196" type="line"/>
      <point x="28" y="-23" type="line"/>
      <point x="344" y="-23" type="line"/>
    </contour>
  </outline>
</glyph>
<glyph name="asciicircum" format="2">
  <advance width="668"/>
  <unicode hex="005E"/>
  <outline>
    <contour>
      <point x="384" y="648" type="line"/>
      <point x="384" y="649" type="line"/>
      <point x="385" y="649" type="line"/>
      <point x="591" y="402" type="line"/>
      <point x="515" y="344" type="line"/>
      <point x="337" y="547" type="line"/>
      <point x="158" y="344" type="line"/>
      <point x="82" y="402" type="line"/>
      <point x="288" y="649" type="line"/>
      <point x="289" y="649" type="line"/>
      <point x="289" y="648" type="line"/>
    </contour>
    <contour>
      <point x="339" y="514" type="line"/>
      <point x="511" y="320" type="line"/>
      <point x="618" y="402" type="line"/>
      <point x="394" y="665" type="line"/>
      <point x="279" y="665" type="line"/>
      <point x="55" y="402" type="line"/>
      <point x="162" y="320" type="line"/>
    </contour>
    <contour>
      <point x="403" y="696" type="line"/>
      <point x="658" y="398" type="line"/>
      <point x="512" y="278" type="line"/>
      <point x="337" y="471" type="line"/>
      <point x="161" y="278" type="line"/>
      <point x="15" y="398" type="line"/>
      <point x="269" y="696" type="line"/>
    </contour>
  </outline>
</glyph>
<glyph name="grave" format="2">
  <advance width="1185"/>
  <unicode hex="0060"/>
  <outline>
    <contour>
      <point x="784" y="724" type="line"/>
      <point x="447" y="724" type="line"/>
      <point x="391" y="986" type="line"/>
      <point x="728" y="986" type="line"/>
    </contour>
    <contour>
      <point x="747" y="754" type="line"/>
      <point x="705" y="953" type="line"/>
      <point x="428" y="953" type="line"/>
      <point x="470" y="754" type="line"/>
    </contour>
    <contour>
      <point x="451" y="934" type="line"/>
      <point x="690" y="934" type="line"/>
      <point x="724" y="773" type="line"/>
      <point x="485" y="773" type="line"/>
    </contour>
  </outline>
</glyph>
<glyph name="a" format="2">
  <advance width="1209"/>
  <unicode hex="0061"/>
  <outline>
    <contour>
      <point x="972" y="695" type="line"/>
      <point x="1014" y="692"/>
      <point x="1087" y="657"/>
      <point x="1142" y="602"/>
      <point x="1176" y="529"/>
      <point x="1179" y="488" type="qcurve"/>
      <point x="1180" y="488" type="line"/>
      <point x="1180" y="0" type="line"/>
      <point x="734" y="0" type="line"/>
      <point x="734" y="104" type="line"/>
      <point x="473" y="104" type="line"/>
      <point x="473" y="0" type="line"/>
      <point x="28" y="0" type="line"/>
      <point x="28" y="488" type="line"/>
      <point x="31" y="529"/>
      <point x="66" y="602"/>
      <point x="121" y="657"/>
      <point x="194" y="692"/>
      <point x="236" y="695" type="qcurve"/>
    </contour>
    <contour>
      <point x="1150" y="473" type="qcurve" smooth="yes"/>
      <point x="1150" y="513"/>
      <point x="1119" y="583"/>
      <point x="1067" y="635"/>
      <point x="997" y="665"/>
      <point x="957" y="665" type="qcurve" smooth="yes"/>
      <point x="917" y="665"/>
      <point x="847" y="635"/>
      <point x="794" y="583"/>
      <point x="764" y="513"/>
      <point x="764" y="473" type="qcurve" smooth="yes"/>
      <point x="764" y="433"/>
      <point x="794" y="363"/>
      <point x="847" y="310"/>
      <point x="917" y="280"/>
      <point x="957" y="280" type="qcurve" smooth="yes"/>
      <point x="997" y="280"/>
      <point x="1067" y="310"/>
      <point x="1119" y="363"/>
      <point x="1150" y="433"/>
    </contour>
    <contour>
      <point x="473" y="458" type="line"/>
      <point x="473" y="321" type="line"/>
      <point x="734" y="321" type="line"/>
      <point x="734" y="458" type="line"/>
    </contour>
    <contour>
      <point x="362" y="665" type="line"/>
      <point x="410" y="638"/>
      <point x="469" y="545"/>
      <point x="473" y="488" type="qcurve"/>
      <point x="734" y="488" type="line"/>
      <point x="735" y="488" type="line"/>
      <point x="739" y="545"/>
      <point x="798" y="638"/>
      <point x="846" y="665" type="qcurve"/>
    </contour>
    <contour>
      <point x="251" y="665" type="qcurve" smooth="yes"/>
      <point x="211" y="665"/>
      <point x="141" y="635"/>
      <point x="88" y="583"/>
      <point x="58" y="513"/>
      <point x="58" y="473" type="qcurve" smooth="yes"/>
      <point x="58" y="433"/>
      <point x="88" y="363"/>
      <point x="141" y="310"/>
      <point x="211" y="280"/>
      <point x="251" y="280" type="qcurve" smooth="yes"/>
      <point x="291" y="280"/>
      <point x="361" y="310"/>
      <point x="413" y="363"/>
      <point x="444" y="433"/>
      <point x="444" y="473" type="qcurve" smooth="yes"/>
      <point x="444" y="513"/>
      <point x="413" y="583"/>
      <point x="361" y="635"/>
      <point x="291" y="665"/>
    </contour>
    <contour>
      <point x="444" y="361" type="line"/>
      <point x="415" y="311"/>
      <point x="313" y="250"/>
      <point x="251" y="250" type="qcurve" smooth="yes"/>
      <point x="188" y="250"/>
      <point x="87" y="311"/>
      <point x="58" y="361" type="qcurve"/>
      <point x="58" y="30" type="line"/>
      <point x="444" y="30" type="line"/>
    </contour>
    <contour>
      <point x="734" y="134" type="line"/>
      <point x="734" y="291" type="line"/>
      <point x="473" y="291" type="line"/>
      <point x="473" y="134" type="line"/>
    </contour>
    <contour>
      <point x="1150" y="361" type="line"/>
      <point x="1121" y="311"/>
      <point x="1019" y="250"/>
      <point x="957" y="250" type="qcurve" smooth="yes"/>
      <point x="895" y="250"/>
      <point x="793" y="311"/>
      <point x="764" y="361" type="qcurve"/>
      <point x="764" y="30" type="line"/>
      <point x="1150" y="30" type="line"/>
    </contour>
    <contour>
      <point x="1131" y="473" type="qcurve" smooth="yes"/>
      <point x="1131" y="437"/>
      <point x="1104" y="374"/>
      <point x="1056" y="326"/>
      <point x="993" y="299"/>
      <point x="957" y="299" type="qcurve" smooth="yes"/>
      <point x="921" y="299"/>
      <point x="858" y="326"/>
      <point x="810" y="374"/>
      <point x="783" y="437"/>
      <point x="783" y="473" type="qcurve" smooth="yes"/>
      <point x="783" y="509"/>
      <point x="810" y="572"/>
      <point x="858" y="619"/>
      <point x="921" y="646"/>
      <point x="957" y="646" type="qcurve" smooth="yes"/>
      <point x="993" y="646"/>
      <point x="1056" y="619"/>
      <point x="1104" y="572"/>
      <point x="1131" y="509"/>
    </contour>
    <contour>
      <point x="715" y="439" type="line"/>
      <point x="715" y="340" type="line"/>
      <point x="492" y="340" type="line"/>
      <point x="492" y="439" type="line"/>
    </contour>
    <contour>
      <point x="789" y="646" type="line"/>
      <point x="760" y="619"/>
      <point x="724" y="548"/>
      <point x="718" y="507" type="qcurve"/>
      <point x="490" y="507" type="line"/>
      <point x="479" y="590"/>
      <point x="419" y="646" type="qcurve"/>
    </contour>
    <contour>
      <point x="251" y="646" type="qcurve" smooth="yes"/>
      <point x="287" y="646"/>
      <point x="350" y="619"/>
      <point x="398" y="572"/>
      <point x="425" y="509"/>
      <point x="425" y="473" type="qcurve" smooth="yes"/>
      <point x="425" y="437"/>
      <point x="398" y="374"/>
      <point x="350" y="326"/>
      <point x="287" y="299"/>
      <point x="251" y="299" type="qcurve" smooth="yes"/>
      <point x="215" y="299"/>
      <point x="152" y="326"/>
      <point x="104" y="374"/>
      <point x="77" y="437"/>
      <point x="77" y="473" type="qcurve" smooth="yes"/>
      <point x="77" y="509"/>
      <point x="104" y="572"/>
      <point x="152" y="619"/>
      <point x="215" y="646"/>
    </contour>
    <contour>
      <point x="425" y="49" type="line"/>
      <point x="77" y="49" type="line"/>
      <point x="77" y="305" type="line"/>
      <point x="110" y="270"/>
      <point x="200" y="231"/>
      <point x="251" y="231" type="qcurve" smooth="yes"/>
      <point x="302" y="231"/>
      <point x="392" y="270"/>
      <point x="425" y="305" type="qcurve"/>
    </contour>
    <contour>
      <point x="492" y="153" type="line"/>
      <point x="492" y="272" type="line"/>
      <point x="715" y="272" type="line"/>
      <point x="715" y="153" type="line"/>
    </contour>
    <contour>
      <point x="1131" y="49" type="line"/>
      <point x="783" y="49" type="line"/>
      <point x="783" y="305" type="line"/>
      <point x="816" y="270"/>
      <point x="904" y="231"/>
      <point x="957" y="231" type="qcurve" smooth="yes"/>
      <point x="1008" y="231"/>
      <point x="1098" y="270"/>
      <point x="1131" y="305" type="qcurve"/>
    </contour>
  </outline>
</glyph>
<glyph name="b" format="2">
  <advance width="1165"/>
  <unicode hex="0062"/>
  <outline>
    <contour>
      <point x="1143" y="513" type="qcurve" smooth="yes"/>
      <point x="1143" y="457"/>
      <point x="1082" y="368"/>
      <point x="1034" y="347" type="qcurve"/>
      <point x="1082" y="326"/>
      <point x="1143" y="237"/>
      <point x="1143" y="181" type="qcurve" smooth="yes"/>
      <point x="1143" y="145"/>
      <point x="1117" y="82"/>
      <point x="1072" y="34"/>
      <point x="1012" y="3"/>
      <point x="977" y="0" type="qcurve"/>
      <point x="33" y="0" type="line"/>
      <point x="33" y="695" type="line"/>
      <point x="977" y="696" type="line"/>
      <point x="1012" y="693"/>
      <point x="1072" y="662"/>
      <point x="1117" y="612"/>
      <point x="1143" y="549"/>
    </contour>
    <contour>
      <point x="87" y="665" type="line"/>
      <point x="428" y="362" type="line"/>
      <point x="863" y="362" type="line"/>
      <point x="825" y="387"/>
      <point x="781" y="465"/>
      <point x="781" y="513" type="qcurve" smooth="yes"/>
      <point x="781" y="561"/>
      <point x="825" y="640"/>
      <point x="863" y="665" type="qcurve"/>
    </contour>
    <contour>
      <point x="407" y="30" type="line"/>
      <point x="407" y="340" type="line"/>
      <point x="63" y="646" type="line"/>
      <point x="63" y="30" type="line"/>
    </contour>
    <contour>
      <point x="863" y="30" type="line"/>
      <point x="825" y="54"/>
      <point x="781" y="133"/>
      <point x="781" y="181" type="qcurve" smooth="yes"/>
      <point x="781" y="229"/>
      <point x="825" y="308"/>
      <point x="863" y="332" type="qcurve"/>
      <point x="437" y="332" type="line"/>
      <point x="437" y="30" type="line"/>
    </contour>
    <contour>
      <point x="1113" y="181" type="qcurve" smooth="yes"/>
      <point x="1113" y="212"/>
      <point x="1089" y="267"/>
      <point x="1049" y="308"/>
      <point x="993" y="332"/>
      <point x="962" y="332" type="qcurve" smooth="yes"/>
      <point x="931" y="332"/>
      <point x="876" y="308"/>
      <point x="835" y="267"/>
      <point x="811" y="212"/>
      <point x="811" y="181" type="qcurve" smooth="yes"/>
      <point x="811" y="149"/>
      <point x="835" y="94"/>
      <point x="876" y="54"/>
      <point x="931" y="30"/>
      <point x="962" y="30" type="qcurve" smooth="yes"/>
      <point x="993" y="30"/>
      <point x="1049" y="54"/>
      <point x="1089" y="94"/>
      <point x="1113" y="149"/>
    </contour>
    <contour>
      <point x="962" y="362" type="qcurve" smooth="yes"/>
      <point x="993" y="362"/>
      <point x="1049" y="386"/>
      <point x="1089" y="427"/>
      <point x="1113" y="482"/>
      <point x="1113" y="513" type="qcurve" smooth="yes"/>
      <point x="1113" y="544"/>
      <point x="1089" y="600"/>
      <point x="1049" y="641"/>
      <point x="993" y="665"/>
      <point x="962" y="665" type="qcurve" smooth="yes"/>
      <point x="931" y="665"/>
      <point x="876" y="641"/>
      <point x="835" y="600"/>
      <point x="811" y="544"/>
      <point x="811" y="513" type="qcurve" smooth="yes"/>
      <point x="811" y="482"/>
      <point x="835" y="427"/>
      <point x="876" y="386"/>
      <point x="931" y="362"/>
    </contour>
    <contour>
      <point x="813" y="646" type="line"/>
      <point x="762" y="590"/>
      <point x="762" y="513" type="qcurve" smooth="yes"/>
      <point x="762" y="475"/>
      <point x="788" y="408"/>
      <point x="812" y="381" type="qcurve"/>
      <point x="436" y="381" type="line"/>
      <point x="360" y="449"/>
      <point x="211" y="579"/>
      <point x="136" y="646" type="qcurve"/>
    </contour>
    <contour>
      <point x="82" y="49" type="line"/>
      <point x="82" y="603" type="line"/>
      <point x="124" y="565"/>
      <point x="199" y="500"/>
      <point x="272" y="435"/>
      <point x="346" y="369"/>
      <point x="388" y="332" type="qcurve"/>
      <point x="388" y="49" type="line"/>
    </contour>
    <contour>
      <point x="456" y="49" type="line"/>
      <point x="456" y="313" type="line"/>
      <point x="812" y="313" type="line"/>
      <point x="789" y="287"/>
      <point x="762" y="218"/>
      <point x="762" y="181" type="qcurve" smooth="yes"/>
      <point x="762" y="144"/>
      <point x="789" y="75"/>
      <point x="812" y="49" type="qcurve"/>
    </contour>
    <contour>
      <point x="1094" y="181" type="qcurve" smooth="yes"/>
      <point x="1094" y="154"/>
      <point x="1073" y="106"/>
      <point x="1037" y="70"/>
      <point x="989" y="49"/>
      <point x="962" y="49" type="qcurve" smooth="yes"/>
      <point x="935" y="49"/>
      <point x="887" y="70"/>
      <point x="851" y="106"/>
      <point x="830" y="154"/>
      <point x="830" y="181" type="qcurve" smooth="yes"/>
      <point x="830" y="208"/>
      <point x="851" y="256"/>
      <point x="887" y="292"/>
      <point x="935" y="313"/>
      <point x="962" y="313" type="qcurve" smooth="yes"/>
      <point x="989" y="313"/>
      <point x="1037" y="292"/>
      <point x="1073" y="256"/>
      <point x="1094" y="208"/>
    </contour>
    <contour>
      <point x="962" y="381" type="qcurve" smooth="yes"/>
      <point x="935" y="381"/>
      <point x="887" y="402"/>
      <point x="851" y="438"/>
      <point x="830" y="486"/>
      <point x="830" y="513" type="qcurve" smooth="yes"/>
      <point x="830" y="540"/>
      <point x="851" y="589"/>
      <point x="887" y="625"/>
      <point x="935" y="646"/>
      <point x="962" y="646" type="qcurve" smooth="yes"/>
      <point x="989" y="646"/>
      <point x="1037" y="625"/>
      <point x="1073" y="589"/>
      <point x="1094" y="540"/>
      <point x="1094" y="513" type="qcurve" smooth="yes"/>
      <point x="1094" y="486"/>
      <point x="1073" y="438"/>
      <point x="1037" y="402"/>
      <point x="989" y="381"/>
    </contour>
  </outline>
</glyph>
<glyph name="e" format="2">
  <advance width="1078"/>
  <unicode hex="0065"/>
  <outline>
    <contour>
      <point x="1054" y="695" type="line"/>
      <point x="1054" y="416" type="line"/>
      <point x="430" y="416" type="line"/>
      <point x="430" y="363" type="line"/>
      <point x="846" y="363" type="line"/>
      <point x="846" y="208" type="line"/>
      <point x="430" y="208" type="line"/>
      <point x="430" y="155" type="line"/>
      <point x="1054" y="155" type="line"/>
      <point x="1054" y="0" type="line"/>
      <point x="26" y="0" type="line"/>
      <point x="26" y="695" type="line"/>
    </contour>
    <contour>
      <point x="1024" y="125" type="line"/>
      <point x="430" y="125" type="line"/>
      <point x="430" y="30" type="line"/>
      <point x="1024" y="30" type="line"/>
    </contour>
    <contour>
      <point x="400" y="208" type="line"/>
      <point x="56" y="208" type="line"/>
      <point x="56" y="30" type="line"/>
      <point x="400" y="30" type="line"/>
    </contour>
    <contour>
      <point x="816" y="333" type="line"/>
      <point x="400" y="333" type="line"/>
      <point x="400" y="665" type="line"/>
      <point x="56" y="665" type="line"/>
      <point x="56" y="238" type="line"/>
      <point x="816" y="238" type="line"/>
    </contour>
    <contour>
      <point x="1024" y="665" type="line"/>
      <point x="430" y="665" type="line"/>
      <point x="430" y="446" type="line"/>
      <point x="1024" y="446" type="line"/>
    </contour>
    <contour>
      <point x="1005" y="106" type="line"/>
      <point x="1005" y="49" type="line"/>
      <point x="449" y="49" type="line"/>
      <point x="449" y="106" type="line"/>
    </contour>
    <contour>
      <point x="381" y="49" type="line"/>
      <point x="75" y="49" type="line"/>
      <point x="75" y="189" type="line"/>
      <point x="381" y="189" type="line"/>
    </contour>
    <contour>
      <point x="797" y="314" type="line"/>
      <point x="797" y="257" type="line"/>
      <point x="75" y="257" type="line"/>
      <point x="75" y="646" type="line"/>
      <point x="381" y="646" type="line"/>
      <point x="381" y="314" type="line"/>
    </contour>
    <contour>
      <point x="1005" y="646" type="line"/>
      <point x="1005" y="465" type="line"/>
      <point x="449" y="465" type="line"/>
      <point x="449" y="646" type="line"/>
    </contour>
  </outline>
</glyph>
<glyph name="g" format="2">
  <advance width="1189"/>
  <unicode hex="0067"/>
  <outline>
    <contour>
      <point x="424" y="279" type="line"/>
      <point x="757" y="279" type="line"/>
      <point x="757" y="363" type="line"/>
      <point x="1161" y="363" type="line"/>
      <point x="1161" y="0" type="line"/>
      <point x="367" y="0" type="line"/>
      <point x="298" y="1"/>
      <point x="172" y="54"/>
      <point x="75" y="147"/>
      <point x="18" y="273"/>
      <point x="18" y="347" type="qcurve" smooth="yes"/>
      <point x="18" y="419"/>
      <point x="73" y="545"/>
      <point x="168" y="640"/>
      <point x="295" y="695"/>
      <point x="367" y="695" type="qcurve" smooth="yes"/>
      <point x="825" y="695" type="line" smooth="yes"/>
      <point x="884" y="695"/>
      <point x="993" y="657"/>
      <point x="1082" y="588"/>
      <point x="1146" y="492"/>
      <point x="1161" y="434" type="qcurve" smooth="yes"/>
      <point x="1166" y="416" type="line"/>
      <point x="424" y="416" type="line"/>
    </contour>
    <contour>
      <point x="424" y="665" type="line"/>
      <point x="424" y="446" type="line"/>
      <point x="1126" y="446" type="line"/>
      <point x="1110" y="495"/>
      <point x="1051" y="575"/>
      <point x="972" y="633"/>
      <point x="877" y="665"/>
      <point x="825" y="665" type="qcurve" smooth="yes"/>
    </contour>
    <contour>
      <point x="367" y="665" type="line" smooth="yes"/>
      <point x="301" y="665"/>
      <point x="186" y="615"/>
      <point x="100" y="529"/>
      <point x="50" y="414"/>
      <point x="50" y="348" type="qcurve" smooth="yes"/>
      <point x="50" y="330"/>
      <point x="54" y="296"/>
      <point x="57" y="279" type="qcurve"/>
      <point x="394" y="279" type="line"/>
      <point x="394" y="665" type="line"/>
    </contour>
    <contour>
      <point x="394" y="30" type="line"/>
      <point x="394" y="249" type="line"/>
      <point x="65" y="249" type="line"/>
      <point x="81" y="201"/>
      <point x="140" y="121"/>
      <point x="219" y="63"/>
      <point x="314" y="30"/>
      <point x="367" y="30" type="qcurve" smooth="yes"/>
    </contour>
    <contour>
      <point x="787" y="30" type="line"/>
      <point x="1131" y="30" type="line"/>
      <point x="1131" y="333" type="line"/>
      <point x="787" y="333" type="line"/>
    </contour>
    <contour>
      <point x="424" y="249" type="line"/>
      <point x="424" y="30" type="line"/>
      <point x="757" y="30" type="line"/>
      <point x="757" y="249" type="line"/>
    </contour>
    <contour>
      <point x="825" y="646" type="line" smooth="yes"/>
      <point x="870" y="646"/>
      <point x="954" y="620"/>
      <point x="1025" y="572"/>
      <point x="1081" y="505"/>
      <point x="1099" y="465" type="qcurve"/>
      <point x="443" y="465" type="line"/>
      <point x="443" y="646" type="line"/>
    </contour>
    <contour>
      <point x="367" y="646" type="qcurve" smooth="yes"/>
      <point x="375" y="646" type="line"/>
      <point x="375" y="298" type="line"/>
      <point x="73" y="298" type="line"/>
      <point x="71" y="312"/>
      <point x="69" y="334"/>
      <point x="69" y="348" type="qcurve" smooth="yes"/>
      <point x="69" y="410"/>
      <point x="116" y="518"/>
      <point x="197" y="599"/>
      <point x="305" y="646"/>
    </contour>
    <contour>
      <point x="367" y="49" type="line" smooth="yes"/>
      <point x="321" y="49"/>
      <point x="236" y="75"/>
      <point x="164" y="123"/>
      <point x="109" y="189"/>
      <point x="92" y="230" type="qcurve"/>
      <point x="375" y="230" type="line"/>
      <point x="375" y="49" type="line"/>
    </contour>
    <contour>
      <point x="806" y="314" type="line"/>
      <point x="1112" y="314" type="line"/>
      <point x="1112" y="49" type="line"/>
      <point x="806" y="49" type="line"/>
    </contour>
    <contour>
      <point x="738" y="230" type="line"/>
      <point x="738" y="49" type="line"/>
      <point x="443" y="49" type="line"/>
      <point x="443" y="230" type="line"/>
    </contour>
  </outline>
</glyph>
<glyph name="h" format="2">
  <advance width="1209"/>
  <unicode hex="0068"/>
  <outline>
    <contour>
      <point x="779" y="362" type="line"/>
      <point x="779" y="695" type="line"/>
      <point x="1183" y="695" type="line"/>
      <point x="1183" y="0" type="line"/>
      <point x="779" y="0" type="line"/>
      <point x="779" y="208" type="line"/>
      <point x="435" y="208" type="line"/>
      <point x="435" y="0" type="line"/>
      <point x="31" y="0" type="line"/>
      <point x="31" y="695" type="line"/>
      <point x="435" y="695" type="line"/>
      <point x="435" y="362" type="line"/>
    </contour>
    <contour>
      <point x="61" y="665" type="line"/>
      <point x="61" y="238" type="line"/>
      <point x="405" y="238" type="line"/>
      <point x="405" y="665" type="line"/>
    </contour>
    <contour>
      <point x="405" y="30" type="line"/>
      <point x="405" y="208" type="line"/>
      <point x="61" y="208" type="line"/>
      <point x="61" y="30" type="line"/>
    </contour>
    <contour>
      <point x="435" y="238" type="line"/>
      <point x="779" y="238" type="line"/>
      <point x="779" y="332" type="line"/>
      <point x="435" y="332" type="line"/>
    </contour>
    <contour>
      <point x="809" y="665" type="line"/>
      <point x="809" y="30" type="line"/>
      <point x="1153" y="30" type="line"/>
      <point x="1153" y="665" type="line"/>
    </contour>
    <contour>
      <point x="80" y="646" type="line"/>
      <point x="386" y="646" type="line"/>
      <point x="386" y="257" type="line"/>
      <point x="80" y="257" type="line"/>
    </contour>
    <contour>
      <point x="386" y="49" type="line"/>
      <point x="80" y="49" type="line"/>
      <point x="80" y="189" type="line"/>
      <point x="386" y="189" type="line"/>
    </contour>
    <contour>
      <point x="454" y="257" type="line"/>
      <point x="454" y="313" type="line"/>
      <point x="760" y="313" type="line"/>
      <point x="760" y="257" type="line"/>
    </contour>
    <contour>
      <point x="828" y="646" type="line"/>
      <point x="1134" y="646" type="line"/>
      <point x="1134" y="49" type="line"/>
      <point x="828" y="49" type="line"/>
    </contour>
  </outline>
</glyph>
<glyph name="m" format="2">
  <advance width="1250"/>
  <unicode hex="006D"/>
  <outline>
    <contour>
      <point x="1221" y="0" type="line"/>
      <point x="858" y="0" type="line"/>
      <point x="858" y="260" type="line"/>
      <point x="624" y="-8" type="line"/>
      <point x="390" y="260" type="line"/>
      <point x="390" y="0" type="line"/>
      <point x="27" y="0" type="line"/>
      <point x="27" y="695" type="line"/>
      <point x="381" y="695" type="line"/>
      <point x="624" y="417" type="line"/>
      <point x="867" y="695" type="line"/>
      <point x="1221" y="695" type="line"/>
    </contour>
    <contour>
      <point x="360" y="30" type="line"/>
      <point x="360" y="285" type="line"/>
      <point x="57" y="285" type="line"/>
      <point x="57" y="30" type="line"/>
    </contour>
    <contour>
      <point x="609" y="55" type="line"/>
      <point x="609" y="389" type="line"/>
      <point x="368" y="665" type="line"/>
      <point x="57" y="665" type="line"/>
      <point x="57" y="315" type="line"/>
      <point x="381" y="315" type="line"/>
    </contour>
    <contour>
      <point x="639" y="55" type="line"/>
      <point x="867" y="315" type="line"/>
      <point x="1191" y="315" type="line"/>
      <point x="1191" y="665" type="line"/>
      <point x="880" y="665" type="line"/>
      <point x="639" y="389" type="line"/>
    </contour>
    <contour>
      <point x="1191" y="285" type="line"/>
      <point x="888" y="285" type="line"/>
      <point x="888" y="30" type="line"/>
      <point x="1191" y="30" type="line"/>
    </contour>
    <contour>
      <point x="76" y="49" type="line"/>
      <point x="76" y="266" type="line"/>
      <point x="341" y="266" type="line"/>
      <point x="341" y="49" type="line"/>
    </contour>
    <contour>
      <point x="390" y="334" type="line"/>
      <point x="76" y="334" type="line"/>
      <point x="76" y="646" type="line"/>
      <point x="360" y="646" type="line"/>
      <point x="419" y="579"/>
      <point x="532" y="450"/>
      <point x="590" y="383" type="qcurve"/>
      <point x="590" y="105" type="line"/>
    </contour>
    <contour>
      <point x="658" y="383" type="line"/>
      <point x="717" y="451"/>
      <point x="829" y="578"/>
      <point x="888" y="646" type="qcurve"/>
      <point x="1172" y="646" type="line"/>
      <point x="1172" y="334" type="line"/>
      <point x="858" y="334" type="line"/>
      <point x="658" y="105" type="line"/>
    </contour>
    <contour>
      <point x="1172" y="49" type="line"/>
      <point x="907" y="49" type="line"/>
      <point x="907" y="266" type="line"/>
      <point x="1172" y="266" type="line"/>
    </contour>
  </outline>
</glyph>
<glyph name="n" format="2">
  <advance width="1208"/>
  <unicode hex="006E"/>
  <outline>
    <contour>
      <point x="777" y="695" type="line"/>
      <point x="1181" y="695" type="line"/>
      <point x="1181" y="0" type="line"/>
      <point x="787" y="0" type="line"/>
      <point x="433" y="314" type="line"/>
      <point x="433" y="0" type="line"/>
      <point x="29" y="0" type="line"/>
      <point x="29" y="695" type="line"/>
      <point x="424" y="695" type="line"/>
      <point x="777" y="380" type="line"/>
    </contour>
    <contour>
      <point x="403" y="340" type="line"/>
      <point x="59" y="646" type="line"/>
      <point x="59" y="30" type="line"/>
      <point x="403" y="30" type="line"/>
    </contour>
    <contour>
      <point x="1152" y="30" type="line"/>
      <point x="1152" y="332" type="line"/>
      <point x="787" y="332" type="line"/>
      <point x="413" y="665" type="line"/>
      <point x="84" y="665" type="line"/>
      <point x="798" y="30" type="line"/>
    </contour>
    <contour>
      <point x="807" y="665" type="line"/>
      <point x="807" y="362" type="line"/>
      <point x="1152" y="362" type="line"/>
      <point x="1152" y="665" type="line"/>
    </contour>
    <contour>
      <point x="384" y="49" type="line"/>
      <point x="78" y="49" type="line"/>
      <point x="78" y="603" type="line"/>
      <point x="120" y="565"/>
      <point x="195" y="500"/>
      <point x="268" y="435"/>
      <point x="342" y="369"/>
      <point x="384" y="332" type="qcurve"/>
    </contour>
    <contour>
      <point x="805" y="49" type="line"/>
      <point x="635" y="200"/>
      <point x="304" y="496"/>
      <point x="134" y="646" type="qcurve"/>
      <point x="406" y="646" type="line"/>
      <point x="780" y="313" type="line"/>
      <point x="1133" y="313" type="line"/>
      <point x="1133" y="49" type="line"/>
    </contour>
    <contour>
      <point x="1133" y="646" type="line"/>
      <point x="1133" y="381" type="line"/>
      <point x="826" y="381" type="line"/>
      <point x="826" y="646" type="line"/>
    </contour>
  </outline>
</glyph>
<glyph name="o" format="2">
  <advance width="1195"/>
  <unicode hex="006F"/>
  <outline>
    <contour>
      <point x="843" y="694" type="line"/>
      <point x="910" y="691"/>
      <point x="1028" y="638"/>
      <point x="1118" y="548"/>
      <point x="1172" y="429"/>
      <point x="1175" y="362" type="qcurve"/>
      <point x="1175" y="332" type="line"/>
      <point x="1172" y="264"/>
      <point x="1118" y="146"/>
      <point x="1028" y="57"/>
      <point x="910" y="3"/>
      <point x="843" y="0" type="qcurve"/>
      <point x="370" y="0" type="line" smooth="yes"/>
      <point x="298" y="0"/>
      <point x="172" y="55"/>
      <point x="78" y="149"/>
      <point x="23" y="275"/>
      <point x="23" y="347" type="qcurve" smooth="yes"/>
      <point x="23" y="419"/>
      <point x="78" y="546"/>
      <point x="172" y="640"/>
      <point x="298" y="695"/>
      <point x="370" y="695" type="qcurve" smooth="yes"/>
      <point x="843" y="695" type="line"/>
    </contour>
    <contour>
      <point x="1145" y="362" type="line"/>
      <point x="1142" y="425"/>
      <point x="1090" y="535"/>
      <point x="1004" y="618"/>
      <point x="892" y="665"/>
      <point x="828" y="665" type="qcurve" smooth="yes"/>
      <point x="764" y="665"/>
      <point x="651" y="618"/>
      <point x="565" y="535"/>
      <point x="513" y="425"/>
      <point x="510" y="362" type="qcurve"/>
    </contour>
    <contour>
      <point x="687" y="30" type="line"/>
      <point x="643" y="49"/>
      <point x="569" y="111"/>
      <point x="515" y="189"/>
      <point x="483" y="281"/>
      <point x="481" y="332" type="qcurve"/>
      <point x="480" y="332" type="line"/>
      <point x="480" y="362" type="line"/>
      <point x="481" y="362" type="line"/>
      <point x="483" y="413"/>
      <point x="515" y="505"/>
      <point x="569" y="583"/>
      <point x="643" y="645"/>
      <point x="687" y="665" type="qcurve"/>
      <point x="370" y="665" type="line" smooth="yes"/>
      <point x="304" y="665"/>
      <point x="189" y="615"/>
      <point x="103" y="528"/>
      <point x="53" y="413"/>
      <point x="53" y="347" type="qcurve" smooth="yes"/>
      <point x="53" y="281"/>
      <point x="103" y="166"/>
      <point x="189" y="80"/>
      <point x="304" y="30"/>
      <point x="370" y="30" type="qcurve" smooth="yes"/>
    </contour>
    <contour>
      <point x="828" y="30" type="qcurve" smooth="yes"/>
      <point x="892" y="30"/>
      <point x="1004" y="77"/>
      <point x="1090" y="159"/>
      <point x="1142" y="269"/>
      <point x="1145" y="332" type="qcurve"/>
      <point x="510" y="332" type="line"/>
      <point x="513" y="269"/>
      <point x="565" y="159"/>
      <point x="651" y="77"/>
      <point x="764" y="30"/>
    </contour>
    <contour>
      <point x="828" y="646" type="qcurve" smooth="yes"/>
      <point x="885" y="646"/>
      <point x="987" y="605"/>
      <point x="1066" y="533"/>
      <point x="1118" y="436"/>
      <point x="1124" y="381" type="qcurve"/>
      <point x="531" y="381" type="line"/>
      <point x="537" y="437"/>
      <point x="589" y="534"/>
      <point x="668" y="605"/>
      <point x="771" y="646"/>
    </contour>
    <contour>
      <point x="370" y="49" type="line" smooth="yes"/>
      <point x="308" y="49"/>
      <point x="200" y="96"/>
      <point x="119" y="177"/>
      <point x="72" y="285"/>
      <point x="72" y="347" type="qcurve" smooth="yes"/>
      <point x="72" y="409"/>
      <point x="119" y="518"/>
      <point x="200" y="599"/>
      <point x="308" y="646"/>
      <point x="370" y="646" type="qcurve" smooth="yes"/>
      <point x="616" y="646" type="line"/>
      <point x="549" y="598"/>
      <point x="465" y="450"/>
      <point x="462" y="362" type="qcurve" smooth="yes"/>
      <point x="461" y="331" type="line"/>
      <point x="465" y="242"/>
      <point x="546" y="97"/>
      <point x="616" y="49" type="qcurve"/>
    </contour>
    <contour>
      <point x="828" y="49" type="qcurve" smooth="yes"/>
      <point x="771" y="49"/>
      <point x="668" y="90"/>
      <point x="589" y="161"/>
      <point x="537" y="257"/>
      <point x="531" y="313" type="qcurve"/>
      <point x="1124" y="313" type="line"/>
      <point x="1118" y="257"/>
      <point x="1067" y="161"/>
      <point x="987" y="90"/>
      <point x="885" y="49"/>
    </contour>
  </outline>
</glyph>
<glyph name="p" format="2">
  <advance width="1118"/>
  <unicode hex="0070"/>
  <outline>
    <contour>
      <point x="890" y="695" type="line"/>
      <point x="933" y="692"/>
      <point x="1009" y="655"/>
      <point x="1066" y="595"/>
      <point x="1098" y="517"/>
      <point x="1098" y="473" type="qcurve" smooth="yes"/>
      <point x="1098" y="429"/>
      <point x="1066" y="350"/>
      <point x="1009" y="290"/>
      <point x="933" y="253"/>
      <point x="890" y="250" type="qcurve"/>
      <point x="438" y="250" type="line"/>
      <point x="438" y="0" type="line"/>
      <point x="34" y="0" type="line"/>
      <point x="34" y="695" type="line"/>
    </contour>
    <contour>
      <point x="64" y="488" type="line"/>
      <point x="653" y="488" type="line"/>
      <point x="657" y="545"/>
      <point x="717" y="638"/>
      <point x="764" y="665" type="qcurve"/>
      <point x="64" y="665" type="line"/>
    </contour>
    <contour>
      <point x="408" y="250" type="line"/>
      <point x="64" y="250" type="line"/>
      <point x="64" y="30" type="line"/>
      <point x="408" y="30" type="line"/>
    </contour>
    <contour>
      <point x="764" y="280" type="line"/>
      <point x="717" y="307"/>
      <point x="657" y="401"/>
      <point x="653" y="458" type="qcurve"/>
      <point x="64" y="458" type="line"/>
      <point x="64" y="280" type="line"/>
    </contour>
    <contour>
      <point x="875" y="280" type="qcurve" smooth="yes"/>
      <point x="915" y="280"/>
      <point x="985" y="310"/>
      <point x="1038" y="363"/>
      <point x="1068" y="433"/>
      <point x="1068" y="473" type="qcurve" smooth="yes"/>
      <point x="1068" y="513"/>
      <point x="1038" y="583"/>
      <point x="985" y="635"/>
      <point x="915" y="665"/>
      <point x="875" y="665" type="qcurve" smooth="yes"/>
      <point x="835" y="665"/>
      <point x="765" y="635"/>
      <point x="713" y="583"/>
      <point x="683" y="513"/>
      <point x="683" y="473" type="qcurve" smooth="yes"/>
      <point x="683" y="433"/>
      <point x="713" y="363"/>
      <point x="765" y="310"/>
      <point x="835" y="280"/>
    </contour>
    <contour>
      <point x="83" y="646" type="line"/>
      <point x="707" y="646" type="line"/>
      <point x="680" y="619"/>
      <point x="642" y="547"/>
      <point x="636" y="507" type="qcurve"/>
      <point x="83" y="507" type="line"/>
    </contour>
    <contour>
      <point x="389" y="49" type="line"/>
      <point x="83" y="49" type="line"/>
      <point x="83" y="231" type="line"/>
      <point x="389" y="231" type="line"/>
    </contour>
    <contour>
      <point x="83" y="299" type="line"/>
      <point x="83" y="439" type="line"/>
      <point x="636" y="439" type="line"/>
      <point x="642" y="399"/>
      <point x="680" y="326"/>
      <point x="708" y="299" type="qcurve"/>
    </contour>
    <contour>
      <point x="875" y="299" type="qcurve" smooth="yes"/>
      <point x="839" y="299"/>
      <point x="776" y="326"/>
      <point x="729" y="374"/>
      <point x="702" y="437"/>
      <point x="702" y="473" type="qcurve" smooth="yes"/>
      <point x="702" y="509"/>
      <point x="729" y="572"/>
      <point x="776" y="619"/>
      <point x="839" y="646"/>
      <point x="875" y="646" type="qcurve" smooth="yes"/>
      <point x="911" y="646"/>
      <point x="974" y="619"/>
      <point x="1022" y="572"/>
      <point x="1049" y="509"/>
      <point x="1049" y="473" type="qcurve" smooth="yes"/>
      <point x="1049" y="437"/>
      <point x="1022" y="374"/>
      <point x="974" y="326"/>
      <point x="911" y="299"/>
    </contour>
  </outline>
</glyph>
<glyph name="r" format="2">
  <advance width="1209"/>
  <unicode hex="0072"/>
  <outline>
    <contour>
      <point x="1180" y="473" type="qcurve" smooth="yes"/>
      <point x="1180" y="431"/>
      <point x="1150" y="355"/>
      <point x="1098" y="296"/>
      <point x="1028" y="258"/>
      <point x="987" y="252" type="qcurve"/>
      <point x="1197" y="0" type="line"/>
      <point x="784" y="0" type="line"/>
      <point x="432" y="423" type="line"/>
      <point x="432" y="0" type="line"/>
      <point x="28" y="0" type="line"/>
      <point x="28" y="695" type="line"/>
      <point x="972" y="695" type="line"/>
      <point x="1015" y="692"/>
      <point x="1091" y="655"/>
      <point x="1148" y="595"/>
      <point x="1180" y="517"/>
    </contour>
    <contour>
      <point x="1150" y="473" type="qcurve" smooth="yes"/>
      <point x="1150" y="513"/>
      <point x="1119" y="583"/>
      <point x="1067" y="635"/>
      <point x="997" y="665"/>
      <point x="957" y="665" type="qcurve" smooth="yes"/>
      <point x="917" y="665"/>
      <point x="847" y="635"/>
      <point x="794" y="583"/>
      <point x="764" y="513"/>
      <point x="764" y="473" type="qcurve" smooth="yes"/>
      <point x="764" y="433"/>
      <point x="794" y="363"/>
      <point x="847" y="310"/>
      <point x="917" y="280"/>
      <point x="957" y="280" type="qcurve" smooth="yes"/>
      <point x="997" y="280"/>
      <point x="1067" y="310"/>
      <point x="1119" y="363"/>
      <point x="1150" y="433"/>
    </contour>
    <contour>
      <point x="269" y="665" type="line"/>
      <point x="402" y="506" type="line"/>
      <point x="402" y="665" type="line"/>
    </contour>
    <contour>
      <point x="402" y="459" type="line"/>
      <point x="230" y="665" type="line"/>
      <point x="58" y="665" type="line"/>
      <point x="58" y="30" type="line"/>
      <point x="402" y="30" type="line"/>
    </contour>
    <contour>
      <point x="590" y="280" type="line"/>
      <point x="846" y="280" type="line"/>
      <point x="795" y="309"/>
      <point x="734" y="410"/>
      <point x="734" y="473" type="qcurve" smooth="yes"/>
      <point x="734" y="535"/>
      <point x="795" y="636"/>
      <point x="846" y="665" type="qcurve"/>
      <point x="432" y="665" type="line"/>
      <point x="432" y="470" type="line"/>
    </contour>
    <contour>
      <point x="1133" y="30" type="line"/>
      <point x="950" y="250" type="line"/>
      <point x="615" y="250" type="line"/>
      <point x="798" y="30" type="line"/>
    </contour>
    <contour>
      <point x="1131" y="473" type="qcurve" smooth="yes"/>
      <point x="1131" y="437"/>
      <point x="1104" y="374"/>
      <point x="1056" y="326"/>
      <point x="993" y="299"/>
      <point x="957" y="299" type="qcurve" smooth="yes"/>
      <point x="921" y="299"/>
      <point x="858" y="326"/>
      <point x="810" y="374"/>
      <point x="783" y="437"/>
      <point x="783" y="473" type="qcurve" smooth="yes"/>
      <point x="783" y="509"/>
      <point x="810" y="572"/>
      <point x="858" y="619"/>
      <point x="921" y="646"/>
      <point x="957" y="646" type="qcurve" smooth="yes"/>
      <point x="993" y="646"/>
      <point x="1056" y="619"/>
      <point x="1104" y="572"/>
      <point x="1131" y="509"/>
    </contour>
    <contour>
      <point x="383" y="646" type="line"/>
      <point x="383" y="560" type="line"/>
      <point x="359" y="589"/>
      <point x="327" y="626"/>
      <point x="310" y="646" type="qcurve"/>
    </contour>
    <contour>
      <point x="383" y="49" type="line"/>
      <point x="77" y="49" type="line"/>
      <point x="77" y="646" type="line"/>
      <point x="221" y="646" type="line"/>
      <point x="383" y="451" type="line"/>
    </contour>
    <contour>
      <point x="451" y="477" type="line"/>
      <point x="451" y="646" type="line"/>
      <point x="788" y="646" type="line"/>
      <point x="753" y="613"/>
      <point x="715" y="526"/>
      <point x="715" y="473" type="qcurve" smooth="yes"/>
      <point x="715" y="419"/>
      <point x="753" y="332"/>
      <point x="788" y="299" type="qcurve"/>
      <point x="599" y="299" type="line"/>
    </contour>
    <contour>
      <point x="806" y="49" type="line"/>
      <point x="766" y="97"/>
      <point x="694" y="184"/>
      <point x="656" y="231" type="qcurve"/>
      <point x="942" y="231" type="line"/>
      <point x="982" y="183"/>
      <point x="1054" y="96"/>
      <point x="1092" y="49" type="qcurve"/>
    </contour>
  </outline>
</glyph>
<glyph name="braceleft" format="2">
  <advance width="460"/>
  <unicode hex="007B"/>
  <outline>
    <contour>
      <point x="69" y="425" type="line"/>
      <point x="70" y="425" type="line"/>
      <point x="70" y="423"/>
      <point x="69" y="422"/>
      <point x="69" y="420" type="qcurve"/>
    </contour>
    <contour>
      <point x="52" y="280" type="line"/>
      <point x="67" y="277" type="line"/>
      <point x="67" y="277"/>
      <point x="84" y="272"/>
      <point x="104" y="260"/>
      <point x="120" y="241"/>
      <point x="120" y="228" type="qcurve" smooth="yes"/>
      <point x="120" y="186" type="line"/>
      <point x="118" y="186" type="line"/>
      <point x="118" y="-17" type="line" smooth="yes"/>
      <point x="118" y="-20"/>
      <point x="119" y="-35"/>
      <point x="125" y="-56"/>
      <point x="137" y="-82"/>
      <point x="148" y="-95" type="qcurve" smooth="yes"/>
      <point x="213" y="-166"/>
      <point x="385" y="-166" type="qcurve" smooth="yes"/>
      <point x="405" y="-166" type="line"/>
      <point x="405" y="-59" type="line"/>
      <point x="390" y="-55" type="line"/>
      <point x="390" y="-55"/>
      <point x="373" y="-50"/>
      <point x="353" y="-38"/>
      <point x="337" y="-20"/>
      <point x="337" y="-7" type="qcurve" smooth="yes"/>
      <point x="337" y="36" type="line"/>
      <point x="339" y="36" type="line"/>
      <point x="339" y="239" type="line" smooth="yes"/>
      <point x="339" y="245"/>
      <point x="331" y="291"/>
      <point x="309" y="317" type="qcurve" smooth="yes"/>
      <point x="304" y="323"/>
      <point x="279" y="354"/>
      <point x="269" y="362" type="qcurve"/>
      <point x="278" y="370"/>
      <point x="304" y="397"/>
      <point x="309" y="405" type="qcurve"/>
      <point x="331" y="431"/>
      <point x="339" y="477"/>
      <point x="339" y="483" type="qcurve" smooth="yes"/>
      <point x="339" y="679" type="line"/>
      <point x="337" y="679" type="line"/>
      <point x="337" y="721" type="line" smooth="yes"/>
      <point x="337" y="734"/>
      <point x="353" y="753"/>
      <point x="373" y="765"/>
      <point x="390" y="770"/>
      <point x="390" y="770" type="qcurve"/>
      <point x="405" y="773" type="line"/>
      <point x="405" y="881" type="line"/>
      <point x="385" y="881" type="line" smooth="yes"/>
      <point x="213" y="881"/>
      <point x="148" y="810" type="qcurve" smooth="yes"/>
      <point x="137" y="797"/>
      <point x="125" y="771"/>
      <point x="119" y="750"/>
      <point x="118" y="735"/>
      <point x="118" y="732" type="qcurve" smooth="yes"/>
      <point x="118" y="585" type="line"/>
      <point x="120" y="585" type="line"/>
      <point x="120" y="493" type="line" smooth="yes"/>
      <point x="120" y="480"/>
      <point x="104" y="462"/>
      <point x="84" y="450"/>
      <point x="67" y="445"/>
      <point x="67" y="445" type="qcurve"/>
      <point x="52" y="441" type="line"/>
    </contour>
    <contour>
      <point x="69" y="420" type="line"/>
      <point x="70" y="420" type="line"/>
      <point x="70" y="425" type="line"/>
      <point x="70" y="426" type="line"/>
      <point x="89" y="431"/>
      <point x="104" y="441" type="qcurve" smooth="yes"/>
      <point x="117" y="449"/>
      <point x="139" y="474"/>
      <point x="139" y="493" type="qcurve" smooth="yes"/>
      <point x="139" y="605" type="line"/>
      <point x="138" y="605" type="line"/>
      <point x="138" y="733" type="line" smooth="yes"/>
      <point x="138" y="769"/>
      <point x="164" y="797" type="qcurve" smooth="yes"/>
      <point x="175" y="809"/>
      <point x="210" y="832"/>
      <point x="263" y="850"/>
      <point x="336" y="861"/>
      <point x="385" y="861" type="qcurve"/>
      <point x="385" y="789" type="line"/>
      <point x="366" y="784"/>
      <point x="351" y="774" type="qcurve" smooth="yes"/>
      <point x="338" y="766"/>
      <point x="318" y="740"/>
      <point x="318" y="721" type="qcurve" smooth="yes"/>
      <point x="318" y="659" type="line"/>
      <point x="319" y="659" type="line"/>
      <point x="319" y="482" type="line"/>
      <point x="320" y="471"/>
      <point x="317" y="460" type="qcurve" smooth="yes"/>
      <point x="315" y="450"/>
      <point x="302" y="426"/>
      <point x="289" y="413" type="qcurve"/>
      <point x="234" y="364" type="line"/>
      <point x="266" y="336"/>
      <point x="300" y="292"/>
      <point x="308" y="275" type="qcurve" smooth="yes"/>
      <point x="318" y="256"/>
      <point x="319" y="240" type="qcurve"/>
      <point x="319" y="56" type="line"/>
      <point x="318" y="56" type="line"/>
      <point x="318" y="-7" type="line" smooth="yes"/>
      <point x="318" y="-26"/>
      <point x="338" y="-51"/>
      <point x="351" y="-59" type="qcurve" smooth="yes"/>
      <point x="366" y="-69"/>
      <point x="385" y="-74" type="qcurve"/>
      <point x="385" y="-146" type="line"/>
      <point x="336" y="-146"/>
      <point x="263" y="-135"/>
      <point x="210" y="-117"/>
      <point x="175" y="-94"/>
      <point x="164" y="-82" type="qcurve" smooth="yes"/>
      <point x="138" y="-54"/>
      <point x="138" y="-18" type="qcurve" smooth="yes"/>
      <point x="138" y="166" type="line"/>
      <point x="139" y="166" type="line"/>
      <point x="139" y="228" type="line" smooth="yes"/>
      <point x="139" y="242"/>
      <point x="124" y="264"/>
      <point x="102" y="282"/>
      <point x="78" y="294"/>
      <point x="69" y="297" type="qcurve"/>
    </contour>
    <contour>
      <point x="62" y="480" type="line" smooth="yes"/>
      <point x="69" y="482"/>
      <point x="87" y="492"/>
      <point x="90" y="498" type="qcurve"/>
      <point x="88" y="504" type="line"/>
      <point x="88" y="736" type="line" smooth="yes"/>
      <point x="88" y="741"/>
      <point x="89" y="762"/>
      <point x="97" y="788"/>
      <point x="112" y="819"/>
      <point x="126" y="834" type="qcurve" smooth="yes"/>
      <point x="144" y="854"/>
      <point x="199" y="885"/>
      <point x="231" y="896" type="qcurve"/>
      <point x="297" y="916"/>
      <point x="385" y="916" type="qcurve" smooth="yes"/>
      <point x="435" y="916" type="line"/>
      <point x="435" y="756" type="line"/>
      <point x="426" y="754"/>
      <point x="403" y="747"/>
      <point x="395" y="745" type="qcurve" smooth="yes"/>
      <point x="387" y="743"/>
      <point x="370" y="732"/>
      <point x="367" y="728" type="qcurve"/>
      <point x="369" y="721" type="line"/>
      <point x="369" y="489" type="line" smooth="yes"/>
      <point x="369" y="484"/>
      <point x="368" y="463"/>
      <point x="360" y="436"/>
      <point x="345" y="405"/>
      <point x="331" y="390" type="qcurve" smooth="yes"/>
      <point x="326" y="385"/>
      <point x="311" y="370"/>
      <point x="299" y="362" type="qcurve"/>
      <point x="315" y="350"/>
      <point x="331" y="331" type="qcurve" smooth="yes"/>
      <point x="345" y="316"/>
      <point x="360" y="285"/>
      <point x="368" y="259"/>
      <point x="369" y="238"/>
      <point x="369" y="233" type="qcurve" smooth="yes"/>
      <point x="369" y="-6" type="line"/>
      <point x="369" y="-12" type="line"/>
      <point x="373" y="-19"/>
      <point x="391" y="-29"/>
      <point x="398" y="-31" type="qcurve" smooth="yes"/>
      <point x="435" y="-41" type="line"/>
      <point x="435" y="-201" type="line"/>
      <point x="385" y="-201" type="line" smooth="yes"/>
      <point x="297" y="-201"/>
      <point x="231" y="-181" type="qcurve" smooth="yes"/>
      <point x="164" y="-162"/>
      <point x="126" y="-119" type="qcurve" smooth="yes"/>
      <point x="112" y="-104"/>
      <point x="97" y="-73"/>
      <point x="89" y="-47"/>
      <point x="88" y="-26"/>
      <point x="88" y="-21" type="qcurve"/>
      <point x="90" y="218" type="line"/>
      <point x="90" y="225" type="line"/>
      <point x="87" y="229"/>
      <point x="69" y="241"/>
      <point x="61" y="243" type="qcurve" smooth="yes"/>
      <point x="22" y="253" type="line"/>
      <point x="22" y="469" type="line"/>
    </contour>
  </outline>
</glyph>
<glyph name="bar" format="2">
  <advance width="297"/>
  <unicode hex="007C"/>
  <outline>
    <contour>
      <point x="26" y="840" type="line"/>
      <point x="270" y="840" type="line"/>
      <point x="270" y="-109" type="line"/>
      <point x="26" y="-109" type="line"/>
    </contour>
    <contour>
      <point x="240" y="-79" type="line"/>
      <point x="240" y="333" type="line"/>
      <point x="56" y="333" type="line"/>
      <point x="56" y="-79" type="line"/>
    </contour>
    <contour>
      <point x="56" y="810" type="line"/>
      <point x="56" y="363" type="line"/>
      <point x="240" y="363" type="line"/>
      <point x="240" y="810" type="line"/>
    </contour>
    <contour>
      <point x="221" y="-60" type="line"/>
      <point x="75" y="-60" type="line"/>
      <point x="75" y="314" type="line"/>
      <point x="221" y="314" type="line"/>
    </contour>
    <contour>
      <point x="75" y="791" type="line"/>
      <point x="221" y="791" type="line"/>
      <point x="221" y="382" type="line"/>
      <point x="75" y="382" type="line"/>
    </contour>
  </outline>
</glyph>
<glyph name="braceright" format="2">
  <advance width="460"/>
  <unicode hex="007D"/>
  <outline>
    <contour>
      <point x="388" y="420" type="line"/>
      <point x="388" y="422"/>
      <point x="387" y="423"/>
      <point x="387" y="425" type="qcurve"/>
      <point x="388" y="425" type="line"/>
    </contour>
    <contour>
      <point x="405" y="441" type="line"/>
      <point x="390" y="445" type="line"/>
      <point x="390" y="445"/>
      <point x="373" y="450"/>
      <point x="353" y="462"/>
      <point x="337" y="480"/>
      <point x="337" y="493" type="qcurve" smooth="yes"/>
      <point x="337" y="585" type="line"/>
      <point x="339" y="585" type="line"/>
      <point x="339" y="732" type="line" smooth="yes"/>
      <point x="339" y="738"/>
      <point x="331" y="784"/>
      <point x="309" y="810" type="qcurve"/>
      <point x="244" y="881"/>
      <point x="72" y="881" type="qcurve" smooth="yes"/>
      <point x="52" y="881" type="line"/>
      <point x="52" y="773" type="line"/>
      <point x="67" y="770" type="line"/>
      <point x="67" y="770"/>
      <point x="84" y="765"/>
      <point x="104" y="753"/>
      <point x="120" y="734"/>
      <point x="120" y="721" type="qcurve" smooth="yes"/>
      <point x="120" y="679" type="line"/>
      <point x="118" y="679" type="line"/>
      <point x="118" y="483" type="line" smooth="yes"/>
      <point x="118" y="480"/>
      <point x="119" y="465"/>
      <point x="125" y="444"/>
      <point x="137" y="418"/>
      <point x="148" y="405" type="qcurve"/>
      <point x="153" y="397"/>
      <point x="179" y="370"/>
      <point x="188" y="362" type="qcurve"/>
      <point x="178" y="354"/>
      <point x="153" y="323"/>
      <point x="148" y="317" type="qcurve" smooth="yes"/>
      <point x="137" y="304"/>
      <point x="125" y="278"/>
      <point x="119" y="257"/>
      <point x="118" y="242"/>
      <point x="118" y="239" type="qcurve" smooth="yes"/>
      <point x="118" y="36" type="line"/>
      <point x="120" y="36" type="line"/>
      <point x="120" y="-7" type="line" smooth="yes"/>
      <point x="120" y="-20"/>
      <point x="104" y="-38"/>
      <point x="84" y="-50"/>
      <point x="67" y="-55"/>
      <point x="67" y="-55" type="qcurve"/>
      <point x="52" y="-59" type="line"/>
      <point x="52" y="-166" type="line"/>
      <point x="72" y="-166" type="line" smooth="yes"/>
      <point x="244" y="-166"/>
      <point x="309" y="-95" type="qcurve"/>
      <point x="331" y="-69"/>
      <point x="339" y="-23"/>
      <point x="339" y="-17" type="qcurve" smooth="yes"/>
      <point x="339" y="186" type="line"/>
      <point x="337" y="186" type="line"/>
      <point x="337" y="228" type="line" smooth="yes"/>
      <point x="337" y="241"/>
      <point x="353" y="260"/>
      <point x="373" y="272"/>
      <point x="390" y="277"/>
      <point x="390" y="277" type="qcurve"/>
      <point x="405" y="280" type="line"/>
    </contour>
    <contour>
      <point x="388" y="297" type="line"/>
      <point x="379" y="294"/>
      <point x="355" y="282"/>
      <point x="333" y="264"/>
      <point x="318" y="242"/>
      <point x="318" y="228" type="qcurve" smooth="yes"/>
      <point x="318" y="166" type="line"/>
      <point x="319" y="166" type="line"/>
      <point x="319" y="-18" type="line" smooth="yes"/>
      <point x="319" y="-54"/>
      <point x="293" y="-82" type="qcurve" smooth="yes"/>
      <point x="282" y="-94"/>
      <point x="247" y="-117"/>
      <point x="194" y="-135"/>
      <point x="121" y="-146"/>
      <point x="72" y="-146" type="qcurve"/>
      <point x="72" y="-74" type="line"/>
      <point x="90" y="-69"/>
      <point x="105" y="-59" type="qcurve" smooth="yes"/>
      <point x="118" y="-51"/>
      <point x="139" y="-26"/>
      <point x="139" y="-7" type="qcurve" smooth="yes"/>
      <point x="139" y="56" type="line"/>
      <point x="138" y="56" type="line"/>
      <point x="138" y="240" type="line"/>
      <point x="139" y="256"/>
      <point x="149" y="275" type="qcurve" smooth="yes"/>
      <point x="157" y="292"/>
      <point x="191" y="336"/>
      <point x="223" y="364" type="qcurve"/>
      <point x="168" y="413" type="line"/>
      <point x="155" y="426"/>
      <point x="142" y="450"/>
      <point x="140" y="460" type="qcurve" smooth="yes"/>
      <point x="137" y="471"/>
      <point x="138" y="482" type="qcurve"/>
      <point x="138" y="659" type="line"/>
      <point x="139" y="659" type="line"/>
      <point x="139" y="721" type="line" smooth="yes"/>
      <point x="139" y="740"/>
      <point x="118" y="766"/>
      <point x="105" y="774" type="qcurve" smooth="yes"/>
      <point x="90" y="784"/>
      <point x="72" y="789" type="qcurve"/>
      <point x="72" y="861" type="line"/>
      <point x="121" y="861"/>
      <point x="194" y="850"/>
      <point x="247" y="832"/>
      <point x="282" y="809"/>
      <point x="293" y="797" type="qcurve" smooth="yes"/>
      <point x="319" y="769"/>
      <point x="319" y="733" type="qcurve" smooth="yes"/>
      <point x="319" y="605" type="line"/>
      <point x="318" y="605" type="line"/>
      <point x="318" y="493" type="line" smooth="yes"/>
      <point x="318" y="474"/>
      <point x="339" y="449"/>
      <point x="352" y="441" type="qcurve" smooth="yes"/>
      <point x="367" y="431"/>
      <point x="387" y="426" type="qcurve"/>
      <point x="387" y="425" type="line"/>
      <point x="387" y="420" type="line"/>
      <point x="388" y="420" type="line"/>
    </contour>
    <contour>
      <point x="435" y="469" type="line"/>
      <point x="435" y="253" type="line"/>
      <point x="396" y="243" type="line" smooth="yes"/>
      <point x="388" y="241"/>
      <point x="370" y="229"/>
      <point x="367" y="225" type="qcurve"/>
      <point x="367" y="218" type="line"/>
      <point x="369" y="-21" type="line"/>
      <point x="369" y="-26"/>
      <point x="368" y="-47"/>
      <point x="360" y="-73"/>
      <point x="345" y="-104"/>
      <point x="331" y="-119" type="qcurve" smooth="yes"/>
      <point x="293" y="-162"/>
      <point x="226" y="-181" type="qcurve" smooth="yes"/>
      <point x="160" y="-201"/>
      <point x="72" y="-201" type="qcurve" smooth="yes"/>
      <point x="22" y="-201" type="line"/>
      <point x="22" y="-41" type="line"/>
      <point x="59" y="-31" type="line" smooth="yes"/>
      <point x="66" y="-29"/>
      <point x="84" y="-19"/>
      <point x="88" y="-12" type="qcurve"/>
      <point x="88" y="-6" type="line"/>
      <point x="88" y="233" type="line" smooth="yes"/>
      <point x="88" y="238"/>
      <point x="89" y="259"/>
      <point x="97" y="285"/>
      <point x="112" y="316"/>
      <point x="126" y="331" type="qcurve" smooth="yes"/>
      <point x="142" y="350"/>
      <point x="158" y="362" type="qcurve"/>
      <point x="146" y="370"/>
      <point x="131" y="385"/>
      <point x="126" y="390" type="qcurve" smooth="yes"/>
      <point x="112" y="405"/>
      <point x="97" y="436"/>
      <point x="89" y="463"/>
      <point x="88" y="484"/>
      <point x="88" y="489" type="qcurve" smooth="yes"/>
      <point x="88" y="721" type="line"/>
      <point x="90" y="728" type="line"/>
      <point x="87" y="732"/>
      <point x="70" y="743"/>
      <point x="62" y="745" type="qcurve" smooth="yes"/>
      <point x="54" y="747"/>
      <point x="31" y="754"/>
      <point x="22" y="756" type="qcurve"/>
      <point x="22" y="916" type="line"/>
      <point x="72" y="916" type="line" smooth="yes"/>
      <point x="160" y="916"/>
      <point x="226" y="896" type="qcurve"/>
      <point x="258" y="885"/>
      <point x="313" y="854"/>
      <point x="331" y="834" type="qcurve" smooth="yes"/>
      <point x="345" y="819"/>
      <point x="360" y="788"/>
      <point x="368" y="762"/>
      <point x="369" y="741"/>
      <point x="369" y="736" type="qcurve" smooth="yes"/>
      <point x="369" y="504" type="line"/>
      <point x="367" y="498" type="line"/>
      <point x="370" y="492"/>
      <point x="388" y="482"/>
      <point x="395" y="480" type="qcurve" smooth="yes"/>
    </contour>
  </outline>
</glyph>
<glyph name="asciitilde" format="2">
  <advance width="696"/>
  <unicode hex="007E"/>
  <outline>
    <contour>
      <point x="466" y="422" type="qcurve" smooth="yes"/>
      <point x="484" y="417"/>
      <point x="515" y="429"/>
      <point x="526" y="440" type="qcurve"/>
      <point x="539" y="451"/>
      <point x="549" y="469" type="qcurve"/>
      <point x="618" y="450" type="line"/>
      <point x="605" y="403"/>
      <point x="575" y="335"/>
      <point x="544" y="288"/>
      <point x="512" y="260"/>
      <point x="498" y="253" type="qcurve" smooth="yes"/>
      <point x="464" y="235"/>
      <point x="430" y="245" type="qcurve" smooth="yes"/>
      <point x="306" y="279" type="line"/>
      <point x="307" y="280" type="line"/>
      <point x="293" y="284"/>
      <point x="261" y="292"/>
      <point x="247" y="297" type="qcurve"/>
      <point x="228" y="302"/>
      <point x="198" y="289"/>
      <point x="187" y="278" type="qcurve" smooth="yes"/>
      <point x="174" y="266"/>
      <point x="164" y="249" type="qcurve"/>
      <point x="94" y="268" type="line"/>
      <point x="107" y="315"/>
      <point x="136" y="383"/>
      <point x="168" y="429"/>
      <point x="199" y="457"/>
      <point x="214" y="465" type="qcurve" smooth="yes"/>
      <point x="248" y="483"/>
      <point x="283" y="473" type="qcurve" smooth="yes"/>
      <point x="406" y="439" type="line"/>
      <point x="406" y="438" type="line"/>
      <point x="420" y="434"/>
      <point x="452" y="426"/>
    </contour>
    <contour>
      <point x="539" y="492" type="line"/>
      <point x="532" y="479" type="line"/>
      <point x="532" y="479"/>
      <point x="522" y="464"/>
      <point x="505" y="448"/>
      <point x="483" y="438"/>
      <point x="471" y="441" type="qcurve" smooth="yes"/>
      <point x="430" y="452" type="line"/>
      <point x="430" y="453" type="line"/>
      <point x="288" y="492" type="line" smooth="yes"/>
      <point x="285" y="493"/>
      <point x="271" y="496"/>
      <point x="249" y="496"/>
      <point x="221" y="491"/>
      <point x="206" y="483" type="qcurve" smooth="yes"/>
      <point x="120" y="441"/>
      <point x="75" y="273" type="qcurve" smooth="yes"/>
      <point x="70" y="254" type="line"/>
      <point x="158" y="230" type="line"/>
      <point x="173" y="226" type="line"/>
      <point x="181" y="239" type="line"/>
      <point x="181" y="239"/>
      <point x="190" y="254"/>
      <point x="207" y="270"/>
      <point x="229" y="281"/>
      <point x="241" y="278" type="qcurve" smooth="yes"/>
      <point x="282" y="266" type="line"/>
      <point x="282" y="265" type="line"/>
      <point x="424" y="226" type="line" smooth="yes"/>
      <point x="427" y="225"/>
      <point x="441" y="222"/>
      <point x="463" y="222"/>
      <point x="491" y="227"/>
      <point x="507" y="235" type="qcurve" smooth="yes"/>
      <point x="592" y="279"/>
      <point x="638" y="445" type="qcurve" smooth="yes"/>
      <point x="643" y="464" type="line"/>
      <point x="554" y="488" type="line"/>
    </contour>
    <contour>
      <point x="519" y="528" type="line"/>
      <point x="557" y="518" type="line"/>
      <point x="674" y="486" type="line"/>
      <point x="661" y="438" type="line" smooth="yes"/>
      <point x="649" y="396"/>
      <point x="619" y="322"/>
      <point x="603" y="295" type="qcurve" smooth="yes"/>
      <point x="566" y="235"/>
      <point x="515" y="209" type="qcurve" smooth="yes"/>
      <point x="497" y="200"/>
      <point x="464" y="193"/>
      <point x="450" y="193" type="qcurve" smooth="yes"/>
      <point x="437" y="193"/>
      <point x="416" y="197"/>
      <point x="411" y="199" type="qcurve"/>
      <point x="235" y="247" type="line"/>
      <point x="230" y="251" type="line"/>
      <point x="224" y="249"/>
      <point x="207" y="233"/>
      <point x="202" y="225" type="qcurve"/>
      <point x="202" y="226" type="line"/>
      <point x="197" y="218"/>
      <point x="189" y="201"/>
      <point x="184" y="193" type="qcurve"/>
      <point x="146" y="203" type="line"/>
      <point x="29" y="235" type="line"/>
      <point x="42" y="282" type="line"/>
      <point x="64" y="369"/>
      <point x="100" y="426" type="qcurve" smooth="yes"/>
      <point x="140" y="488"/>
      <point x="188" y="511" type="qcurve" smooth="yes"/>
      <point x="206" y="520"/>
      <point x="241" y="527"/>
      <point x="255" y="527" type="qcurve" smooth="yes"/>
      <point x="267" y="527"/>
      <point x="287" y="524"/>
      <point x="292" y="522" type="qcurve"/>
      <point x="469" y="473" type="line"/>
      <point x="475" y="471" type="line"/>
      <point x="480" y="473"/>
      <point x="496" y="487"/>
      <point x="501" y="494" type="qcurve"/>
    </contour>
  </outline>
</glyph>
<glyph name="exclamdown" format="2">
  <advance width="419"/>
  <unicode hex="00A1"/>
  <outline>
    <contour>
      <point x="346" y="573" type="line"/>
      <point x="75" y="573" type="line"/>
      <point x="75" y="646" type="line"/>
      <point x="346" y="646" type="line"/>
    </contour>
    <contour>
      <point x="56" y="665" type="line"/>
      <point x="56" y="554" type="line"/>
      <point x="365" y="554" type="line"/>
      <point x="365" y="665" type="line"/>
    </contour>
    <contour>
      <point x="395" y="695" type="line"/>
      <point x="395" y="522" type="line"/>
      <point x="26" y="522" type="line"/>
      <point x="26" y="695" type="line"/>
    </contour>
    <contour>
      <point x="75" y="431" type="line"/>
      <point x="346" y="431" type="line"/>
      <point x="346" y="49" type="line"/>
      <point x="75" y="49" type="line"/>
    </contour>
    <contour>
      <point x="365" y="30" type="line"/>
      <point x="365" y="455" type="line"/>
      <point x="56" y="455" type="line"/>
      <point x="56" y="30" type="line"/>
    </contour>
    <contour>
      <point x="26" y="484" type="line"/>
      <point x="395" y="484" type="line"/>
      <point x="395" y="0" type="line"/>
      <point x="26" y="0" type="line"/>
    </contour>
  </outline>
</glyph>
<glyph name="cent" format="2">
  <advance width="991"/>
  <unicode hex="00A2"/>
  <outline>
    <contour>
      <point x="312" y="695" type="line"/>
      <point x="672" y="695" type="line"/>
      <point x="672" y="567" type="line"/>
      <point x="730" y="567" type="line" smooth="yes"/>
      <point x="770" y="567"/>
      <point x="842" y="544"/>
      <point x="902" y="498"/>
      <point x="946" y="426"/>
      <point x="957" y="377" type="qcurve"/>
      <point x="302" y="377" type="line"/>
      <point x="302" y="325" type="line"/>
      <point x="958" y="325" type="line"/>
      <point x="948" y="274"/>
      <point x="904" y="200"/>
      <point x="844" y="152"/>
      <point x="770" y="129"/>
      <point x="730" y="129" type="qcurve" smooth="yes"/>
      <point x="672" y="129" type="line"/>
      <point x="672" y="0" type="line"/>
      <point x="312" y="0" type="line"/>
      <point x="312" y="129" type="line"/>
      <point x="258" y="129" type="line" smooth="yes"/>
      <point x="210" y="129"/>
      <point x="125" y="162"/>
      <point x="62" y="220"/>
      <point x="26" y="300"/>
      <point x="26" y="347" type="qcurve" smooth="yes"/>
      <point x="26" y="394"/>
      <point x="62" y="475"/>
      <point x="125" y="534"/>
      <point x="210" y="567"/>
      <point x="258" y="567" type="qcurve" smooth="yes"/>
      <point x="312" y="567" type="line"/>
    </contour>
    <contour>
      <point x="272" y="538" type="line"/>
      <point x="255" y="538" type="line" smooth="yes"/>
      <point x="214" y="538"/>
      <point x="143" y="508"/>
      <point x="91" y="456"/>
      <point x="60" y="387"/>
      <point x="60" y="347" type="qcurve" smooth="yes"/>
      <point x="60" y="308"/>
      <point x="91" y="239"/>
      <point x="143" y="187"/>
      <point x="214" y="158"/>
      <point x="255" y="158" type="qcurve" smooth="yes"/>
      <point x="272" y="158" type="line"/>
    </contour>
    <contour>
      <point x="295" y="292" type="line"/>
      <point x="295" y="158" type="line"/>
      <point x="735" y="158" type="line" smooth="yes"/>
      <point x="768" y="158"/>
      <point x="827" y="176"/>
      <point x="875" y="211"/>
      <point x="912" y="259"/>
      <point x="922" y="292" type="qcurve"/>
    </contour>
    <contour>
      <point x="295" y="538" type="line"/>
      <point x="295" y="406" type="line"/>
      <point x="922" y="406" type="line"/>
      <point x="912" y="436"/>
      <point x="875" y="484"/>
      <point x="827" y="518"/>
      <point x="768" y="538"/>
      <point x="735" y="538" type="qcurve" smooth="yes"/>
    </contour>
    <contour>
      <point x="81" y="350" type="qcurve" smooth="yes"/>
      <point x="81" y="385"/>
      <point x="108" y="447"/>
      <point x="155" y="493"/>
      <point x="218" y="520"/>
      <point x="254" y="521" type="qcurve"/>
      <point x="254" y="179" type="line"/>
      <point x="218" y="179"/>
      <point x="155" y="206"/>
      <point x="108" y="253"/>
      <point x="81" y="315"/>
    </contour>
    <contour>
      <point x="890" y="272" type="line"/>
      <point x="867" y="229"/>
      <point x="784" y="179"/>
      <point x="732" y="179" type="qcurve" smooth="yes"/>
      <point x="315" y="179" type="line"/>
      <point x="315" y="272" type="line"/>
    </contour>
    <contour>
      <point x="732" y="519" type="line" smooth="yes"/>
      <point x="785" y="519"/>
      <point x="867" y="469"/>
      <point x="890" y="427" type="qcurve"/>
      <point x="315" y="427" type="line"/>
      <point x="315" y="519" type="line"/>
    </contour>
    <contour>
      <point x="642" y="30" type="line"/>
      <point x="642" y="105" type="line"/>
      <point x="342" y="105" type="line"/>
      <point x="342" y="30" type="line"/>
    </contour>
    <contour>
      <point x="642" y="577" type="line"/>
      <point x="642" y="662" type="line"/>
      <point x="342" y="662" type="line"/>
      <point x="342" y="577" type="line"/>
    </contour>
    <contour>
      <point x="623" y="49" type="line"/>
      <point x="361" y="49" type="line"/>
      <point x="361" y="86" type="line"/>
      <point x="623" y="86" type="line"/>
    </contour>
    <contour>
      <point x="623" y="596" type="line"/>
      <point x="361" y="596" type="line"/>
      <point x="361" y="643" type="line"/>
      <point x="623" y="643" type="line"/>
    </contour>
  </outline>
</glyph>
